G04 #@! TF.GenerationSoftware,KiCad,Pcbnew,8.0.4*
G04 #@! TF.CreationDate,2024-08-30T21:15:12+02:00*
G04 #@! TF.ProjectId,STARGLIDER_MainBoard_rev1,53544152-474c-4494-9445-525f4d61696e,rev?*
G04 #@! TF.SameCoordinates,Original*
G04 #@! TF.FileFunction,Legend,Bot*
G04 #@! TF.FilePolarity,Positive*
%FSLAX46Y46*%
G04 Gerber Fmt 4.6, Leading zero omitted, Abs format (unit mm)*
G04 Created by KiCad (PCBNEW 8.0.4) date 2024-08-30 21:15:12*
%MOMM*%
%LPD*%
G01*
G04 APERTURE LIST*
G04 Aperture macros list*
%AMRoundRect*
0 Rectangle with rounded corners*
0 $1 Rounding radius*
0 $2 $3 $4 $5 $6 $7 $8 $9 X,Y pos of 4 corners*
0 Add a 4 corners polygon primitive as box body*
4,1,4,$2,$3,$4,$5,$6,$7,$8,$9,$2,$3,0*
0 Add four circle primitives for the rounded corners*
1,1,$1+$1,$2,$3*
1,1,$1+$1,$4,$5*
1,1,$1+$1,$6,$7*
1,1,$1+$1,$8,$9*
0 Add four rect primitives between the rounded corners*
20,1,$1+$1,$2,$3,$4,$5,0*
20,1,$1+$1,$4,$5,$6,$7,0*
20,1,$1+$1,$6,$7,$8,$9,0*
20,1,$1+$1,$8,$9,$2,$3,0*%
G04 Aperture macros list end*
%ADD10C,0.250000*%
%ADD11C,0.170000*%
%ADD12C,0.200000*%
%ADD13C,0.120000*%
%ADD14C,0.000000*%
%ADD15C,5.600000*%
%ADD16R,1.600000X1.600000*%
%ADD17C,1.600000*%
%ADD18C,0.900000*%
%ADD19C,2.374900*%
%ADD20C,0.990600*%
%ADD21C,0.650000*%
%ADD22O,2.100000X1.000000*%
%ADD23O,1.800000X1.000000*%
%ADD24RoundRect,0.200000X-0.275000X0.200000X-0.275000X-0.200000X0.275000X-0.200000X0.275000X0.200000X0*%
%ADD25RoundRect,0.200000X0.275000X-0.200000X0.275000X0.200000X-0.275000X0.200000X-0.275000X-0.200000X0*%
%ADD26RoundRect,0.225000X0.250000X-0.225000X0.250000X0.225000X-0.250000X0.225000X-0.250000X-0.225000X0*%
%ADD27RoundRect,0.225000X-0.250000X0.225000X-0.250000X-0.225000X0.250000X-0.225000X0.250000X0.225000X0*%
%ADD28RoundRect,0.375000X-0.625000X-0.375000X0.625000X-0.375000X0.625000X0.375000X-0.625000X0.375000X0*%
%ADD29RoundRect,0.500000X-0.500000X-1.400000X0.500000X-1.400000X0.500000X1.400000X-0.500000X1.400000X0*%
%ADD30RoundRect,0.225000X0.225000X0.250000X-0.225000X0.250000X-0.225000X-0.250000X0.225000X-0.250000X0*%
%ADD31RoundRect,0.150000X-0.150000X0.587500X-0.150000X-0.587500X0.150000X-0.587500X0.150000X0.587500X0*%
%ADD32RoundRect,0.200000X-0.200000X-0.275000X0.200000X-0.275000X0.200000X0.275000X-0.200000X0.275000X0*%
%ADD33RoundRect,0.200000X0.200000X0.275000X-0.200000X0.275000X-0.200000X-0.275000X0.200000X-0.275000X0*%
%ADD34RoundRect,0.150000X-0.587500X-0.150000X0.587500X-0.150000X0.587500X0.150000X-0.587500X0.150000X0*%
G04 APERTURE END LIST*
D10*
X112895050Y-131492000D02*
X112752193Y-131539619D01*
X112752193Y-131539619D02*
X112514098Y-131539619D01*
X112514098Y-131539619D02*
X112418860Y-131492000D01*
X112418860Y-131492000D02*
X112371241Y-131444380D01*
X112371241Y-131444380D02*
X112323622Y-131349142D01*
X112323622Y-131349142D02*
X112323622Y-131253904D01*
X112323622Y-131253904D02*
X112371241Y-131158666D01*
X112371241Y-131158666D02*
X112418860Y-131111047D01*
X112418860Y-131111047D02*
X112514098Y-131063428D01*
X112514098Y-131063428D02*
X112704574Y-131015809D01*
X112704574Y-131015809D02*
X112799812Y-130968190D01*
X112799812Y-130968190D02*
X112847431Y-130920571D01*
X112847431Y-130920571D02*
X112895050Y-130825333D01*
X112895050Y-130825333D02*
X112895050Y-130730095D01*
X112895050Y-130730095D02*
X112847431Y-130634857D01*
X112847431Y-130634857D02*
X112799812Y-130587238D01*
X112799812Y-130587238D02*
X112704574Y-130539619D01*
X112704574Y-130539619D02*
X112466479Y-130539619D01*
X112466479Y-130539619D02*
X112323622Y-130587238D01*
X111895050Y-131444380D02*
X111847431Y-131492000D01*
X111847431Y-131492000D02*
X111895050Y-131539619D01*
X111895050Y-131539619D02*
X111942669Y-131492000D01*
X111942669Y-131492000D02*
X111895050Y-131444380D01*
X111895050Y-131444380D02*
X111895050Y-131539619D01*
X111418860Y-131539619D02*
X111418860Y-130539619D01*
X111418860Y-130539619D02*
X110847432Y-131539619D01*
X110847432Y-131539619D02*
X110847432Y-130539619D01*
X110180765Y-131063428D02*
X110180765Y-131539619D01*
X110514098Y-130539619D02*
X110180765Y-131063428D01*
X110180765Y-131063428D02*
X109847432Y-130539619D01*
X109514098Y-131539619D02*
X109514098Y-130539619D01*
X109514098Y-130539619D02*
X109276003Y-130539619D01*
X109276003Y-130539619D02*
X109133146Y-130587238D01*
X109133146Y-130587238D02*
X109037908Y-130682476D01*
X109037908Y-130682476D02*
X108990289Y-130777714D01*
X108990289Y-130777714D02*
X108942670Y-130968190D01*
X108942670Y-130968190D02*
X108942670Y-131111047D01*
X108942670Y-131111047D02*
X108990289Y-131301523D01*
X108990289Y-131301523D02*
X109037908Y-131396761D01*
X109037908Y-131396761D02*
X109133146Y-131492000D01*
X109133146Y-131492000D02*
X109276003Y-131539619D01*
X109276003Y-131539619D02*
X109514098Y-131539619D01*
X108514098Y-131015809D02*
X108180765Y-131015809D01*
X108037908Y-131539619D02*
X108514098Y-131539619D01*
X108514098Y-131539619D02*
X108514098Y-130539619D01*
X108514098Y-130539619D02*
X108037908Y-130539619D01*
X107037908Y-131539619D02*
X107371241Y-131063428D01*
X107609336Y-131539619D02*
X107609336Y-130539619D01*
X107609336Y-130539619D02*
X107228384Y-130539619D01*
X107228384Y-130539619D02*
X107133146Y-130587238D01*
X107133146Y-130587238D02*
X107085527Y-130634857D01*
X107085527Y-130634857D02*
X107037908Y-130730095D01*
X107037908Y-130730095D02*
X107037908Y-130872952D01*
X107037908Y-130872952D02*
X107085527Y-130968190D01*
X107085527Y-130968190D02*
X107133146Y-131015809D01*
X107133146Y-131015809D02*
X107228384Y-131063428D01*
X107228384Y-131063428D02*
X107609336Y-131063428D01*
X106609336Y-131015809D02*
X106276003Y-131015809D01*
X106133146Y-131539619D02*
X106609336Y-131539619D01*
X106609336Y-131539619D02*
X106609336Y-130539619D01*
X106609336Y-130539619D02*
X106133146Y-130539619D01*
X105704574Y-131539619D02*
X105704574Y-130539619D01*
X105133146Y-131539619D02*
X105561717Y-130968190D01*
X105133146Y-130539619D02*
X105704574Y-131111047D01*
X103990288Y-130634857D02*
X103942669Y-130587238D01*
X103942669Y-130587238D02*
X103847431Y-130539619D01*
X103847431Y-130539619D02*
X103609336Y-130539619D01*
X103609336Y-130539619D02*
X103514098Y-130587238D01*
X103514098Y-130587238D02*
X103466479Y-130634857D01*
X103466479Y-130634857D02*
X103418860Y-130730095D01*
X103418860Y-130730095D02*
X103418860Y-130825333D01*
X103418860Y-130825333D02*
X103466479Y-130968190D01*
X103466479Y-130968190D02*
X104037907Y-131539619D01*
X104037907Y-131539619D02*
X103418860Y-131539619D01*
X102799812Y-130539619D02*
X102704574Y-130539619D01*
X102704574Y-130539619D02*
X102609336Y-130587238D01*
X102609336Y-130587238D02*
X102561717Y-130634857D01*
X102561717Y-130634857D02*
X102514098Y-130730095D01*
X102514098Y-130730095D02*
X102466479Y-130920571D01*
X102466479Y-130920571D02*
X102466479Y-131158666D01*
X102466479Y-131158666D02*
X102514098Y-131349142D01*
X102514098Y-131349142D02*
X102561717Y-131444380D01*
X102561717Y-131444380D02*
X102609336Y-131492000D01*
X102609336Y-131492000D02*
X102704574Y-131539619D01*
X102704574Y-131539619D02*
X102799812Y-131539619D01*
X102799812Y-131539619D02*
X102895050Y-131492000D01*
X102895050Y-131492000D02*
X102942669Y-131444380D01*
X102942669Y-131444380D02*
X102990288Y-131349142D01*
X102990288Y-131349142D02*
X103037907Y-131158666D01*
X103037907Y-131158666D02*
X103037907Y-130920571D01*
X103037907Y-130920571D02*
X102990288Y-130730095D01*
X102990288Y-130730095D02*
X102942669Y-130634857D01*
X102942669Y-130634857D02*
X102895050Y-130587238D01*
X102895050Y-130587238D02*
X102799812Y-130539619D01*
X102085526Y-130634857D02*
X102037907Y-130587238D01*
X102037907Y-130587238D02*
X101942669Y-130539619D01*
X101942669Y-130539619D02*
X101704574Y-130539619D01*
X101704574Y-130539619D02*
X101609336Y-130587238D01*
X101609336Y-130587238D02*
X101561717Y-130634857D01*
X101561717Y-130634857D02*
X101514098Y-130730095D01*
X101514098Y-130730095D02*
X101514098Y-130825333D01*
X101514098Y-130825333D02*
X101561717Y-130968190D01*
X101561717Y-130968190D02*
X102133145Y-131539619D01*
X102133145Y-131539619D02*
X101514098Y-131539619D01*
X100656955Y-130872952D02*
X100656955Y-131539619D01*
X100895050Y-130492000D02*
X101133145Y-131206285D01*
X101133145Y-131206285D02*
X100514098Y-131206285D01*
X100133145Y-131539619D02*
X100133145Y-130872952D01*
X100133145Y-131063428D02*
X100085526Y-130968190D01*
X100085526Y-130968190D02*
X100037907Y-130920571D01*
X100037907Y-130920571D02*
X99942669Y-130872952D01*
X99942669Y-130872952D02*
X99847431Y-130872952D01*
D11*
X112393779Y-102437142D02*
X111917588Y-102103809D01*
X112393779Y-101865714D02*
X111393779Y-101865714D01*
X111393779Y-101865714D02*
X111393779Y-102246666D01*
X111393779Y-102246666D02*
X111441398Y-102341904D01*
X111441398Y-102341904D02*
X111489017Y-102389523D01*
X111489017Y-102389523D02*
X111584255Y-102437142D01*
X111584255Y-102437142D02*
X111727112Y-102437142D01*
X111727112Y-102437142D02*
X111822350Y-102389523D01*
X111822350Y-102389523D02*
X111869969Y-102341904D01*
X111869969Y-102341904D02*
X111917588Y-102246666D01*
X111917588Y-102246666D02*
X111917588Y-101865714D01*
X112393779Y-103389523D02*
X112393779Y-102818095D01*
X112393779Y-103103809D02*
X111393779Y-103103809D01*
X111393779Y-103103809D02*
X111536636Y-103008571D01*
X111536636Y-103008571D02*
X111631874Y-102913333D01*
X111631874Y-102913333D02*
X111679493Y-102818095D01*
X111727112Y-104246666D02*
X112393779Y-104246666D01*
X111346160Y-104008571D02*
X112060445Y-103770476D01*
X112060445Y-103770476D02*
X112060445Y-104389523D01*
X136003779Y-102058333D02*
X135527588Y-101725000D01*
X136003779Y-101486905D02*
X135003779Y-101486905D01*
X135003779Y-101486905D02*
X135003779Y-101867857D01*
X135003779Y-101867857D02*
X135051398Y-101963095D01*
X135051398Y-101963095D02*
X135099017Y-102010714D01*
X135099017Y-102010714D02*
X135194255Y-102058333D01*
X135194255Y-102058333D02*
X135337112Y-102058333D01*
X135337112Y-102058333D02*
X135432350Y-102010714D01*
X135432350Y-102010714D02*
X135479969Y-101963095D01*
X135479969Y-101963095D02*
X135527588Y-101867857D01*
X135527588Y-101867857D02*
X135527588Y-101486905D01*
X135099017Y-102439286D02*
X135051398Y-102486905D01*
X135051398Y-102486905D02*
X135003779Y-102582143D01*
X135003779Y-102582143D02*
X135003779Y-102820238D01*
X135003779Y-102820238D02*
X135051398Y-102915476D01*
X135051398Y-102915476D02*
X135099017Y-102963095D01*
X135099017Y-102963095D02*
X135194255Y-103010714D01*
X135194255Y-103010714D02*
X135289493Y-103010714D01*
X135289493Y-103010714D02*
X135432350Y-102963095D01*
X135432350Y-102963095D02*
X136003779Y-102391667D01*
X136003779Y-102391667D02*
X136003779Y-103010714D01*
X116108540Y-104857142D02*
X116156160Y-104809523D01*
X116156160Y-104809523D02*
X116203779Y-104666666D01*
X116203779Y-104666666D02*
X116203779Y-104571428D01*
X116203779Y-104571428D02*
X116156160Y-104428571D01*
X116156160Y-104428571D02*
X116060921Y-104333333D01*
X116060921Y-104333333D02*
X115965683Y-104285714D01*
X115965683Y-104285714D02*
X115775207Y-104238095D01*
X115775207Y-104238095D02*
X115632350Y-104238095D01*
X115632350Y-104238095D02*
X115441874Y-104285714D01*
X115441874Y-104285714D02*
X115346636Y-104333333D01*
X115346636Y-104333333D02*
X115251398Y-104428571D01*
X115251398Y-104428571D02*
X115203779Y-104571428D01*
X115203779Y-104571428D02*
X115203779Y-104666666D01*
X115203779Y-104666666D02*
X115251398Y-104809523D01*
X115251398Y-104809523D02*
X115299017Y-104857142D01*
X115299017Y-105238095D02*
X115251398Y-105285714D01*
X115251398Y-105285714D02*
X115203779Y-105380952D01*
X115203779Y-105380952D02*
X115203779Y-105619047D01*
X115203779Y-105619047D02*
X115251398Y-105714285D01*
X115251398Y-105714285D02*
X115299017Y-105761904D01*
X115299017Y-105761904D02*
X115394255Y-105809523D01*
X115394255Y-105809523D02*
X115489493Y-105809523D01*
X115489493Y-105809523D02*
X115632350Y-105761904D01*
X115632350Y-105761904D02*
X116203779Y-105190476D01*
X116203779Y-105190476D02*
X116203779Y-105809523D01*
X115537112Y-106666666D02*
X116203779Y-106666666D01*
X115156160Y-106428571D02*
X115870445Y-106190476D01*
X115870445Y-106190476D02*
X115870445Y-106809523D01*
X118658540Y-92007142D02*
X118706160Y-91959523D01*
X118706160Y-91959523D02*
X118753779Y-91816666D01*
X118753779Y-91816666D02*
X118753779Y-91721428D01*
X118753779Y-91721428D02*
X118706160Y-91578571D01*
X118706160Y-91578571D02*
X118610921Y-91483333D01*
X118610921Y-91483333D02*
X118515683Y-91435714D01*
X118515683Y-91435714D02*
X118325207Y-91388095D01*
X118325207Y-91388095D02*
X118182350Y-91388095D01*
X118182350Y-91388095D02*
X117991874Y-91435714D01*
X117991874Y-91435714D02*
X117896636Y-91483333D01*
X117896636Y-91483333D02*
X117801398Y-91578571D01*
X117801398Y-91578571D02*
X117753779Y-91721428D01*
X117753779Y-91721428D02*
X117753779Y-91816666D01*
X117753779Y-91816666D02*
X117801398Y-91959523D01*
X117801398Y-91959523D02*
X117849017Y-92007142D01*
X118753779Y-92959523D02*
X118753779Y-92388095D01*
X118753779Y-92673809D02*
X117753779Y-92673809D01*
X117753779Y-92673809D02*
X117896636Y-92578571D01*
X117896636Y-92578571D02*
X117991874Y-92483333D01*
X117991874Y-92483333D02*
X118039493Y-92388095D01*
X117753779Y-93292857D02*
X117753779Y-93911904D01*
X117753779Y-93911904D02*
X118134731Y-93578571D01*
X118134731Y-93578571D02*
X118134731Y-93721428D01*
X118134731Y-93721428D02*
X118182350Y-93816666D01*
X118182350Y-93816666D02*
X118229969Y-93864285D01*
X118229969Y-93864285D02*
X118325207Y-93911904D01*
X118325207Y-93911904D02*
X118563302Y-93911904D01*
X118563302Y-93911904D02*
X118658540Y-93864285D01*
X118658540Y-93864285D02*
X118706160Y-93816666D01*
X118706160Y-93816666D02*
X118753779Y-93721428D01*
X118753779Y-93721428D02*
X118753779Y-93435714D01*
X118753779Y-93435714D02*
X118706160Y-93340476D01*
X118706160Y-93340476D02*
X118658540Y-93292857D01*
X129628779Y-90938095D02*
X130438302Y-90938095D01*
X130438302Y-90938095D02*
X130533540Y-90985714D01*
X130533540Y-90985714D02*
X130581160Y-91033333D01*
X130581160Y-91033333D02*
X130628779Y-91128571D01*
X130628779Y-91128571D02*
X130628779Y-91319047D01*
X130628779Y-91319047D02*
X130581160Y-91414285D01*
X130581160Y-91414285D02*
X130533540Y-91461904D01*
X130533540Y-91461904D02*
X130438302Y-91509523D01*
X130438302Y-91509523D02*
X129628779Y-91509523D01*
X129724017Y-91938095D02*
X129676398Y-91985714D01*
X129676398Y-91985714D02*
X129628779Y-92080952D01*
X129628779Y-92080952D02*
X129628779Y-92319047D01*
X129628779Y-92319047D02*
X129676398Y-92414285D01*
X129676398Y-92414285D02*
X129724017Y-92461904D01*
X129724017Y-92461904D02*
X129819255Y-92509523D01*
X129819255Y-92509523D02*
X129914493Y-92509523D01*
X129914493Y-92509523D02*
X130057350Y-92461904D01*
X130057350Y-92461904D02*
X130628779Y-91890476D01*
X130628779Y-91890476D02*
X130628779Y-92509523D01*
X119353779Y-101338095D02*
X120163302Y-101338095D01*
X120163302Y-101338095D02*
X120258540Y-101385714D01*
X120258540Y-101385714D02*
X120306160Y-101433333D01*
X120306160Y-101433333D02*
X120353779Y-101528571D01*
X120353779Y-101528571D02*
X120353779Y-101719047D01*
X120353779Y-101719047D02*
X120306160Y-101814285D01*
X120306160Y-101814285D02*
X120258540Y-101861904D01*
X120258540Y-101861904D02*
X120163302Y-101909523D01*
X120163302Y-101909523D02*
X119353779Y-101909523D01*
X119353779Y-102290476D02*
X119353779Y-102909523D01*
X119353779Y-102909523D02*
X119734731Y-102576190D01*
X119734731Y-102576190D02*
X119734731Y-102719047D01*
X119734731Y-102719047D02*
X119782350Y-102814285D01*
X119782350Y-102814285D02*
X119829969Y-102861904D01*
X119829969Y-102861904D02*
X119925207Y-102909523D01*
X119925207Y-102909523D02*
X120163302Y-102909523D01*
X120163302Y-102909523D02*
X120258540Y-102861904D01*
X120258540Y-102861904D02*
X120306160Y-102814285D01*
X120306160Y-102814285D02*
X120353779Y-102719047D01*
X120353779Y-102719047D02*
X120353779Y-102433333D01*
X120353779Y-102433333D02*
X120306160Y-102338095D01*
X120306160Y-102338095D02*
X120258540Y-102290476D01*
X116742857Y-100458540D02*
X116790476Y-100506160D01*
X116790476Y-100506160D02*
X116933333Y-100553779D01*
X116933333Y-100553779D02*
X117028571Y-100553779D01*
X117028571Y-100553779D02*
X117171428Y-100506160D01*
X117171428Y-100506160D02*
X117266666Y-100410921D01*
X117266666Y-100410921D02*
X117314285Y-100315683D01*
X117314285Y-100315683D02*
X117361904Y-100125207D01*
X117361904Y-100125207D02*
X117361904Y-99982350D01*
X117361904Y-99982350D02*
X117314285Y-99791874D01*
X117314285Y-99791874D02*
X117266666Y-99696636D01*
X117266666Y-99696636D02*
X117171428Y-99601398D01*
X117171428Y-99601398D02*
X117028571Y-99553779D01*
X117028571Y-99553779D02*
X116933333Y-99553779D01*
X116933333Y-99553779D02*
X116790476Y-99601398D01*
X116790476Y-99601398D02*
X116742857Y-99649017D01*
X115790476Y-100553779D02*
X116361904Y-100553779D01*
X116076190Y-100553779D02*
X116076190Y-99553779D01*
X116076190Y-99553779D02*
X116171428Y-99696636D01*
X116171428Y-99696636D02*
X116266666Y-99791874D01*
X116266666Y-99791874D02*
X116361904Y-99839493D01*
X114933333Y-99553779D02*
X115123809Y-99553779D01*
X115123809Y-99553779D02*
X115219047Y-99601398D01*
X115219047Y-99601398D02*
X115266666Y-99649017D01*
X115266666Y-99649017D02*
X115361904Y-99791874D01*
X115361904Y-99791874D02*
X115409523Y-99982350D01*
X115409523Y-99982350D02*
X115409523Y-100363302D01*
X115409523Y-100363302D02*
X115361904Y-100458540D01*
X115361904Y-100458540D02*
X115314285Y-100506160D01*
X115314285Y-100506160D02*
X115219047Y-100553779D01*
X115219047Y-100553779D02*
X115028571Y-100553779D01*
X115028571Y-100553779D02*
X114933333Y-100506160D01*
X114933333Y-100506160D02*
X114885714Y-100458540D01*
X114885714Y-100458540D02*
X114838095Y-100363302D01*
X114838095Y-100363302D02*
X114838095Y-100125207D01*
X114838095Y-100125207D02*
X114885714Y-100029969D01*
X114885714Y-100029969D02*
X114933333Y-99982350D01*
X114933333Y-99982350D02*
X115028571Y-99934731D01*
X115028571Y-99934731D02*
X115219047Y-99934731D01*
X115219047Y-99934731D02*
X115314285Y-99982350D01*
X115314285Y-99982350D02*
X115361904Y-100029969D01*
X115361904Y-100029969D02*
X115409523Y-100125207D01*
X118608540Y-96257142D02*
X118656160Y-96209523D01*
X118656160Y-96209523D02*
X118703779Y-96066666D01*
X118703779Y-96066666D02*
X118703779Y-95971428D01*
X118703779Y-95971428D02*
X118656160Y-95828571D01*
X118656160Y-95828571D02*
X118560921Y-95733333D01*
X118560921Y-95733333D02*
X118465683Y-95685714D01*
X118465683Y-95685714D02*
X118275207Y-95638095D01*
X118275207Y-95638095D02*
X118132350Y-95638095D01*
X118132350Y-95638095D02*
X117941874Y-95685714D01*
X117941874Y-95685714D02*
X117846636Y-95733333D01*
X117846636Y-95733333D02*
X117751398Y-95828571D01*
X117751398Y-95828571D02*
X117703779Y-95971428D01*
X117703779Y-95971428D02*
X117703779Y-96066666D01*
X117703779Y-96066666D02*
X117751398Y-96209523D01*
X117751398Y-96209523D02*
X117799017Y-96257142D01*
X118703779Y-97209523D02*
X118703779Y-96638095D01*
X118703779Y-96923809D02*
X117703779Y-96923809D01*
X117703779Y-96923809D02*
X117846636Y-96828571D01*
X117846636Y-96828571D02*
X117941874Y-96733333D01*
X117941874Y-96733333D02*
X117989493Y-96638095D01*
X117703779Y-98114285D02*
X117703779Y-97638095D01*
X117703779Y-97638095D02*
X118179969Y-97590476D01*
X118179969Y-97590476D02*
X118132350Y-97638095D01*
X118132350Y-97638095D02*
X118084731Y-97733333D01*
X118084731Y-97733333D02*
X118084731Y-97971428D01*
X118084731Y-97971428D02*
X118132350Y-98066666D01*
X118132350Y-98066666D02*
X118179969Y-98114285D01*
X118179969Y-98114285D02*
X118275207Y-98161904D01*
X118275207Y-98161904D02*
X118513302Y-98161904D01*
X118513302Y-98161904D02*
X118608540Y-98114285D01*
X118608540Y-98114285D02*
X118656160Y-98066666D01*
X118656160Y-98066666D02*
X118703779Y-97971428D01*
X118703779Y-97971428D02*
X118703779Y-97733333D01*
X118703779Y-97733333D02*
X118656160Y-97638095D01*
X118656160Y-97638095D02*
X118608540Y-97590476D01*
D12*
X100309457Y-120625261D02*
X100261838Y-120530023D01*
X100261838Y-120530023D02*
X100166600Y-120434785D01*
X100166600Y-120434785D02*
X100023742Y-120291928D01*
X100023742Y-120291928D02*
X99976123Y-120196690D01*
X99976123Y-120196690D02*
X99976123Y-120101452D01*
X100214219Y-120149071D02*
X100166600Y-120053833D01*
X100166600Y-120053833D02*
X100071361Y-119958595D01*
X100071361Y-119958595D02*
X99880885Y-119910976D01*
X99880885Y-119910976D02*
X99547552Y-119910976D01*
X99547552Y-119910976D02*
X99357076Y-119958595D01*
X99357076Y-119958595D02*
X99261838Y-120053833D01*
X99261838Y-120053833D02*
X99214219Y-120149071D01*
X99214219Y-120149071D02*
X99214219Y-120339547D01*
X99214219Y-120339547D02*
X99261838Y-120434785D01*
X99261838Y-120434785D02*
X99357076Y-120530023D01*
X99357076Y-120530023D02*
X99547552Y-120577642D01*
X99547552Y-120577642D02*
X99880885Y-120577642D01*
X99880885Y-120577642D02*
X100071361Y-120530023D01*
X100071361Y-120530023D02*
X100166600Y-120434785D01*
X100166600Y-120434785D02*
X100214219Y-120339547D01*
X100214219Y-120339547D02*
X100214219Y-120149071D01*
X100214219Y-121530023D02*
X100214219Y-120958595D01*
X100214219Y-121244309D02*
X99214219Y-121244309D01*
X99214219Y-121244309D02*
X99357076Y-121149071D01*
X99357076Y-121149071D02*
X99452314Y-121053833D01*
X99452314Y-121053833D02*
X99499933Y-120958595D01*
D11*
X117858540Y-104857142D02*
X117906160Y-104809523D01*
X117906160Y-104809523D02*
X117953779Y-104666666D01*
X117953779Y-104666666D02*
X117953779Y-104571428D01*
X117953779Y-104571428D02*
X117906160Y-104428571D01*
X117906160Y-104428571D02*
X117810921Y-104333333D01*
X117810921Y-104333333D02*
X117715683Y-104285714D01*
X117715683Y-104285714D02*
X117525207Y-104238095D01*
X117525207Y-104238095D02*
X117382350Y-104238095D01*
X117382350Y-104238095D02*
X117191874Y-104285714D01*
X117191874Y-104285714D02*
X117096636Y-104333333D01*
X117096636Y-104333333D02*
X117001398Y-104428571D01*
X117001398Y-104428571D02*
X116953779Y-104571428D01*
X116953779Y-104571428D02*
X116953779Y-104666666D01*
X116953779Y-104666666D02*
X117001398Y-104809523D01*
X117001398Y-104809523D02*
X117049017Y-104857142D01*
X117049017Y-105238095D02*
X117001398Y-105285714D01*
X117001398Y-105285714D02*
X116953779Y-105380952D01*
X116953779Y-105380952D02*
X116953779Y-105619047D01*
X116953779Y-105619047D02*
X117001398Y-105714285D01*
X117001398Y-105714285D02*
X117049017Y-105761904D01*
X117049017Y-105761904D02*
X117144255Y-105809523D01*
X117144255Y-105809523D02*
X117239493Y-105809523D01*
X117239493Y-105809523D02*
X117382350Y-105761904D01*
X117382350Y-105761904D02*
X117953779Y-105190476D01*
X117953779Y-105190476D02*
X117953779Y-105809523D01*
X116953779Y-106142857D02*
X116953779Y-106761904D01*
X116953779Y-106761904D02*
X117334731Y-106428571D01*
X117334731Y-106428571D02*
X117334731Y-106571428D01*
X117334731Y-106571428D02*
X117382350Y-106666666D01*
X117382350Y-106666666D02*
X117429969Y-106714285D01*
X117429969Y-106714285D02*
X117525207Y-106761904D01*
X117525207Y-106761904D02*
X117763302Y-106761904D01*
X117763302Y-106761904D02*
X117858540Y-106714285D01*
X117858540Y-106714285D02*
X117906160Y-106666666D01*
X117906160Y-106666666D02*
X117953779Y-106571428D01*
X117953779Y-106571428D02*
X117953779Y-106285714D01*
X117953779Y-106285714D02*
X117906160Y-106190476D01*
X117906160Y-106190476D02*
X117858540Y-106142857D01*
X114143779Y-99357142D02*
X113667588Y-99023809D01*
X114143779Y-98785714D02*
X113143779Y-98785714D01*
X113143779Y-98785714D02*
X113143779Y-99166666D01*
X113143779Y-99166666D02*
X113191398Y-99261904D01*
X113191398Y-99261904D02*
X113239017Y-99309523D01*
X113239017Y-99309523D02*
X113334255Y-99357142D01*
X113334255Y-99357142D02*
X113477112Y-99357142D01*
X113477112Y-99357142D02*
X113572350Y-99309523D01*
X113572350Y-99309523D02*
X113619969Y-99261904D01*
X113619969Y-99261904D02*
X113667588Y-99166666D01*
X113667588Y-99166666D02*
X113667588Y-98785714D01*
X114143779Y-100309523D02*
X114143779Y-99738095D01*
X114143779Y-100023809D02*
X113143779Y-100023809D01*
X113143779Y-100023809D02*
X113286636Y-99928571D01*
X113286636Y-99928571D02*
X113381874Y-99833333D01*
X113381874Y-99833333D02*
X113429493Y-99738095D01*
X113143779Y-100642857D02*
X113143779Y-101261904D01*
X113143779Y-101261904D02*
X113524731Y-100928571D01*
X113524731Y-100928571D02*
X113524731Y-101071428D01*
X113524731Y-101071428D02*
X113572350Y-101166666D01*
X113572350Y-101166666D02*
X113619969Y-101214285D01*
X113619969Y-101214285D02*
X113715207Y-101261904D01*
X113715207Y-101261904D02*
X113953302Y-101261904D01*
X113953302Y-101261904D02*
X114048540Y-101214285D01*
X114048540Y-101214285D02*
X114096160Y-101166666D01*
X114096160Y-101166666D02*
X114143779Y-101071428D01*
X114143779Y-101071428D02*
X114143779Y-100785714D01*
X114143779Y-100785714D02*
X114096160Y-100690476D01*
X114096160Y-100690476D02*
X114048540Y-100642857D01*
X118658540Y-88057142D02*
X118706160Y-88009523D01*
X118706160Y-88009523D02*
X118753779Y-87866666D01*
X118753779Y-87866666D02*
X118753779Y-87771428D01*
X118753779Y-87771428D02*
X118706160Y-87628571D01*
X118706160Y-87628571D02*
X118610921Y-87533333D01*
X118610921Y-87533333D02*
X118515683Y-87485714D01*
X118515683Y-87485714D02*
X118325207Y-87438095D01*
X118325207Y-87438095D02*
X118182350Y-87438095D01*
X118182350Y-87438095D02*
X117991874Y-87485714D01*
X117991874Y-87485714D02*
X117896636Y-87533333D01*
X117896636Y-87533333D02*
X117801398Y-87628571D01*
X117801398Y-87628571D02*
X117753779Y-87771428D01*
X117753779Y-87771428D02*
X117753779Y-87866666D01*
X117753779Y-87866666D02*
X117801398Y-88009523D01*
X117801398Y-88009523D02*
X117849017Y-88057142D01*
X118753779Y-89009523D02*
X118753779Y-88438095D01*
X118753779Y-88723809D02*
X117753779Y-88723809D01*
X117753779Y-88723809D02*
X117896636Y-88628571D01*
X117896636Y-88628571D02*
X117991874Y-88533333D01*
X117991874Y-88533333D02*
X118039493Y-88438095D01*
X118087112Y-89866666D02*
X118753779Y-89866666D01*
X117706160Y-89628571D02*
X118420445Y-89390476D01*
X118420445Y-89390476D02*
X118420445Y-90009523D01*
X125100857Y-82789779D02*
X125434190Y-82313588D01*
X125672285Y-82789779D02*
X125672285Y-81789779D01*
X125672285Y-81789779D02*
X125291333Y-81789779D01*
X125291333Y-81789779D02*
X125196095Y-81837398D01*
X125196095Y-81837398D02*
X125148476Y-81885017D01*
X125148476Y-81885017D02*
X125100857Y-81980255D01*
X125100857Y-81980255D02*
X125100857Y-82123112D01*
X125100857Y-82123112D02*
X125148476Y-82218350D01*
X125148476Y-82218350D02*
X125196095Y-82265969D01*
X125196095Y-82265969D02*
X125291333Y-82313588D01*
X125291333Y-82313588D02*
X125672285Y-82313588D01*
X124148476Y-82789779D02*
X124719904Y-82789779D01*
X124434190Y-82789779D02*
X124434190Y-81789779D01*
X124434190Y-81789779D02*
X124529428Y-81932636D01*
X124529428Y-81932636D02*
X124624666Y-82027874D01*
X124624666Y-82027874D02*
X124719904Y-82075493D01*
X123529428Y-81789779D02*
X123434190Y-81789779D01*
X123434190Y-81789779D02*
X123338952Y-81837398D01*
X123338952Y-81837398D02*
X123291333Y-81885017D01*
X123291333Y-81885017D02*
X123243714Y-81980255D01*
X123243714Y-81980255D02*
X123196095Y-82170731D01*
X123196095Y-82170731D02*
X123196095Y-82408826D01*
X123196095Y-82408826D02*
X123243714Y-82599302D01*
X123243714Y-82599302D02*
X123291333Y-82694540D01*
X123291333Y-82694540D02*
X123338952Y-82742160D01*
X123338952Y-82742160D02*
X123434190Y-82789779D01*
X123434190Y-82789779D02*
X123529428Y-82789779D01*
X123529428Y-82789779D02*
X123624666Y-82742160D01*
X123624666Y-82742160D02*
X123672285Y-82694540D01*
X123672285Y-82694540D02*
X123719904Y-82599302D01*
X123719904Y-82599302D02*
X123767523Y-82408826D01*
X123767523Y-82408826D02*
X123767523Y-82170731D01*
X123767523Y-82170731D02*
X123719904Y-81980255D01*
X123719904Y-81980255D02*
X123672285Y-81885017D01*
X123672285Y-81885017D02*
X123624666Y-81837398D01*
X123624666Y-81837398D02*
X123529428Y-81789779D01*
X93753779Y-120257142D02*
X93277588Y-119923809D01*
X93753779Y-119685714D02*
X92753779Y-119685714D01*
X92753779Y-119685714D02*
X92753779Y-120066666D01*
X92753779Y-120066666D02*
X92801398Y-120161904D01*
X92801398Y-120161904D02*
X92849017Y-120209523D01*
X92849017Y-120209523D02*
X92944255Y-120257142D01*
X92944255Y-120257142D02*
X93087112Y-120257142D01*
X93087112Y-120257142D02*
X93182350Y-120209523D01*
X93182350Y-120209523D02*
X93229969Y-120161904D01*
X93229969Y-120161904D02*
X93277588Y-120066666D01*
X93277588Y-120066666D02*
X93277588Y-119685714D01*
X93753779Y-121209523D02*
X93753779Y-120638095D01*
X93753779Y-120923809D02*
X92753779Y-120923809D01*
X92753779Y-120923809D02*
X92896636Y-120828571D01*
X92896636Y-120828571D02*
X92991874Y-120733333D01*
X92991874Y-120733333D02*
X93039493Y-120638095D01*
X93753779Y-122161904D02*
X93753779Y-121590476D01*
X93753779Y-121876190D02*
X92753779Y-121876190D01*
X92753779Y-121876190D02*
X92896636Y-121780952D01*
X92896636Y-121780952D02*
X92991874Y-121685714D01*
X92991874Y-121685714D02*
X93039493Y-121590476D01*
X114084857Y-84353779D02*
X114418190Y-83877588D01*
X114656285Y-84353779D02*
X114656285Y-83353779D01*
X114656285Y-83353779D02*
X114275333Y-83353779D01*
X114275333Y-83353779D02*
X114180095Y-83401398D01*
X114180095Y-83401398D02*
X114132476Y-83449017D01*
X114132476Y-83449017D02*
X114084857Y-83544255D01*
X114084857Y-83544255D02*
X114084857Y-83687112D01*
X114084857Y-83687112D02*
X114132476Y-83782350D01*
X114132476Y-83782350D02*
X114180095Y-83829969D01*
X114180095Y-83829969D02*
X114275333Y-83877588D01*
X114275333Y-83877588D02*
X114656285Y-83877588D01*
X113132476Y-84353779D02*
X113703904Y-84353779D01*
X113418190Y-84353779D02*
X113418190Y-83353779D01*
X113418190Y-83353779D02*
X113513428Y-83496636D01*
X113513428Y-83496636D02*
X113608666Y-83591874D01*
X113608666Y-83591874D02*
X113703904Y-83639493D01*
X112751523Y-83449017D02*
X112703904Y-83401398D01*
X112703904Y-83401398D02*
X112608666Y-83353779D01*
X112608666Y-83353779D02*
X112370571Y-83353779D01*
X112370571Y-83353779D02*
X112275333Y-83401398D01*
X112275333Y-83401398D02*
X112227714Y-83449017D01*
X112227714Y-83449017D02*
X112180095Y-83544255D01*
X112180095Y-83544255D02*
X112180095Y-83639493D01*
X112180095Y-83639493D02*
X112227714Y-83782350D01*
X112227714Y-83782350D02*
X112799142Y-84353779D01*
X112799142Y-84353779D02*
X112180095Y-84353779D01*
X135978779Y-105458333D02*
X135502588Y-105125000D01*
X135978779Y-104886905D02*
X134978779Y-104886905D01*
X134978779Y-104886905D02*
X134978779Y-105267857D01*
X134978779Y-105267857D02*
X135026398Y-105363095D01*
X135026398Y-105363095D02*
X135074017Y-105410714D01*
X135074017Y-105410714D02*
X135169255Y-105458333D01*
X135169255Y-105458333D02*
X135312112Y-105458333D01*
X135312112Y-105458333D02*
X135407350Y-105410714D01*
X135407350Y-105410714D02*
X135454969Y-105363095D01*
X135454969Y-105363095D02*
X135502588Y-105267857D01*
X135502588Y-105267857D02*
X135502588Y-104886905D01*
X134978779Y-105791667D02*
X134978779Y-106410714D01*
X134978779Y-106410714D02*
X135359731Y-106077381D01*
X135359731Y-106077381D02*
X135359731Y-106220238D01*
X135359731Y-106220238D02*
X135407350Y-106315476D01*
X135407350Y-106315476D02*
X135454969Y-106363095D01*
X135454969Y-106363095D02*
X135550207Y-106410714D01*
X135550207Y-106410714D02*
X135788302Y-106410714D01*
X135788302Y-106410714D02*
X135883540Y-106363095D01*
X135883540Y-106363095D02*
X135931160Y-106315476D01*
X135931160Y-106315476D02*
X135978779Y-106220238D01*
X135978779Y-106220238D02*
X135978779Y-105934524D01*
X135978779Y-105934524D02*
X135931160Y-105839286D01*
X135931160Y-105839286D02*
X135883540Y-105791667D01*
X120624666Y-82789779D02*
X120957999Y-82313588D01*
X121196094Y-82789779D02*
X121196094Y-81789779D01*
X121196094Y-81789779D02*
X120815142Y-81789779D01*
X120815142Y-81789779D02*
X120719904Y-81837398D01*
X120719904Y-81837398D02*
X120672285Y-81885017D01*
X120672285Y-81885017D02*
X120624666Y-81980255D01*
X120624666Y-81980255D02*
X120624666Y-82123112D01*
X120624666Y-82123112D02*
X120672285Y-82218350D01*
X120672285Y-82218350D02*
X120719904Y-82265969D01*
X120719904Y-82265969D02*
X120815142Y-82313588D01*
X120815142Y-82313588D02*
X121196094Y-82313588D01*
X119672285Y-82789779D02*
X120243713Y-82789779D01*
X119957999Y-82789779D02*
X119957999Y-81789779D01*
X119957999Y-81789779D02*
X120053237Y-81932636D01*
X120053237Y-81932636D02*
X120148475Y-82027874D01*
X120148475Y-82027874D02*
X120243713Y-82075493D01*
D12*
X113027542Y-80670238D02*
X113075161Y-80765476D01*
X113075161Y-80765476D02*
X113170400Y-80860714D01*
X113170400Y-80860714D02*
X113313257Y-81003571D01*
X113313257Y-81003571D02*
X113360876Y-81098809D01*
X113360876Y-81098809D02*
X113360876Y-81194047D01*
X113122780Y-81146428D02*
X113170400Y-81241666D01*
X113170400Y-81241666D02*
X113265638Y-81336904D01*
X113265638Y-81336904D02*
X113456114Y-81384523D01*
X113456114Y-81384523D02*
X113789447Y-81384523D01*
X113789447Y-81384523D02*
X113979923Y-81336904D01*
X113979923Y-81336904D02*
X114075161Y-81241666D01*
X114075161Y-81241666D02*
X114122780Y-81146428D01*
X114122780Y-81146428D02*
X114122780Y-80955952D01*
X114122780Y-80955952D02*
X114075161Y-80860714D01*
X114075161Y-80860714D02*
X113979923Y-80765476D01*
X113979923Y-80765476D02*
X113789447Y-80717857D01*
X113789447Y-80717857D02*
X113456114Y-80717857D01*
X113456114Y-80717857D02*
X113265638Y-80765476D01*
X113265638Y-80765476D02*
X113170400Y-80860714D01*
X113170400Y-80860714D02*
X113122780Y-80955952D01*
X113122780Y-80955952D02*
X113122780Y-81146428D01*
X114027542Y-80336904D02*
X114075161Y-80289285D01*
X114075161Y-80289285D02*
X114122780Y-80194047D01*
X114122780Y-80194047D02*
X114122780Y-79955952D01*
X114122780Y-79955952D02*
X114075161Y-79860714D01*
X114075161Y-79860714D02*
X114027542Y-79813095D01*
X114027542Y-79813095D02*
X113932304Y-79765476D01*
X113932304Y-79765476D02*
X113837066Y-79765476D01*
X113837066Y-79765476D02*
X113694209Y-79813095D01*
X113694209Y-79813095D02*
X113122780Y-80384523D01*
X113122780Y-80384523D02*
X113122780Y-79765476D01*
D13*
X111577500Y-106412258D02*
X111577500Y-105937742D01*
X112622500Y-106412258D02*
X112622500Y-105937742D01*
X133477500Y-101937742D02*
X133477500Y-102412258D01*
X134522500Y-101937742D02*
X134522500Y-102412258D01*
X115240000Y-108359420D02*
X115240000Y-108640580D01*
X116260000Y-108359420D02*
X116260000Y-108640580D01*
X119190000Y-92915580D02*
X119190000Y-92634420D01*
X120210000Y-92915580D02*
X120210000Y-92634420D01*
X126910000Y-88590000D02*
X123150000Y-88590000D01*
X126910000Y-89850000D02*
X126910000Y-88590000D01*
X126910000Y-94150000D02*
X126910000Y-95410000D01*
X126910000Y-95410000D02*
X123150000Y-95410000D01*
X122110000Y-95640000D02*
X121630000Y-95640000D01*
X121870000Y-95310000D01*
X122110000Y-95640000D01*
G36*
X122110000Y-95640000D02*
G01*
X121630000Y-95640000D01*
X121870000Y-95310000D01*
X122110000Y-95640000D01*
G37*
X126910000Y-96590000D02*
X123150000Y-96590000D01*
X126910000Y-97850000D02*
X126910000Y-96590000D01*
X126910000Y-102150000D02*
X126910000Y-103410000D01*
X126910000Y-103410000D02*
X123150000Y-103410000D01*
X122110000Y-103640000D02*
X121630000Y-103640000D01*
X121870000Y-103310000D01*
X122110000Y-103640000D01*
G36*
X122110000Y-103640000D02*
G01*
X121630000Y-103640000D01*
X121870000Y-103310000D01*
X122110000Y-103640000D01*
G37*
X118859420Y-99490000D02*
X119140580Y-99490000D01*
X118859420Y-100510000D02*
X119140580Y-100510000D01*
X119240000Y-96759420D02*
X119240000Y-97040580D01*
X120260000Y-96759420D02*
X120260000Y-97040580D01*
X95740000Y-119187500D02*
X95740000Y-120862500D01*
X95740000Y-121512500D02*
X95740000Y-120862500D01*
X98860000Y-120212500D02*
X98860000Y-120862500D01*
X98860000Y-121512500D02*
X98860000Y-120862500D01*
X116990000Y-108640580D02*
X116990000Y-108359420D01*
X118010000Y-108640580D02*
X118010000Y-108359420D01*
X113187500Y-103282258D02*
X113187500Y-102807742D01*
X114232500Y-103282258D02*
X114232500Y-102807742D01*
X119190000Y-88634420D02*
X119190000Y-88915580D01*
X120210000Y-88634420D02*
X120210000Y-88915580D01*
X124695258Y-80383500D02*
X124220742Y-80383500D01*
X124695258Y-81428500D02*
X124220742Y-81428500D01*
D14*
G36*
X98521986Y-134961178D02*
G01*
X98521986Y-135170168D01*
X98145239Y-135170168D01*
X97768493Y-135170168D01*
X97768493Y-134990762D01*
X97768493Y-134811355D01*
X98005478Y-134795782D01*
X98051283Y-134792690D01*
X98176124Y-134783593D01*
X98293238Y-134774229D01*
X98382225Y-134766199D01*
X98521986Y-134752189D01*
X98521986Y-134961178D01*
G37*
G36*
X104306866Y-134765992D02*
G01*
X104306866Y-135170168D01*
X103930120Y-135170168D01*
X103553373Y-135170168D01*
X103553373Y-134796126D01*
X103553373Y-134422085D01*
X103632368Y-134408513D01*
X103683608Y-134402231D01*
X103772893Y-134394281D01*
X103885683Y-134385987D01*
X104009115Y-134378378D01*
X104306866Y-134361816D01*
X104306866Y-134765992D01*
G37*
G36*
X104598541Y-133175568D02*
G01*
X104598541Y-133976184D01*
X104495239Y-133989993D01*
X104457186Y-133994580D01*
X104357874Y-134004135D01*
X104258254Y-134011292D01*
X104211320Y-134013766D01*
X104094396Y-134019123D01*
X103984809Y-134023279D01*
X103845048Y-134027775D01*
X103845048Y-133201364D01*
X103845048Y-132374953D01*
X104221794Y-132374953D01*
X104598541Y-132374953D01*
X104598541Y-133175568D01*
G37*
G36*
X106251364Y-134693810D02*
G01*
X106251364Y-135170168D01*
X105400646Y-135170168D01*
X104549928Y-135170168D01*
X104549928Y-134879007D01*
X104549928Y-134587846D01*
X105029976Y-134581256D01*
X105510024Y-134574665D01*
X105517196Y-134425245D01*
X105524367Y-134275825D01*
X105748105Y-134260480D01*
X105779848Y-134258263D01*
X105902716Y-134249093D01*
X106020548Y-134239521D01*
X106111603Y-134231293D01*
X106251364Y-134217452D01*
X106251364Y-134693810D01*
G37*
G36*
X114855766Y-134402032D02*
G01*
X114855766Y-135170168D01*
X114503325Y-135170168D01*
X114150885Y-135170168D01*
X114150885Y-134430263D01*
X114150980Y-134354786D01*
X114151996Y-134175845D01*
X114154010Y-134015453D01*
X114156875Y-133879624D01*
X114160444Y-133774369D01*
X114164573Y-133705702D01*
X114169115Y-133679633D01*
X114173041Y-133678371D01*
X114214869Y-133672760D01*
X114293171Y-133665892D01*
X114398536Y-133658521D01*
X114521555Y-133651402D01*
X114855766Y-133633896D01*
X114855766Y-134402032D01*
G37*
G36*
X108050024Y-133590264D02*
G01*
X108049362Y-133656595D01*
X108047160Y-133715378D01*
X108043947Y-133739217D01*
X108034997Y-133740456D01*
X107985987Y-133745173D01*
X107901734Y-133752515D01*
X107790645Y-133761759D01*
X107661124Y-133772181D01*
X107609790Y-133776165D01*
X107462881Y-133786746D01*
X107323166Y-133795731D01*
X107204394Y-133802273D01*
X107120311Y-133805525D01*
X106956244Y-133809019D01*
X106956244Y-133626723D01*
X106956244Y-133444426D01*
X107503134Y-133444426D01*
X108050024Y-133444426D01*
X108050024Y-133590264D01*
G37*
G36*
X106543038Y-133113551D02*
G01*
X106543038Y-133852150D01*
X106220981Y-133875425D01*
X106199126Y-133877006D01*
X106077608Y-133885856D01*
X105972950Y-133893571D01*
X105895696Y-133899371D01*
X105856388Y-133902472D01*
X105855744Y-133902525D01*
X105844016Y-133900550D01*
X105834698Y-133889410D01*
X105827516Y-133864173D01*
X105822193Y-133819908D01*
X105818456Y-133751686D01*
X105816029Y-133654574D01*
X105814636Y-133523643D01*
X105814002Y-133353961D01*
X105813852Y-133140598D01*
X105813852Y-132374953D01*
X106178445Y-132374953D01*
X106543038Y-132374953D01*
X106543038Y-133113551D01*
G37*
G36*
X115657871Y-132666627D02*
G01*
X115657871Y-132958302D01*
X115402656Y-132958302D01*
X115147440Y-132958302D01*
X115147440Y-133102390D01*
X115147440Y-133246478D01*
X115019833Y-133260542D01*
X114981769Y-133264580D01*
X114876088Y-133274700D01*
X114782847Y-133282351D01*
X114761348Y-133283809D01*
X114658078Y-133289784D01*
X114558014Y-133294342D01*
X114442560Y-133298589D01*
X114442560Y-133128445D01*
X114442560Y-132958302D01*
X114187345Y-132958302D01*
X113932129Y-132958302D01*
X113932129Y-132666627D01*
X113932129Y-132374953D01*
X114795000Y-132374953D01*
X115657871Y-132374953D01*
X115657871Y-132666627D01*
G37*
G36*
X97278832Y-134858531D02*
G01*
X97300726Y-134866897D01*
X97302400Y-134880892D01*
X97294160Y-134903915D01*
X97272341Y-134965298D01*
X97244974Y-135042560D01*
X97199847Y-135170168D01*
X96789805Y-135170168D01*
X96661505Y-135170474D01*
X96543170Y-135170066D01*
X96463302Y-135166012D01*
X96416321Y-135155343D01*
X96396647Y-135135093D01*
X96398699Y-135102294D01*
X96416896Y-135053979D01*
X96445659Y-134987181D01*
X96455807Y-134964991D01*
X96473889Y-134938963D01*
X96501683Y-134919133D01*
X96545662Y-134904089D01*
X96612303Y-134892421D01*
X96708078Y-134882718D01*
X96839464Y-134873569D01*
X97012935Y-134863563D01*
X97022353Y-134863043D01*
X97146594Y-134857020D01*
X97229771Y-134855377D01*
X97278832Y-134858531D01*
G37*
G36*
X100656079Y-134631282D02*
G01*
X100658599Y-134690941D01*
X100660305Y-134780595D01*
X100660933Y-134890646D01*
X100660933Y-135170168D01*
X99737297Y-135170168D01*
X98813660Y-135170168D01*
X98813660Y-134951412D01*
X98814292Y-134847831D01*
X98817744Y-134783435D01*
X98826348Y-134748980D01*
X98842439Y-134735129D01*
X98868349Y-134732543D01*
X98897783Y-134731235D01*
X98971777Y-134726832D01*
X99083160Y-134719703D01*
X99226017Y-134710240D01*
X99394429Y-134698837D01*
X99582482Y-134685885D01*
X99784257Y-134671777D01*
X99967720Y-134658869D01*
X100152671Y-134645884D01*
X100316690Y-134634396D01*
X100454265Y-134624792D01*
X100559884Y-134617456D01*
X100628034Y-134612772D01*
X100653205Y-134611125D01*
X100656079Y-134631282D01*
G37*
G36*
X113405971Y-132720721D02*
G01*
X113424723Y-132780568D01*
X113479211Y-132954803D01*
X113521024Y-133089410D01*
X113551669Y-133189588D01*
X113572653Y-133260531D01*
X113585483Y-133307437D01*
X113591665Y-133335504D01*
X113592706Y-133349927D01*
X113590111Y-133355903D01*
X113573026Y-133359779D01*
X113515756Y-133366513D01*
X113428558Y-133374223D01*
X113321945Y-133381892D01*
X113064200Y-133398590D01*
X113032763Y-133281747D01*
X113021341Y-133241739D01*
X113000324Y-133178980D01*
X112984779Y-133145989D01*
X112972116Y-133154311D01*
X112951418Y-133198970D01*
X112928348Y-133270529D01*
X112888464Y-133413984D01*
X112553502Y-133437480D01*
X112516279Y-133440107D01*
X112397369Y-133448725D01*
X112298818Y-133456207D01*
X112230005Y-133461826D01*
X112200311Y-133464854D01*
X112196943Y-133465482D01*
X112189391Y-133464271D01*
X112186523Y-133454298D01*
X112189759Y-133430192D01*
X112200523Y-133386581D01*
X112220235Y-133318097D01*
X112250318Y-133219367D01*
X112292192Y-133085021D01*
X112347281Y-132909689D01*
X112511685Y-132387106D01*
X112904457Y-132380434D01*
X113297230Y-132373762D01*
X113405971Y-132720721D01*
G37*
G36*
X100952608Y-133299352D02*
G01*
X100952313Y-133531037D01*
X100951259Y-133737228D01*
X100949326Y-133901968D01*
X100946391Y-134028971D01*
X100942334Y-134121948D01*
X100937034Y-134184612D01*
X100930372Y-134220675D01*
X100922225Y-134233849D01*
X100901087Y-134236849D01*
X100835603Y-134243193D01*
X100732071Y-134252008D01*
X100596282Y-134262833D01*
X100434026Y-134275210D01*
X100251094Y-134288679D01*
X100053278Y-134302782D01*
X99896352Y-134313781D01*
X99707490Y-134326989D01*
X99537071Y-134338874D01*
X99391105Y-134349020D01*
X99275602Y-134357007D01*
X99196571Y-134362419D01*
X99160024Y-134364839D01*
X99138008Y-134364552D01*
X99111740Y-134346965D01*
X99105335Y-134295144D01*
X99105335Y-134222225D01*
X99664378Y-134222225D01*
X100223421Y-134222225D01*
X100223421Y-134027775D01*
X100223421Y-133833326D01*
X99773756Y-133833326D01*
X99324091Y-133833326D01*
X99324091Y-133566506D01*
X99324091Y-133299686D01*
X99767679Y-133293061D01*
X100211268Y-133286436D01*
X100218409Y-133110216D01*
X100225551Y-132933996D01*
X99665443Y-132933996D01*
X99105335Y-132933996D01*
X99105335Y-132654474D01*
X99105335Y-132374953D01*
X100028971Y-132374953D01*
X100952608Y-132374953D01*
X100952608Y-133299352D01*
G37*
G36*
X103115861Y-134804923D02*
G01*
X103115861Y-135173799D01*
X102489976Y-135164357D01*
X102292762Y-135160883D01*
X102115502Y-135155768D01*
X101973398Y-135148025D01*
X101859396Y-135136335D01*
X101766442Y-135119378D01*
X101687480Y-135095837D01*
X101615458Y-135064390D01*
X101543320Y-135023720D01*
X101464013Y-134972508D01*
X101437787Y-134953996D01*
X101362275Y-134891752D01*
X101286873Y-134819062D01*
X101218923Y-134744360D01*
X101165770Y-134676083D01*
X101134758Y-134622665D01*
X101133230Y-134592543D01*
X101147236Y-134587974D01*
X101203340Y-134579250D01*
X101293829Y-134569226D01*
X101410155Y-134558811D01*
X101543766Y-134548912D01*
X101607694Y-134544680D01*
X101738956Y-134536749D01*
X101833400Y-134533036D01*
X101899374Y-134533861D01*
X101945222Y-134539543D01*
X101979291Y-134550402D01*
X102009928Y-134566758D01*
X102016451Y-134570550D01*
X102106907Y-134601107D01*
X102234761Y-134611034D01*
X102245256Y-134611034D01*
X102323880Y-134609484D01*
X102366212Y-134602127D01*
X102383421Y-134584686D01*
X102386675Y-134552889D01*
X102388019Y-134530458D01*
X102399003Y-134509683D01*
X102429391Y-134496614D01*
X102488888Y-134487694D01*
X102587201Y-134479362D01*
X102589710Y-134479171D01*
X102712685Y-134469582D01*
X102842620Y-134459135D01*
X102951794Y-134450059D01*
X103115861Y-134436047D01*
X103115861Y-134804923D01*
G37*
G36*
X111525813Y-133506893D02*
G01*
X110644713Y-133569392D01*
X110451919Y-133583024D01*
X110258641Y-133596602D01*
X110083813Y-133608792D01*
X109933444Y-133619180D01*
X109813541Y-133627351D01*
X109730112Y-133632891D01*
X109689165Y-133635383D01*
X109680436Y-133635505D01*
X109600070Y-133610039D01*
X109520770Y-133537718D01*
X109444330Y-133420120D01*
X109422494Y-133362899D01*
X109402161Y-133251248D01*
X109395382Y-133124859D01*
X110164665Y-133124859D01*
X110173029Y-133210749D01*
X110205138Y-133269837D01*
X110270111Y-133314993D01*
X110271655Y-133315776D01*
X110338714Y-133337284D01*
X110439298Y-133354910D01*
X110558840Y-133366078D01*
X110772321Y-133378250D01*
X110772321Y-133131817D01*
X110772321Y-132885383D01*
X110577090Y-132885383D01*
X110430041Y-132892468D01*
X110308679Y-132917880D01*
X110226333Y-132963725D01*
X110179498Y-133032040D01*
X110164665Y-133124859D01*
X109395382Y-133124859D01*
X109395140Y-133120338D01*
X109401238Y-132986399D01*
X109420260Y-132865659D01*
X109452015Y-132774347D01*
X109452372Y-132773681D01*
X109548467Y-132641962D01*
X109681142Y-132529468D01*
X109839428Y-132445508D01*
X109853744Y-132439871D01*
X109894387Y-132425131D01*
X109935977Y-132413409D01*
X109984471Y-132404278D01*
X110045829Y-132397310D01*
X110126008Y-132392080D01*
X110230965Y-132388161D01*
X110366660Y-132385125D01*
X110539049Y-132382546D01*
X110754091Y-132379997D01*
X111525813Y-132371334D01*
X111525813Y-132939114D01*
X111525813Y-133131817D01*
X111525813Y-133506893D01*
G37*
G36*
X108852129Y-134140883D02*
G01*
X108844850Y-134231713D01*
X108816160Y-134372110D01*
X108770537Y-134519513D01*
X108713187Y-134654677D01*
X108645038Y-134767708D01*
X108509944Y-134921228D01*
X108344816Y-135047693D01*
X108159291Y-135140203D01*
X107963006Y-135191858D01*
X107792764Y-135204875D01*
X107582003Y-135184917D01*
X107390896Y-135123735D01*
X107224052Y-135022387D01*
X107103956Y-134927457D01*
X107060854Y-135048812D01*
X107017752Y-135170168D01*
X106841161Y-135170168D01*
X106664569Y-135170168D01*
X106664569Y-134685978D01*
X106664569Y-134201788D01*
X106816483Y-134187388D01*
X106834970Y-134185674D01*
X106931044Y-134177485D01*
X107051507Y-134168011D01*
X107185953Y-134157982D01*
X107323974Y-134148130D01*
X107455162Y-134139185D01*
X107569111Y-134131878D01*
X107655412Y-134126939D01*
X107703660Y-134125099D01*
X107738840Y-134131331D01*
X107754724Y-134159259D01*
X107758349Y-134222225D01*
X107758349Y-134319450D01*
X107551746Y-134319450D01*
X107530751Y-134319501D01*
X107426813Y-134323206D01*
X107365716Y-134336222D01*
X107342612Y-134363374D01*
X107352649Y-134409487D01*
X107390977Y-134479386D01*
X107407316Y-134503068D01*
X107492297Y-134577838D01*
X107600829Y-134621816D01*
X107717094Y-134627804D01*
X107830960Y-134595422D01*
X107933471Y-134521303D01*
X108007992Y-134407632D01*
X108054273Y-134254684D01*
X108082048Y-134105331D01*
X108205797Y-134091389D01*
X108248401Y-134087080D01*
X108347448Y-134078614D01*
X108467341Y-134069623D01*
X108590837Y-134061448D01*
X108852129Y-134045448D01*
X108852129Y-134140883D01*
G37*
G36*
X108166410Y-132367575D02*
G01*
X108317829Y-132381451D01*
X108441600Y-132409129D01*
X108548589Y-132454159D01*
X108649662Y-132520093D01*
X108755683Y-132610483D01*
X108853239Y-132715779D01*
X108972247Y-132894666D01*
X109063950Y-133097020D01*
X109122939Y-133310146D01*
X109143804Y-133521350D01*
X109143801Y-133533025D01*
X109142126Y-133606870D01*
X109132823Y-133646470D01*
X109109261Y-133664665D01*
X109064809Y-133674294D01*
X109022433Y-133680079D01*
X108934785Y-133688650D01*
X108839976Y-133695106D01*
X108770528Y-133698386D01*
X108648094Y-133703352D01*
X108533562Y-133707199D01*
X108372986Y-133711795D01*
X108359949Y-133462656D01*
X108348559Y-133324808D01*
X108317871Y-133159304D01*
X108269032Y-133035351D01*
X108200315Y-132950208D01*
X108109993Y-132901132D01*
X107996340Y-132885383D01*
X107970635Y-132885619D01*
X107900169Y-132893104D01*
X107848527Y-132918370D01*
X107792572Y-132971157D01*
X107772427Y-132994562D01*
X107722939Y-133071211D01*
X107695484Y-133143242D01*
X107693244Y-133154099D01*
X107673934Y-133211326D01*
X107651201Y-133240331D01*
X107647323Y-133241179D01*
X107603920Y-133241840D01*
X107524304Y-133238142D01*
X107418305Y-133230649D01*
X107295754Y-133219925D01*
X106968397Y-133188741D01*
X106975096Y-133106075D01*
X106977952Y-133082156D01*
X107012475Y-132962218D01*
X107076491Y-132831785D01*
X107161822Y-132705432D01*
X107260291Y-132597738D01*
X107337268Y-132531663D01*
X107439053Y-132461788D01*
X107545548Y-132413491D01*
X107667563Y-132383362D01*
X107815914Y-132367988D01*
X108001412Y-132363960D01*
X108166410Y-132367575D01*
G37*
G36*
X111212895Y-133887757D02*
G01*
X111220741Y-133929155D01*
X111226714Y-134011865D01*
X111230889Y-134137705D01*
X111233339Y-134308495D01*
X111234139Y-134526053D01*
X111234139Y-135170168D01*
X110857392Y-135170168D01*
X110480646Y-135170168D01*
X110480646Y-134708350D01*
X110480646Y-134246531D01*
X110373542Y-134246531D01*
X110266438Y-134246531D01*
X110121803Y-134617201D01*
X110092048Y-134693607D01*
X110042181Y-134822335D01*
X109998371Y-134936244D01*
X109964513Y-135025188D01*
X109944502Y-135079019D01*
X109911837Y-135170168D01*
X109503514Y-135170168D01*
X109399395Y-135169698D01*
X109278215Y-135167802D01*
X109181828Y-135164704D01*
X109118174Y-135160682D01*
X109095191Y-135156010D01*
X109097051Y-135149646D01*
X109113569Y-135106035D01*
X109144984Y-135027190D01*
X109188613Y-134919733D01*
X109241776Y-134790289D01*
X109301794Y-134645481D01*
X109328921Y-134580104D01*
X109386346Y-134440266D01*
X109435701Y-134318106D01*
X109474291Y-134220408D01*
X109499421Y-134153954D01*
X109508397Y-134125527D01*
X109507578Y-134121713D01*
X109481258Y-134093686D01*
X109429402Y-134060941D01*
X109414537Y-134052846D01*
X109377479Y-134026765D01*
X109374713Y-134012609D01*
X109385666Y-134011253D01*
X109438937Y-134006600D01*
X109530254Y-133999372D01*
X109653061Y-133990038D01*
X109800806Y-133979064D01*
X109966932Y-133966918D01*
X110144886Y-133954067D01*
X110328113Y-133940977D01*
X110510059Y-133928117D01*
X110684169Y-133915954D01*
X110843889Y-133904954D01*
X110982665Y-133895585D01*
X111093941Y-133888315D01*
X111171164Y-133883610D01*
X111207779Y-133881938D01*
X111212895Y-133887757D01*
G37*
G36*
X116891934Y-132363645D02*
G01*
X117012575Y-132365733D01*
X117102018Y-132371186D01*
X117171678Y-132381366D01*
X117232971Y-132397639D01*
X117297311Y-132421366D01*
X117388076Y-132465775D01*
X117514086Y-132553926D01*
X117625720Y-132661658D01*
X117715200Y-132779791D01*
X117774747Y-132899146D01*
X117796581Y-133010543D01*
X117796818Y-133074938D01*
X117486914Y-133091259D01*
X117472699Y-133092015D01*
X117355122Y-133098866D01*
X117255881Y-133105662D01*
X117185050Y-133111654D01*
X117152703Y-133116094D01*
X117124848Y-133121771D01*
X117068847Y-133126526D01*
X117055783Y-133126737D01*
X117026618Y-133120585D01*
X117038464Y-133099278D01*
X117060996Y-133064100D01*
X117060919Y-132999655D01*
X117019019Y-132933996D01*
X117014087Y-132929332D01*
X116940525Y-132892387D01*
X116842970Y-132881801D01*
X116734912Y-132894745D01*
X116629841Y-132928391D01*
X116541248Y-132979910D01*
X116482623Y-133046473D01*
X116452472Y-133084530D01*
X116413333Y-133103553D01*
X116381544Y-133098115D01*
X116313559Y-133080972D01*
X116223097Y-133055558D01*
X116121716Y-133025401D01*
X116020973Y-132994030D01*
X115932426Y-132964975D01*
X115867633Y-132941765D01*
X115838151Y-132927928D01*
X115834833Y-132921207D01*
X115844121Y-132880366D01*
X115878232Y-132817104D01*
X115930634Y-132741178D01*
X115994795Y-132662343D01*
X116064183Y-132590356D01*
X116108507Y-132552533D01*
X116218040Y-132477277D01*
X116327521Y-132421366D01*
X116362320Y-132407918D01*
X116423640Y-132388268D01*
X116487894Y-132375358D01*
X116566498Y-132367825D01*
X116670867Y-132364306D01*
X116812416Y-132363435D01*
X116891934Y-132363645D01*
G37*
G36*
X103407536Y-133222959D02*
G01*
X103407536Y-134070966D01*
X103085478Y-134087564D01*
X103064023Y-134088691D01*
X102942377Y-134095910D01*
X102837594Y-134103458D01*
X102760241Y-134110504D01*
X102720885Y-134116219D01*
X102720687Y-134116275D01*
X102707527Y-134117109D01*
X102697408Y-134107664D01*
X102689933Y-134082465D01*
X102684706Y-134036034D01*
X102681331Y-133962896D01*
X102679410Y-133857575D01*
X102678548Y-133714595D01*
X102678349Y-133528479D01*
X102678349Y-132928682D01*
X102493760Y-132938004D01*
X102429078Y-132941619D01*
X102356671Y-132949627D01*
X102307418Y-132965805D01*
X102265733Y-132996279D01*
X102216030Y-133047176D01*
X102177517Y-133093240D01*
X102103691Y-133226949D01*
X102060470Y-133391243D01*
X102046388Y-133590812D01*
X102057627Y-133767830D01*
X102097439Y-133938605D01*
X102165177Y-134072538D01*
X102216866Y-134145128D01*
X102040478Y-134159593D01*
X101942772Y-134167653D01*
X101841934Y-134176057D01*
X101766866Y-134182403D01*
X101720649Y-134185308D01*
X101623930Y-134188190D01*
X101524467Y-134188257D01*
X101379293Y-134185766D01*
X101337019Y-134071646D01*
X101335723Y-134068117D01*
X101295257Y-133919642D01*
X101269223Y-133746572D01*
X101259869Y-133570788D01*
X101269444Y-133414171D01*
X101292848Y-133288348D01*
X101364737Y-133065057D01*
X101469534Y-132866658D01*
X101603647Y-132698164D01*
X101763484Y-132564584D01*
X101945455Y-132470931D01*
X101961929Y-132464832D01*
X102048262Y-132436288D01*
X102136522Y-132414316D01*
X102234486Y-132398117D01*
X102349927Y-132386894D01*
X102490623Y-132379848D01*
X102664347Y-132376181D01*
X102878876Y-132375093D01*
X103407536Y-132374953D01*
X103407536Y-133222959D01*
G37*
G36*
X117504610Y-133558613D02*
G01*
X117501967Y-133609566D01*
X117463528Y-133763687D01*
X117382955Y-133903164D01*
X117264881Y-134021431D01*
X117113942Y-134111924D01*
X117043508Y-134139798D01*
X116930823Y-134177799D01*
X116800857Y-134216788D01*
X116669876Y-134251648D01*
X116534430Y-134286216D01*
X116414642Y-134320887D01*
X116330480Y-134352164D01*
X116275393Y-134383063D01*
X116242827Y-134416600D01*
X116226229Y-134455788D01*
X116224294Y-134515917D01*
X116262251Y-134573338D01*
X116344429Y-134611774D01*
X116470409Y-134630925D01*
X116559275Y-134631372D01*
X116704492Y-134603418D01*
X116820332Y-134538888D01*
X116904288Y-134438893D01*
X116914565Y-134421816D01*
X116958318Y-134368293D01*
X116994713Y-134354293D01*
X116995376Y-134354465D01*
X117034193Y-134362612D01*
X117109810Y-134377119D01*
X117211597Y-134395983D01*
X117328923Y-134417205D01*
X117440083Y-134438764D01*
X117539228Y-134462095D01*
X117603575Y-134482530D01*
X117626437Y-134498247D01*
X117613384Y-134551047D01*
X117578215Y-134630096D01*
X117528578Y-134720401D01*
X117472120Y-134808081D01*
X117416492Y-134879254D01*
X117315840Y-134975953D01*
X117157635Y-135079804D01*
X116971809Y-135151260D01*
X116751651Y-135193496D01*
X116720024Y-135196964D01*
X116491718Y-135203672D01*
X116270594Y-135179699D01*
X116064204Y-135127475D01*
X115880101Y-135049433D01*
X115725837Y-134948004D01*
X115608966Y-134825620D01*
X115557886Y-134744579D01*
X115491722Y-134578281D01*
X115466468Y-134404195D01*
X115481880Y-134231199D01*
X115537714Y-134068169D01*
X115633726Y-133923983D01*
X115663937Y-133891185D01*
X115724542Y-133835976D01*
X115794277Y-133788896D01*
X115880852Y-133746429D01*
X115991978Y-133705056D01*
X116135366Y-133661261D01*
X116318727Y-133611525D01*
X116333573Y-133607651D01*
X116494256Y-133567457D01*
X116636798Y-133536172D01*
X116774544Y-133511692D01*
X116920841Y-133491915D01*
X117089032Y-133474736D01*
X117292464Y-133458053D01*
X117505144Y-133441890D01*
X117504610Y-133558613D01*
G37*
G36*
X113530500Y-134422232D02*
G01*
X113546665Y-134474197D01*
X113600103Y-134645705D01*
X113648634Y-134801054D01*
X113690358Y-134934191D01*
X113723375Y-135039061D01*
X113745785Y-135109610D01*
X113755688Y-135139785D01*
X113755651Y-135146992D01*
X113735634Y-135158031D01*
X113684280Y-135165173D01*
X113595846Y-135169019D01*
X113464588Y-135170168D01*
X113161989Y-135170168D01*
X113089353Y-134933182D01*
X113016717Y-134696197D01*
X112687618Y-134689455D01*
X112358518Y-134682713D01*
X112290449Y-134926440D01*
X112222380Y-135170168D01*
X111849791Y-135170168D01*
X111833149Y-135170155D01*
X111675232Y-135168337D01*
X111564242Y-135163362D01*
X111498718Y-135155128D01*
X111477201Y-135143529D01*
X111481738Y-135125249D01*
X111498700Y-135066392D01*
X111526133Y-134974234D01*
X111561810Y-134856020D01*
X111603506Y-134718996D01*
X111648997Y-134570408D01*
X111696056Y-134417501D01*
X111742459Y-134267520D01*
X111785981Y-134127711D01*
X111824395Y-134005319D01*
X111855477Y-133907590D01*
X111877002Y-133841769D01*
X111879055Y-133840917D01*
X111914020Y-133836246D01*
X111984216Y-133829660D01*
X112079216Y-133821895D01*
X112188591Y-133813687D01*
X112301913Y-133805771D01*
X112408754Y-133798883D01*
X112498687Y-133793759D01*
X112561283Y-133791134D01*
X112586114Y-133791745D01*
X112586511Y-133792494D01*
X112583046Y-133822432D01*
X112568694Y-133885229D01*
X112546241Y-133968525D01*
X112544070Y-133976136D01*
X112520808Y-134060238D01*
X112504323Y-134124415D01*
X112498062Y-134155306D01*
X112498858Y-134157018D01*
X112528762Y-134165442D01*
X112593221Y-134171371D01*
X112680359Y-134173613D01*
X112741091Y-134173562D01*
X112811427Y-134169514D01*
X112849339Y-134152974D01*
X112860106Y-134115245D01*
X112849010Y-134047630D01*
X112821330Y-133941431D01*
X112802303Y-133863318D01*
X112791154Y-133803225D01*
X112790948Y-133776697D01*
X112808084Y-133772760D01*
X112865450Y-133766046D01*
X112952722Y-133758475D01*
X113059350Y-133751056D01*
X113316810Y-133735062D01*
X113530500Y-134422232D01*
G37*
G36*
X98813660Y-133378725D02*
G01*
X98813660Y-134386115D01*
X98540215Y-134402341D01*
X98450456Y-134408054D01*
X98331606Y-134416725D01*
X98230872Y-134425291D01*
X98163469Y-134432534D01*
X98060167Y-134446501D01*
X98060167Y-134164220D01*
X98060167Y-133881938D01*
X97952833Y-133881938D01*
X97845498Y-133881938D01*
X97732730Y-134171822D01*
X97619962Y-134461707D01*
X97469395Y-134475885D01*
X97403266Y-134481910D01*
X97296760Y-134490985D01*
X97209450Y-134497735D01*
X97085394Y-134504981D01*
X96972773Y-134508910D01*
X96880871Y-134509462D01*
X96818943Y-134506583D01*
X96796244Y-134500217D01*
X96800365Y-134486991D01*
X96819988Y-134434952D01*
X96853001Y-134351103D01*
X96896315Y-134243254D01*
X96946845Y-134119215D01*
X96978710Y-134041261D01*
X97025018Y-133925707D01*
X97055281Y-133844466D01*
X97071340Y-133790695D01*
X97075037Y-133757550D01*
X97068214Y-133738189D01*
X97052711Y-133725768D01*
X96959738Y-133666766D01*
X96835922Y-133562268D01*
X96751709Y-133445631D01*
X96701440Y-133307979D01*
X96679452Y-133140433D01*
X96678887Y-133124859D01*
X97452512Y-133124859D01*
X97460876Y-133210749D01*
X97492985Y-133269837D01*
X97557958Y-133314993D01*
X97559502Y-133315776D01*
X97626560Y-133337284D01*
X97727145Y-133354910D01*
X97846687Y-133366078D01*
X98060167Y-133378250D01*
X98060167Y-133131817D01*
X98060167Y-132885383D01*
X97864937Y-132885383D01*
X97717888Y-132892468D01*
X97596526Y-132917880D01*
X97514180Y-132963725D01*
X97467345Y-133032040D01*
X97452512Y-133124859D01*
X96678887Y-133124859D01*
X96676366Y-133055358D01*
X96679874Y-132967250D01*
X96694656Y-132894432D01*
X96723289Y-132817937D01*
X96739041Y-132784438D01*
X96834631Y-132646920D01*
X96966631Y-132531385D01*
X97126351Y-132445853D01*
X97141574Y-132439863D01*
X97182320Y-132425102D01*
X97223977Y-132413369D01*
X97272508Y-132404235D01*
X97333875Y-132397271D01*
X97414041Y-132392049D01*
X97518968Y-132388139D01*
X97654618Y-132385113D01*
X97826954Y-132382542D01*
X98041938Y-132379997D01*
X98813660Y-132371334D01*
X98813660Y-133131817D01*
X98813660Y-133378725D01*
G37*
D13*
X94177500Y-120662742D02*
X94177500Y-121137258D01*
X95222500Y-120662742D02*
X95222500Y-121137258D01*
X116262742Y-83383500D02*
X116737258Y-83383500D01*
X116262742Y-84428500D02*
X116737258Y-84428500D01*
X133477500Y-105982258D02*
X133477500Y-105507742D01*
X134522500Y-105982258D02*
X134522500Y-105507742D01*
X120695258Y-80383500D02*
X120220742Y-80383500D01*
X120695258Y-81428500D02*
X120220742Y-81428500D01*
X114987500Y-81960000D02*
X116662500Y-81960000D01*
X116012500Y-78840000D02*
X116662500Y-78840000D01*
X117312500Y-78840000D02*
X116662500Y-78840000D01*
X117312500Y-81960000D02*
X116662500Y-81960000D01*
%LPC*%
D15*
X131000000Y-83000000D03*
D16*
X95300000Y-123400000D03*
D17*
X99300000Y-123400000D03*
D18*
X79240000Y-95750000D03*
X79240000Y-98750000D03*
D19*
X97175000Y-93080000D03*
D20*
X97175000Y-90540000D03*
D19*
X97175000Y-88000000D03*
X94000000Y-93080000D03*
X94000000Y-88000000D03*
D20*
X92095000Y-91556000D03*
X92095000Y-89524000D03*
D21*
X131925000Y-106565000D03*
X131925000Y-100785000D03*
D22*
X131425000Y-107995000D03*
D23*
X135605000Y-107995000D03*
D22*
X131425000Y-99355000D03*
D23*
X135605000Y-99355000D03*
D15*
X83000000Y-131000000D03*
X131000000Y-131000000D03*
X82999999Y-82999999D03*
D18*
X133100000Y-115800000D03*
X133100000Y-123800000D03*
D24*
X112100000Y-105350000D03*
X112100000Y-107000000D03*
D25*
X134000000Y-103000000D03*
X134000000Y-101350000D03*
D26*
X115750000Y-109275000D03*
X115750000Y-107725000D03*
D27*
X119700000Y-92000000D03*
X119700000Y-93550000D03*
D28*
X121850000Y-94300000D03*
X121850000Y-92000000D03*
D29*
X128150000Y-92000000D03*
D28*
X121850000Y-89700000D03*
X121850000Y-102300000D03*
X121850000Y-100000000D03*
D29*
X128150000Y-100000000D03*
D28*
X121850000Y-97700000D03*
D30*
X119775000Y-100000000D03*
X118225000Y-100000000D03*
D26*
X119750000Y-97675000D03*
X119750000Y-96125000D03*
D31*
X97300000Y-121800000D03*
X96350000Y-119925000D03*
X98250000Y-119925000D03*
D27*
X117500000Y-107725000D03*
X117500000Y-109275000D03*
D24*
X113710000Y-102220000D03*
X113710000Y-103870000D03*
D26*
X119700000Y-89550000D03*
X119700000Y-88000000D03*
D32*
X123633000Y-80906000D03*
X125283000Y-80906000D03*
D25*
X94700000Y-121725000D03*
X94700000Y-120075000D03*
D33*
X117325000Y-83906000D03*
X115675000Y-83906000D03*
D24*
X134000000Y-104920000D03*
X134000000Y-106570000D03*
D32*
X119633000Y-80906000D03*
X121283000Y-80906000D03*
D34*
X117600000Y-80400000D03*
X115725000Y-81350000D03*
X115725000Y-79450000D03*
%LPD*%
M02*
