M48
; DRILL file {KiCad 8.0.4} date 2024-08-30T21:15:14+0200
; FORMAT={-:-/ absolute / metric / decimal}
; #@! TF.CreationDate,2024-08-30T21:15:14+02:00
; #@! TF.GenerationSoftware,Kicad,Pcbnew,8.0.4
; #@! TF.FileFunction,Plated,1,4,PTH
FMAT,2
METRIC
; #@! TA.AperFunction,Plated,PTH,ViaDrill
T1C0.300
; #@! TA.AperFunction,Plated,PTH,ViaDrill
T2C0.400
; #@! TA.AperFunction,Plated,PTH,ViaDrill
T3C0.500
; #@! TA.AperFunction,Plated,PTH,ComponentDrill
T4C0.600
; #@! TA.AperFunction,Plated,PTH,ComponentDrill
T5C0.900
; #@! TA.AperFunction,Plated,PTH,ComponentDrill
T6C3.200
%
G90
G05
T1
X83.975Y-95.0
X88.6Y-123.1
X88.7Y-121.1
X89.4Y-117.8
X90.3Y-118.5
X90.3Y-120.9
X90.4Y-96.0
X91.5Y-119.3
X91.5Y-121.0
X91.9Y-98.4
X92.1Y-87.4
X92.2Y-126.6
X93.1Y-107.8
X93.3Y-106.6
X93.4Y-97.5
X94.5Y-100.9
X95.2Y-84.9
X96.6Y-95.8
X96.9Y-105.3
X97.375Y-111.5
X98.2Y-128.6
X99.4Y-95.8
X101.0Y-97.4
X101.075Y-95.1
X102.25Y-86.875
X102.6Y-96.375
X102.987Y-102.512
X103.0Y-107.9
X103.325Y-108.925
X103.6Y-91.7
X103.9Y-104.9
X104.1Y-94.2
X104.1Y-110.8
X104.1Y-120.1
X104.6Y-103.9
X104.8Y-93.3
X104.8Y-98.8
X105.5Y-103.6
X106.7Y-104.3
X107.2Y-126.2
X108.675Y-104.625
X109.475Y-105.425
X109.85Y-97.65
X110.175Y-106.25
X110.4Y-109.1
X110.5Y-128.5
X110.6Y-98.6
X110.6Y-122.8
X111.5Y-128.5
X112.5Y-128.6
X113.0Y-96.0
X113.05Y-111.3
X113.25Y-106.0
X113.5Y-128.6
X113.75Y-119.25
X113.925Y-106.925
X114.226Y-107.773
X114.75Y-106.25
X115.0Y-96.0
X115.75Y-110.25
X116.5Y-105.25
X116.625Y-121.0
X116.7Y-109.275
X117.0Y-96.0
X118.4Y-117.7
X119.3Y-106.55
X119.675Y-114.575
X121.25Y-114.5
X124.35Y-112.225
X124.6Y-104.175
X126.9Y-106.1
X132.075Y-101.925
X132.225Y-104.925
T2
X79.0Y-88.4
X82.0Y-102.75
X82.13Y-112.89
X87.9Y-91.7
X88.2Y-127.9
X88.3Y-81.925
X89.075Y-129.6
X89.8Y-127.9
X98.8Y-129.825
X99.95Y-115.35
X100.9Y-121.5
X102.2Y-80.9
X102.3Y-110.425
X108.75Y-129.525
X110.925Y-117.5
X110.975Y-115.9
X113.175Y-82.175
X113.344Y-87.844
X114.45Y-79.45
X115.044Y-87.794
X115.275Y-101.175
X116.744Y-87.756
X117.1Y-100.0
X118.0Y-102.3
X118.6Y-83.9
X119.1Y-102.3
X119.7Y-86.8
X120.3Y-102.3
X120.887Y-125.4
X122.475Y-85.1
X123.3Y-94.3
X124.0Y-102.0
X124.4Y-94.3
X125.625Y-112.075
X126.3Y-111.0
X127.93Y-106.98
X127.95Y-107.95
X129.7Y-106.1
X129.8Y-101.275
X130.0Y-97.0
X131.0Y-97.0
X132.0Y-97.0
X133.0Y-97.0
X133.1Y-92.2
X133.1Y-93.2
X134.025Y-92.175
X134.1Y-93.225
T3
X123.5Y-89.7
X124.9Y-89.7
T5
X95.3Y-123.4
X99.3Y-123.4
T6
X83.0Y-83.0
X83.0Y-131.0
X131.0Y-83.0
X131.0Y-131.0
T4
X130.875Y-99.355G85X131.975Y-99.355
G05
X130.875Y-107.995G85X131.975Y-107.995
G05
X135.205Y-99.355G85X136.005Y-99.355
G05
X135.205Y-107.995G85X136.005Y-107.995
G05
M30
