G04 #@! TF.GenerationSoftware,KiCad,Pcbnew,8.0.4*
G04 #@! TF.CreationDate,2024-08-30T21:15:12+02:00*
G04 #@! TF.ProjectId,STARGLIDER_MainBoard_rev1,53544152-474c-4494-9445-525f4d61696e,rev?*
G04 #@! TF.SameCoordinates,Original*
G04 #@! TF.FileFunction,Legend,Top*
G04 #@! TF.FilePolarity,Positive*
%FSLAX46Y46*%
G04 Gerber Fmt 4.6, Leading zero omitted, Abs format (unit mm)*
G04 Created by KiCad (PCBNEW 8.0.4) date 2024-08-30 21:15:12*
%MOMM*%
%LPD*%
G01*
G04 APERTURE LIST*
G04 Aperture macros list*
%AMRoundRect*
0 Rectangle with rounded corners*
0 $1 Rounding radius*
0 $2 $3 $4 $5 $6 $7 $8 $9 X,Y pos of 4 corners*
0 Add a 4 corners polygon primitive as box body*
4,1,4,$2,$3,$4,$5,$6,$7,$8,$9,$2,$3,0*
0 Add four circle primitives for the rounded corners*
1,1,$1+$1,$2,$3*
1,1,$1+$1,$4,$5*
1,1,$1+$1,$6,$7*
1,1,$1+$1,$8,$9*
0 Add four rect primitives between the rounded corners*
20,1,$1+$1,$2,$3,$4,$5,0*
20,1,$1+$1,$4,$5,$6,$7,0*
20,1,$1+$1,$6,$7,$8,$9,0*
20,1,$1+$1,$8,$9,$2,$3,0*%
G04 Aperture macros list end*
%ADD10C,0.300000*%
%ADD11C,0.150000*%
%ADD12C,0.250000*%
%ADD13C,0.170000*%
%ADD14C,0.200000*%
%ADD15C,0.120000*%
%ADD16C,0.100000*%
%ADD17RoundRect,0.225000X0.250000X-0.225000X0.250000X0.225000X-0.250000X0.225000X-0.250000X-0.225000X0*%
%ADD18RoundRect,0.225000X-0.250000X0.225000X-0.250000X-0.225000X0.250000X-0.225000X0.250000X0.225000X0*%
%ADD19RoundRect,0.087500X-0.225000X-0.087500X0.225000X-0.087500X0.225000X0.087500X-0.225000X0.087500X0*%
%ADD20RoundRect,0.087500X-0.087500X-0.225000X0.087500X-0.225000X0.087500X0.225000X-0.087500X0.225000X0*%
%ADD21RoundRect,0.150000X-0.150000X-0.625000X0.150000X-0.625000X0.150000X0.625000X-0.150000X0.625000X0*%
%ADD22RoundRect,0.250000X-0.350000X-0.650000X0.350000X-0.650000X0.350000X0.650000X-0.350000X0.650000X0*%
%ADD23RoundRect,0.150000X0.512500X0.150000X-0.512500X0.150000X-0.512500X-0.150000X0.512500X-0.150000X0*%
%ADD24RoundRect,0.225000X-0.225000X-0.375000X0.225000X-0.375000X0.225000X0.375000X-0.225000X0.375000X0*%
%ADD25R,0.800000X0.900000*%
%ADD26C,5.600000*%
%ADD27RoundRect,0.225000X-0.225000X-0.250000X0.225000X-0.250000X0.225000X0.250000X-0.225000X0.250000X0*%
%ADD28R,1.600000X1.600000*%
%ADD29C,1.600000*%
%ADD30R,0.800000X1.000000*%
%ADD31C,0.900000*%
%ADD32R,1.500000X0.700000*%
%ADD33R,0.350000X0.500000*%
%ADD34C,2.374900*%
%ADD35C,0.990600*%
%ADD36C,0.787400*%
%ADD37R,1.100000X2.000000*%
%ADD38RoundRect,0.150000X-0.625000X0.150000X-0.625000X-0.150000X0.625000X-0.150000X0.625000X0.150000X0*%
%ADD39RoundRect,0.250000X-0.650000X0.350000X-0.650000X-0.350000X0.650000X-0.350000X0.650000X0.350000X0*%
%ADD40RoundRect,0.200000X-0.275000X0.200000X-0.275000X-0.200000X0.275000X-0.200000X0.275000X0.200000X0*%
%ADD41RoundRect,0.200000X-0.200000X-0.275000X0.200000X-0.275000X0.200000X0.275000X-0.200000X0.275000X0*%
%ADD42R,1.000000X1.800000*%
%ADD43R,0.740000X2.400000*%
%ADD44C,0.650000*%
%ADD45RoundRect,0.150000X0.326500X-0.150000X0.326500X0.150000X-0.326500X0.150000X-0.326500X-0.150000X0*%
%ADD46RoundRect,0.075000X0.500000X-0.075000X0.500000X0.075000X-0.500000X0.075000X-0.500000X-0.075000X0*%
%ADD47O,2.100000X1.000000*%
%ADD48O,1.800000X1.000000*%
%ADD49RoundRect,0.218750X-0.218750X-0.256250X0.218750X-0.256250X0.218750X0.256250X-0.218750X0.256250X0*%
%ADD50R,1.500000X1.500000*%
%ADD51RoundRect,0.175000X-0.625000X0.175000X-0.625000X-0.175000X0.625000X-0.175000X0.625000X0.175000X0*%
%ADD52RoundRect,0.300000X-0.800000X0.300000X-0.800000X-0.300000X0.800000X-0.300000X0.800000X0.300000X0*%
%ADD53RoundRect,0.350000X-0.350000X0.450000X-0.350000X-0.450000X0.350000X-0.450000X0.350000X0.450000X0*%
%ADD54RoundRect,0.300000X-0.400000X0.300000X-0.400000X-0.300000X0.400000X-0.300000X0.400000X0.300000X0*%
%ADD55RoundRect,0.075000X-0.700000X-0.075000X0.700000X-0.075000X0.700000X0.075000X-0.700000X0.075000X0*%
%ADD56RoundRect,0.075000X-0.075000X-0.700000X0.075000X-0.700000X0.075000X0.700000X-0.075000X0.700000X0*%
%ADD57RoundRect,0.075000X-0.350000X-0.075000X0.350000X-0.075000X0.350000X0.075000X-0.350000X0.075000X0*%
%ADD58RoundRect,0.075000X0.075000X-0.350000X0.075000X0.350000X-0.075000X0.350000X-0.075000X-0.350000X0*%
%ADD59RoundRect,0.200000X0.275000X-0.200000X0.275000X0.200000X-0.275000X0.200000X-0.275000X-0.200000X0*%
%ADD60RoundRect,0.150000X0.150000X0.625000X-0.150000X0.625000X-0.150000X-0.625000X0.150000X-0.625000X0*%
%ADD61RoundRect,0.250000X0.350000X0.650000X-0.350000X0.650000X-0.350000X-0.650000X0.350000X-0.650000X0*%
%ADD62RoundRect,0.150000X0.625000X-0.150000X0.625000X0.150000X-0.625000X0.150000X-0.625000X-0.150000X0*%
%ADD63RoundRect,0.250000X0.650000X-0.350000X0.650000X0.350000X-0.650000X0.350000X-0.650000X-0.350000X0*%
G04 APERTURE END LIST*
D10*
X91922783Y-88075000D02*
X92625000Y-88075000D01*
X117450000Y-134525000D02*
X127850000Y-134525000D01*
X127850000Y-136355000D01*
X117450000Y-136355000D01*
X117450000Y-134525000D01*
X99251108Y-93175000D02*
X98548891Y-93175000D01*
D11*
X110900000Y-89125000D02*
X112260000Y-89125000D01*
X112260000Y-91995000D01*
X110900000Y-91995000D01*
X110900000Y-89125000D01*
D10*
X99275000Y-88075000D02*
X98572783Y-88075000D01*
D11*
X99725000Y-128950000D02*
X105225000Y-128950000D01*
X105225000Y-130275000D01*
X99725000Y-130275000D01*
X99725000Y-128950000D01*
D10*
X99868350Y-89095567D02*
X99283066Y-88081826D01*
D11*
X83675000Y-114475000D02*
X84950000Y-114475000D01*
X84950000Y-121825000D01*
X83675000Y-121825000D01*
X83675000Y-114475000D01*
D12*
X79900000Y-88100000D02*
X85900000Y-88100000D01*
X85900000Y-91875000D01*
X79900000Y-91875000D01*
X79900000Y-88100000D01*
D11*
X83300000Y-103975000D02*
X84650000Y-103975000D01*
X84650000Y-108925000D01*
X83300000Y-108925000D01*
X83300000Y-103975000D01*
X120075000Y-118537500D02*
X121350000Y-118537500D01*
X121350000Y-124162500D01*
X120075000Y-124162500D01*
X120075000Y-118537500D01*
D10*
X91925708Y-93163697D02*
X92627925Y-93163697D01*
D11*
X81300000Y-86675000D02*
X84625000Y-86675000D01*
X84625000Y-87975000D01*
X81300000Y-87975000D01*
X81300000Y-86675000D01*
D10*
X91332358Y-92143130D02*
X91917642Y-93156871D01*
D11*
X109800000Y-128975000D02*
X114250000Y-128975000D01*
X114250000Y-130375000D01*
X109800000Y-130375000D01*
X109800000Y-128975000D01*
X90150000Y-129050000D02*
X94925000Y-129050000D01*
X94925000Y-130325000D01*
X90150000Y-130325000D01*
X90150000Y-129050000D01*
X129525000Y-88600000D02*
X130850000Y-88600000D01*
X130850000Y-94825000D01*
X129525000Y-94825000D01*
X129525000Y-88600000D01*
D10*
X91329433Y-89095567D02*
X91914717Y-88081826D01*
D11*
X89975000Y-89050000D02*
X91375000Y-89050000D01*
X91375000Y-92150000D01*
X89975000Y-92150000D01*
X89975000Y-89050000D01*
X100125000Y-78937500D02*
X101425000Y-78937500D01*
X101425000Y-82912500D01*
X100125000Y-82912500D01*
X100125000Y-78937500D01*
X102287500Y-121150000D02*
X103662500Y-121150000D01*
X103662500Y-125575000D01*
X102287500Y-125575000D01*
X102287500Y-121150000D01*
D10*
X99844458Y-92154433D02*
X99259174Y-93168174D01*
D11*
X81875000Y-95312500D02*
X83275000Y-95312500D01*
X83275000Y-99262500D01*
X81875000Y-99262500D01*
X81875000Y-95312500D01*
X106550000Y-83100000D02*
X109500000Y-83100000D01*
X109500000Y-84475000D01*
X106550000Y-84475000D01*
X106550000Y-83100000D01*
X128880000Y-102550000D02*
X130140000Y-102550000D01*
X130140000Y-105060000D01*
X128880000Y-105060000D01*
X128880000Y-102550000D01*
D13*
G36*
X90723462Y-89363515D02*
G01*
X90777612Y-89369171D01*
X90826545Y-89380817D01*
X90874797Y-89400781D01*
X90911924Y-89423677D01*
X90948433Y-89456384D01*
X90977135Y-89497990D01*
X90990385Y-89532199D01*
X91000766Y-89581523D01*
X91005972Y-89635001D01*
X91007421Y-89689232D01*
X91007421Y-89778625D01*
X90366528Y-89778625D01*
X90366528Y-89713412D01*
X90366606Y-89702288D01*
X90369344Y-89649561D01*
X90377793Y-89592649D01*
X90391876Y-89542675D01*
X90415424Y-89493140D01*
X90446639Y-89453049D01*
X90489208Y-89417932D01*
X90538696Y-89391440D01*
X90586621Y-89375597D01*
X90639629Y-89366092D01*
X90697721Y-89362923D01*
X90723462Y-89363515D01*
G37*
G36*
X91321742Y-92156554D02*
G01*
X90052207Y-92156554D01*
X90052207Y-91720600D01*
X90163318Y-91720600D01*
X90163390Y-91727906D01*
X90167928Y-91777004D01*
X90181758Y-91828738D01*
X90204808Y-91875801D01*
X90237079Y-91918192D01*
X90270645Y-91949312D01*
X90312441Y-91975519D01*
X90363841Y-91993068D01*
X90413422Y-91998059D01*
X90462483Y-91992374D01*
X90511601Y-91975317D01*
X90556304Y-91949944D01*
X90580135Y-91932057D01*
X90618426Y-91897439D01*
X90655824Y-91858873D01*
X90690216Y-91820465D01*
X90727542Y-91776356D01*
X90759515Y-91736964D01*
X90791968Y-91697442D01*
X90826267Y-91658817D01*
X90862585Y-91624856D01*
X90881407Y-91612577D01*
X90929508Y-91599455D01*
X90953992Y-91603438D01*
X90994965Y-91633161D01*
X91014165Y-91665645D01*
X91023053Y-91716203D01*
X91022503Y-91727993D01*
X91006429Y-91778897D01*
X90973456Y-91821193D01*
X90930179Y-91855923D01*
X90882369Y-91883998D01*
X90983485Y-92045443D01*
X90997926Y-92038238D01*
X91044622Y-92011596D01*
X91085334Y-91982733D01*
X91124535Y-91947028D01*
X91155921Y-91908422D01*
X91177238Y-91872053D01*
X91196953Y-91821411D01*
X91207212Y-91772730D01*
X91210631Y-91720600D01*
X91209391Y-91686860D01*
X91201251Y-91631764D01*
X91185515Y-91581693D01*
X91162182Y-91536648D01*
X91131252Y-91496629D01*
X91121135Y-91486218D01*
X91083141Y-91455069D01*
X91034796Y-91429546D01*
X90981200Y-91414769D01*
X90929996Y-91410655D01*
X90914460Y-91411037D01*
X90862548Y-91418383D01*
X90814469Y-91435080D01*
X90784270Y-91451504D01*
X90742802Y-91481758D01*
X90703583Y-91517878D01*
X90690134Y-91532178D01*
X90656107Y-91571416D01*
X90621463Y-91612823D01*
X90590010Y-91650990D01*
X90566650Y-91678891D01*
X90530895Y-91720647D01*
X90498018Y-91757348D01*
X90462759Y-91791918D01*
X90415621Y-91809015D01*
X90414069Y-91808992D01*
X90370924Y-91785080D01*
X90362162Y-91772135D01*
X90350896Y-91723042D01*
X90357735Y-91684482D01*
X90381778Y-91641467D01*
X90417681Y-91603556D01*
X90460317Y-91570634D01*
X90330868Y-91428485D01*
X90302480Y-91453093D01*
X90263111Y-91491325D01*
X90227725Y-91532657D01*
X90199466Y-91576496D01*
X90180403Y-91619954D01*
X90167589Y-91669411D01*
X90163318Y-91720600D01*
X90052207Y-91720600D01*
X90052207Y-90304235D01*
X90178949Y-90304235D01*
X90827414Y-90448583D01*
X90178949Y-90631276D01*
X90178949Y-90791256D01*
X90827414Y-90971995D01*
X90178949Y-91117564D01*
X90178949Y-91307096D01*
X91195000Y-91078485D01*
X91195000Y-90895791D01*
X90538230Y-90713098D01*
X91195000Y-90526741D01*
X91195000Y-90342093D01*
X90178949Y-90114703D01*
X90178949Y-90304235D01*
X90052207Y-90304235D01*
X90052207Y-89742233D01*
X90178949Y-89742233D01*
X90178949Y-89970355D01*
X91195000Y-89970355D01*
X91195000Y-89738813D01*
X91194391Y-89680227D01*
X91192567Y-89627353D01*
X91188771Y-89571446D01*
X91182130Y-89516617D01*
X91170087Y-89462574D01*
X91163236Y-89442844D01*
X91140668Y-89395055D01*
X91113708Y-89353920D01*
X91080450Y-89314563D01*
X91050425Y-89286058D01*
X91007116Y-89253564D01*
X90964175Y-89228605D01*
X90917051Y-89207341D01*
X90904673Y-89202638D01*
X90853672Y-89186861D01*
X90800290Y-89175939D01*
X90751627Y-89170364D01*
X90701140Y-89168506D01*
X90670548Y-89169116D01*
X90621181Y-89172841D01*
X90564618Y-89181783D01*
X90510975Y-89195602D01*
X90460250Y-89214298D01*
X90412445Y-89237871D01*
X90375500Y-89260472D01*
X90335589Y-89290033D01*
X90295126Y-89327885D01*
X90261231Y-89369360D01*
X90233904Y-89414459D01*
X90227249Y-89428304D01*
X90209861Y-89475153D01*
X90196337Y-89529970D01*
X90188019Y-89581738D01*
X90182384Y-89639040D01*
X90179808Y-89688865D01*
X90179413Y-89713412D01*
X90178949Y-89742233D01*
X90052207Y-89742233D01*
X90052207Y-89057395D01*
X91321742Y-89057395D01*
X91321742Y-92156554D01*
G37*
G36*
X82752814Y-87026538D02*
G01*
X82802623Y-87028261D01*
X82853810Y-87037030D01*
X82860832Y-87039866D01*
X82899728Y-87071468D01*
X82904723Y-87079157D01*
X82917069Y-87127889D01*
X82912192Y-87164559D01*
X82882386Y-87206290D01*
X82858337Y-87217625D01*
X82807569Y-87227448D01*
X82755624Y-87229738D01*
X82695052Y-87229738D01*
X82695052Y-87026528D01*
X82748053Y-87026528D01*
X82752814Y-87026538D01*
G37*
G36*
X84599394Y-87981742D02*
G01*
X81343676Y-87981742D01*
X81343676Y-87855000D01*
X81454787Y-87855000D01*
X81647250Y-87855000D01*
X81647250Y-87188461D01*
X82080049Y-87855000D01*
X82264696Y-87855000D01*
X82264696Y-87229738D01*
X82502833Y-87229738D01*
X82502833Y-87855000D01*
X82695052Y-87855000D01*
X82695052Y-87417316D01*
X82713126Y-87417316D01*
X82940516Y-87855000D01*
X83150565Y-87855000D01*
X83040361Y-87643485D01*
X83214312Y-87643485D01*
X83221517Y-87657926D01*
X83248159Y-87704622D01*
X83277022Y-87745334D01*
X83312727Y-87784535D01*
X83351333Y-87815921D01*
X83387702Y-87837238D01*
X83438344Y-87856953D01*
X83487025Y-87867212D01*
X83539155Y-87870631D01*
X83572895Y-87869391D01*
X83627991Y-87861251D01*
X83678062Y-87845515D01*
X83723107Y-87822182D01*
X83763126Y-87791252D01*
X83773537Y-87781135D01*
X83804685Y-87743141D01*
X83830209Y-87694796D01*
X83844986Y-87641200D01*
X83849099Y-87589996D01*
X83848718Y-87574460D01*
X83841371Y-87522548D01*
X83824675Y-87474469D01*
X83808251Y-87444270D01*
X83777997Y-87402802D01*
X83741877Y-87363583D01*
X83727577Y-87350134D01*
X83688339Y-87316107D01*
X83646932Y-87281463D01*
X83608765Y-87250010D01*
X83580864Y-87226650D01*
X83539108Y-87190895D01*
X83502407Y-87158018D01*
X83467836Y-87122759D01*
X83450739Y-87075621D01*
X83450763Y-87074069D01*
X83474675Y-87030924D01*
X83487620Y-87022162D01*
X83536713Y-87010896D01*
X83575273Y-87017735D01*
X83618288Y-87041778D01*
X83656199Y-87077681D01*
X83689120Y-87120317D01*
X83792111Y-87026528D01*
X83929944Y-87026528D01*
X84109218Y-87026528D01*
X84109218Y-87855000D01*
X84304368Y-87855000D01*
X84304368Y-87026528D01*
X84488283Y-87026528D01*
X84488283Y-86838949D01*
X83929944Y-86838949D01*
X83929944Y-87026528D01*
X83792111Y-87026528D01*
X83831270Y-86990868D01*
X83806662Y-86962480D01*
X83768430Y-86923111D01*
X83727098Y-86887725D01*
X83683259Y-86859466D01*
X83639801Y-86840403D01*
X83590344Y-86827589D01*
X83539155Y-86823318D01*
X83531849Y-86823390D01*
X83482750Y-86827928D01*
X83431017Y-86841758D01*
X83383954Y-86864808D01*
X83341563Y-86897079D01*
X83310443Y-86930645D01*
X83284236Y-86972441D01*
X83266687Y-87023841D01*
X83261695Y-87073422D01*
X83267381Y-87122483D01*
X83284438Y-87171601D01*
X83309811Y-87216304D01*
X83327698Y-87240135D01*
X83362316Y-87278426D01*
X83400881Y-87315824D01*
X83439290Y-87350216D01*
X83483399Y-87387542D01*
X83522791Y-87419515D01*
X83562313Y-87451968D01*
X83600938Y-87486267D01*
X83634899Y-87522585D01*
X83647177Y-87541407D01*
X83660300Y-87589508D01*
X83656317Y-87613992D01*
X83626594Y-87654965D01*
X83594110Y-87674165D01*
X83543552Y-87683053D01*
X83531762Y-87682503D01*
X83480858Y-87666429D01*
X83438562Y-87633456D01*
X83403832Y-87590179D01*
X83375757Y-87542369D01*
X83214312Y-87643485D01*
X83040361Y-87643485D01*
X82911451Y-87396067D01*
X82929067Y-87389372D01*
X82976790Y-87365888D01*
X83020797Y-87333812D01*
X83055310Y-87295439D01*
X83066530Y-87278323D01*
X83088035Y-87231092D01*
X83099395Y-87183159D01*
X83103182Y-87130087D01*
X83102802Y-87112677D01*
X83097102Y-87063099D01*
X83082748Y-87012681D01*
X83059951Y-86967177D01*
X83030189Y-86927969D01*
X82991114Y-86893711D01*
X82945401Y-86868747D01*
X82915356Y-86858620D01*
X82864745Y-86848377D01*
X82810567Y-86842470D01*
X82756780Y-86839677D01*
X82706776Y-86838949D01*
X82502833Y-86838949D01*
X82502833Y-87229738D01*
X82264696Y-87229738D01*
X82264696Y-86838949D01*
X82072477Y-86838949D01*
X82072477Y-87507686D01*
X81638946Y-86838949D01*
X81454787Y-86838949D01*
X81454787Y-87855000D01*
X81343676Y-87855000D01*
X81343676Y-86712207D01*
X84599394Y-86712207D01*
X84599394Y-87981742D01*
G37*
G36*
X100569914Y-82384356D02*
G01*
X100616263Y-82400083D01*
X100621861Y-82404303D01*
X100649724Y-82444535D01*
X100658085Y-82493474D01*
X100659738Y-82544919D01*
X100659738Y-82605979D01*
X100456528Y-82605979D01*
X100456528Y-82551757D01*
X100457005Y-82525199D01*
X100461413Y-82476469D01*
X100476067Y-82429392D01*
X100510200Y-82395320D01*
X100559842Y-82383962D01*
X100569914Y-82384356D01*
G37*
G36*
X100594559Y-81591631D02*
G01*
X100636290Y-81621436D01*
X100647625Y-81645485D01*
X100657448Y-81696254D01*
X100659738Y-81748198D01*
X100659738Y-81808771D01*
X100456528Y-81808771D01*
X100456528Y-81755770D01*
X100456538Y-81751008D01*
X100458261Y-81701200D01*
X100467030Y-81650013D01*
X100469866Y-81642991D01*
X100501468Y-81604095D01*
X100509157Y-81599099D01*
X100557889Y-81586754D01*
X100594559Y-81591631D01*
G37*
G36*
X100829259Y-80397743D02*
G01*
X100877667Y-80407893D01*
X100930172Y-80428286D01*
X100978399Y-80457888D01*
X101016332Y-80490592D01*
X101044196Y-80521648D01*
X101075271Y-80568433D01*
X101097090Y-80619074D01*
X101109652Y-80673573D01*
X101113053Y-80723355D01*
X101111889Y-80753153D01*
X101104250Y-80803242D01*
X101089482Y-80850713D01*
X101067585Y-80895566D01*
X101038558Y-80937801D01*
X101020049Y-80959276D01*
X100979411Y-80995889D01*
X100933948Y-81024054D01*
X100883659Y-81043769D01*
X100828544Y-81055034D01*
X100778928Y-81057968D01*
X100769789Y-81057875D01*
X100717067Y-81053398D01*
X100667968Y-81042207D01*
X100622493Y-81024301D01*
X100574019Y-80994924D01*
X100536395Y-80962469D01*
X100503940Y-80925086D01*
X100474563Y-80877500D01*
X100454326Y-80825636D01*
X100444254Y-80777777D01*
X100440896Y-80726775D01*
X100443287Y-80684447D01*
X100454669Y-80628635D01*
X100475424Y-80576843D01*
X100505553Y-80529072D01*
X100538838Y-80491325D01*
X100577002Y-80458372D01*
X100625392Y-80428544D01*
X100677942Y-80407996D01*
X100726296Y-80397769D01*
X100777707Y-80394360D01*
X100829259Y-80397743D01*
G37*
G36*
X101411742Y-82909309D02*
G01*
X100142207Y-82909309D01*
X100142207Y-82594256D01*
X100268949Y-82594256D01*
X100268949Y-82798198D01*
X101285000Y-82798198D01*
X101285000Y-82605979D01*
X100847316Y-82605979D01*
X100846767Y-82554053D01*
X100844737Y-82501590D01*
X100840584Y-82452337D01*
X100831685Y-82403258D01*
X100822105Y-82374609D01*
X100799661Y-82327911D01*
X100770533Y-82287472D01*
X100734720Y-82253293D01*
X100707372Y-82234451D01*
X100661680Y-82213497D01*
X100610385Y-82201315D01*
X100560087Y-82197849D01*
X100542556Y-82198221D01*
X100492825Y-82203791D01*
X100442597Y-82217821D01*
X100397665Y-82240103D01*
X100358901Y-82269541D01*
X100324746Y-82308921D01*
X100299480Y-82355630D01*
X100289104Y-82386270D01*
X100278609Y-82437248D01*
X100272557Y-82491346D01*
X100269695Y-82544767D01*
X100269590Y-82551757D01*
X100268949Y-82594256D01*
X100142207Y-82594256D01*
X100142207Y-81797047D01*
X100268949Y-81797047D01*
X100268949Y-82000990D01*
X101285000Y-82000990D01*
X101285000Y-81808771D01*
X100847316Y-81808771D01*
X100847316Y-81790697D01*
X101285000Y-81563307D01*
X101285000Y-81353258D01*
X100826067Y-81592371D01*
X100819372Y-81574755D01*
X100795888Y-81527033D01*
X100763812Y-81483026D01*
X100725439Y-81448512D01*
X100708323Y-81437292D01*
X100661092Y-81415788D01*
X100613159Y-81404428D01*
X100560087Y-81400641D01*
X100542677Y-81401021D01*
X100493099Y-81406720D01*
X100442681Y-81421074D01*
X100397177Y-81443872D01*
X100357969Y-81473634D01*
X100323711Y-81512709D01*
X100298747Y-81558422D01*
X100288620Y-81588466D01*
X100278377Y-81639078D01*
X100272470Y-81693256D01*
X100269677Y-81747043D01*
X100269550Y-81755770D01*
X100268949Y-81797047D01*
X100142207Y-81797047D01*
X100142207Y-80724821D01*
X100253318Y-80724821D01*
X100253348Y-80726775D01*
X100253592Y-80742424D01*
X100257714Y-80794354D01*
X100266782Y-80844961D01*
X100280795Y-80894245D01*
X100299754Y-80942207D01*
X100323660Y-80988847D01*
X100332616Y-81003968D01*
X100361823Y-81046870D01*
X100394532Y-81086080D01*
X100430745Y-81121597D01*
X100470461Y-81153422D01*
X100513681Y-81181555D01*
X100528762Y-81190043D01*
X100575092Y-81212223D01*
X100623055Y-81229473D01*
X100672648Y-81241795D01*
X100723874Y-81249188D01*
X100776730Y-81251653D01*
X100829189Y-81249302D01*
X100879831Y-81242249D01*
X100928657Y-81230495D01*
X100975666Y-81214039D01*
X101020858Y-81192882D01*
X101064234Y-81167023D01*
X101105794Y-81136462D01*
X101145537Y-81101199D01*
X101181887Y-81062384D01*
X101213391Y-81021164D01*
X101240047Y-80977540D01*
X101261857Y-80931511D01*
X101278821Y-80883079D01*
X101290938Y-80832242D01*
X101298208Y-80779001D01*
X101300631Y-80723355D01*
X101298269Y-80670088D01*
X101291182Y-80618850D01*
X101279370Y-80569643D01*
X101262834Y-80522466D01*
X101241574Y-80477319D01*
X101215589Y-80434202D01*
X101184879Y-80393116D01*
X101149445Y-80354060D01*
X101110599Y-80318397D01*
X101069654Y-80287489D01*
X101026610Y-80261336D01*
X100981467Y-80239938D01*
X100934225Y-80223295D01*
X100884884Y-80211407D01*
X100833444Y-80204274D01*
X100779905Y-80201897D01*
X100725878Y-80204309D01*
X100673950Y-80211544D01*
X100624120Y-80223604D01*
X100576390Y-80240487D01*
X100530759Y-80262194D01*
X100487226Y-80288725D01*
X100445793Y-80320080D01*
X100406458Y-80356258D01*
X100370566Y-80395730D01*
X100339459Y-80437087D01*
X100313138Y-80480330D01*
X100291603Y-80525458D01*
X100274853Y-80572471D01*
X100262889Y-80621369D01*
X100255711Y-80672152D01*
X100253318Y-80724821D01*
X100142207Y-80724821D01*
X100142207Y-79530229D01*
X100253318Y-79530229D01*
X100256039Y-79591763D01*
X100264202Y-79650335D01*
X100277807Y-79705947D01*
X100296854Y-79758596D01*
X100321343Y-79808284D01*
X100351274Y-79855011D01*
X100386648Y-79898776D01*
X100427463Y-79939580D01*
X100445981Y-79955640D01*
X100494031Y-79991257D01*
X100544585Y-80020398D01*
X100597643Y-80043063D01*
X100653206Y-80059252D01*
X100711274Y-80068966D01*
X100771845Y-80072204D01*
X100789812Y-80071923D01*
X100842798Y-80067716D01*
X100894409Y-80058460D01*
X100944647Y-80044154D01*
X100993511Y-80024800D01*
X101041001Y-80000397D01*
X101056378Y-79991220D01*
X101099818Y-79961287D01*
X101139222Y-79927748D01*
X101174590Y-79890602D01*
X101205923Y-79849849D01*
X101233220Y-79805491D01*
X101241383Y-79789940D01*
X101262712Y-79741698D01*
X101279302Y-79691068D01*
X101291151Y-79638051D01*
X101298261Y-79582647D01*
X101300631Y-79524856D01*
X101298459Y-79471049D01*
X101291941Y-79419904D01*
X101281079Y-79371421D01*
X101262915Y-79318221D01*
X101238838Y-79268645D01*
X101218174Y-79235447D01*
X101184696Y-79192315D01*
X101145912Y-79153087D01*
X101101822Y-79117763D01*
X101059808Y-79090592D01*
X101022761Y-79070820D01*
X100977423Y-79051517D01*
X100923314Y-79035096D01*
X100867896Y-79025244D01*
X100811168Y-79021960D01*
X100769159Y-79023425D01*
X100769159Y-79531695D01*
X100956737Y-79531695D01*
X100956737Y-79239092D01*
X100966645Y-79244446D01*
X101011177Y-79274308D01*
X101047360Y-79309323D01*
X101075195Y-79349489D01*
X101084068Y-79367018D01*
X101101074Y-79415146D01*
X101110058Y-79463723D01*
X101113053Y-79517284D01*
X101112665Y-79536237D01*
X101106855Y-79590817D01*
X101094072Y-79641979D01*
X101074317Y-79689723D01*
X101047590Y-79734051D01*
X101013890Y-79774960D01*
X101001324Y-79787589D01*
X100961576Y-79820588D01*
X100918754Y-79846254D01*
X100872859Y-79864586D01*
X100823889Y-79875586D01*
X100771845Y-79879252D01*
X100729735Y-79876795D01*
X100674186Y-79865101D01*
X100622611Y-79843777D01*
X100575010Y-79812822D01*
X100537372Y-79778624D01*
X100525690Y-79765856D01*
X100495164Y-79725272D01*
X100471422Y-79681271D01*
X100454463Y-79633853D01*
X100444288Y-79583017D01*
X100440896Y-79528764D01*
X100441416Y-79507558D01*
X100447266Y-79455998D01*
X100459615Y-79406512D01*
X100478464Y-79359102D01*
X100503813Y-79313767D01*
X100535661Y-79270507D01*
X100574009Y-79229322D01*
X100441629Y-79094011D01*
X100423508Y-79111448D01*
X100385248Y-79152401D01*
X100352622Y-79193727D01*
X100325629Y-79235428D01*
X100301678Y-79283544D01*
X100287746Y-79319834D01*
X100272208Y-79372044D01*
X100261299Y-79425889D01*
X100255018Y-79481371D01*
X100253318Y-79530229D01*
X100142207Y-79530229D01*
X100142207Y-78910849D01*
X101411742Y-78910849D01*
X101411742Y-82909309D01*
G37*
D14*
G36*
X111399559Y-91457169D02*
G01*
X111441290Y-91486974D01*
X111452625Y-91511023D01*
X111462448Y-91561792D01*
X111464738Y-91613736D01*
X111464738Y-91674309D01*
X111261528Y-91674309D01*
X111261528Y-91621308D01*
X111261538Y-91616546D01*
X111263261Y-91566738D01*
X111272030Y-91515551D01*
X111274866Y-91508529D01*
X111306468Y-91469633D01*
X111314157Y-91464637D01*
X111362889Y-91452292D01*
X111399559Y-91457169D01*
G37*
G36*
X111395945Y-89525690D02*
G01*
X111436650Y-89554036D01*
X111441670Y-89560720D01*
X111460102Y-89607095D01*
X111464738Y-89658084D01*
X111464738Y-89660282D01*
X111464738Y-89700094D01*
X111261528Y-89700094D01*
X111261528Y-89650512D01*
X111266623Y-89599261D01*
X111288150Y-89552327D01*
X111310613Y-89532681D01*
X111359958Y-89520087D01*
X111395945Y-89525690D01*
G37*
G36*
X111784943Y-89449297D02*
G01*
X111833361Y-89459637D01*
X111871402Y-89490778D01*
X111876946Y-89499250D01*
X111893667Y-89546877D01*
X111900482Y-89597023D01*
X111902421Y-89651978D01*
X111902421Y-89700094D01*
X111636685Y-89700094D01*
X111636685Y-89660282D01*
X111636836Y-89646368D01*
X111640477Y-89595749D01*
X111651855Y-89543809D01*
X111675519Y-89498105D01*
X111688277Y-89484032D01*
X111731420Y-89457318D01*
X111781277Y-89449256D01*
X111784943Y-89449297D01*
G37*
G36*
X112216742Y-91977639D02*
G01*
X110947207Y-91977639D01*
X110947207Y-91662585D01*
X111073949Y-91662585D01*
X111073949Y-91866528D01*
X112090000Y-91866528D01*
X112090000Y-91674309D01*
X111652316Y-91674309D01*
X111652316Y-91656235D01*
X112090000Y-91428845D01*
X112090000Y-91218796D01*
X111631067Y-91457909D01*
X111624372Y-91440293D01*
X111600888Y-91392571D01*
X111568812Y-91348564D01*
X111530439Y-91314050D01*
X111513323Y-91302831D01*
X111466092Y-91281326D01*
X111418159Y-91269966D01*
X111365087Y-91266179D01*
X111347677Y-91266559D01*
X111298099Y-91272258D01*
X111247681Y-91286612D01*
X111202177Y-91309410D01*
X111162969Y-91339172D01*
X111128711Y-91378247D01*
X111103747Y-91423960D01*
X111093620Y-91454004D01*
X111083377Y-91504616D01*
X111077470Y-91558794D01*
X111074677Y-91612581D01*
X111074550Y-91621308D01*
X111073949Y-91662585D01*
X110947207Y-91662585D01*
X110947207Y-90571064D01*
X111058318Y-90571064D01*
X111061039Y-90632598D01*
X111069202Y-90691170D01*
X111082807Y-90746781D01*
X111101854Y-90799431D01*
X111126343Y-90849119D01*
X111156274Y-90895846D01*
X111191648Y-90939611D01*
X111232463Y-90980415D01*
X111250981Y-90996475D01*
X111299031Y-91032091D01*
X111349585Y-91061232D01*
X111402643Y-91083898D01*
X111458206Y-91100087D01*
X111516274Y-91109801D01*
X111576845Y-91113039D01*
X111594812Y-91112758D01*
X111647798Y-91108551D01*
X111699409Y-91099294D01*
X111749647Y-91084989D01*
X111798511Y-91065634D01*
X111846001Y-91041231D01*
X111861378Y-91032055D01*
X111904818Y-91002122D01*
X111944222Y-90968582D01*
X111979590Y-90931436D01*
X112010923Y-90890684D01*
X112038220Y-90846325D01*
X112046383Y-90830775D01*
X112067712Y-90782532D01*
X112084302Y-90731902D01*
X112096151Y-90678885D01*
X112103261Y-90623481D01*
X112105631Y-90565690D01*
X112103459Y-90511883D01*
X112096941Y-90460738D01*
X112086079Y-90412255D01*
X112067915Y-90359056D01*
X112043838Y-90309480D01*
X112023174Y-90276281D01*
X111989696Y-90233150D01*
X111950912Y-90193922D01*
X111906822Y-90158598D01*
X111864808Y-90131427D01*
X111827761Y-90111655D01*
X111782423Y-90092352D01*
X111728314Y-90075931D01*
X111672896Y-90066078D01*
X111616168Y-90062794D01*
X111574159Y-90064260D01*
X111574159Y-90572529D01*
X111761737Y-90572529D01*
X111761737Y-90279926D01*
X111771645Y-90285280D01*
X111816177Y-90315143D01*
X111852360Y-90350157D01*
X111880195Y-90390324D01*
X111889068Y-90407852D01*
X111906074Y-90455980D01*
X111915058Y-90504557D01*
X111918053Y-90558119D01*
X111917665Y-90577072D01*
X111911855Y-90631651D01*
X111899072Y-90682813D01*
X111879317Y-90730558D01*
X111852590Y-90774885D01*
X111818890Y-90815795D01*
X111806324Y-90828424D01*
X111766576Y-90861423D01*
X111723754Y-90887088D01*
X111677859Y-90905421D01*
X111628889Y-90916420D01*
X111576845Y-90920087D01*
X111534735Y-90917630D01*
X111479186Y-90905936D01*
X111427611Y-90884611D01*
X111380010Y-90853656D01*
X111342372Y-90819459D01*
X111330690Y-90806690D01*
X111300164Y-90766107D01*
X111276422Y-90722106D01*
X111259463Y-90674688D01*
X111249288Y-90623852D01*
X111245896Y-90569598D01*
X111246416Y-90548393D01*
X111252266Y-90496832D01*
X111264615Y-90447347D01*
X111283464Y-90399937D01*
X111308813Y-90354602D01*
X111340661Y-90311341D01*
X111379009Y-90270157D01*
X111246629Y-90134846D01*
X111228508Y-90152283D01*
X111190248Y-90193235D01*
X111157622Y-90234562D01*
X111130629Y-90276263D01*
X111106678Y-90324378D01*
X111092746Y-90360669D01*
X111077208Y-90412878D01*
X111066299Y-90466724D01*
X111060018Y-90522206D01*
X111058318Y-90571064D01*
X110947207Y-90571064D01*
X110947207Y-89733555D01*
X111073949Y-89733555D01*
X111073949Y-89892313D01*
X112090000Y-89892313D01*
X112090000Y-89609235D01*
X112089135Y-89572360D01*
X112084155Y-89518719D01*
X112073260Y-89466254D01*
X112054584Y-89417749D01*
X112025994Y-89373062D01*
X111988918Y-89334378D01*
X111947850Y-89304420D01*
X111938846Y-89299097D01*
X111892048Y-89277630D01*
X111842293Y-89264750D01*
X111789581Y-89260457D01*
X111778379Y-89260624D01*
X111725204Y-89266467D01*
X111676751Y-89280659D01*
X111633021Y-89303199D01*
X111612873Y-89317690D01*
X111575798Y-89353936D01*
X111546101Y-89394836D01*
X111522623Y-89437777D01*
X111512338Y-89424515D01*
X111477700Y-89388004D01*
X111435429Y-89358398D01*
X111429586Y-89355440D01*
X111383089Y-89339340D01*
X111331870Y-89333974D01*
X111321030Y-89334184D01*
X111269519Y-89341530D01*
X111222493Y-89359371D01*
X111179951Y-89387707D01*
X111168217Y-89398063D01*
X111134252Y-89437294D01*
X111108206Y-89483777D01*
X111091535Y-89531810D01*
X111090453Y-89535867D01*
X111081523Y-89584410D01*
X111076852Y-89633686D01*
X111076094Y-89650512D01*
X111074567Y-89684416D01*
X111073949Y-89733555D01*
X110947207Y-89733555D01*
X110947207Y-89149346D01*
X112216742Y-89149346D01*
X112216742Y-91977639D01*
G37*
G36*
X119861343Y-135282106D02*
G01*
X119928462Y-135292785D01*
X119987705Y-135318720D01*
X120039071Y-135359910D01*
X120052633Y-135374920D01*
X120088205Y-135431081D01*
X120108955Y-135496668D01*
X120114958Y-135563755D01*
X120114291Y-135587377D01*
X120104286Y-135653086D01*
X120079090Y-135717024D01*
X120039071Y-135771411D01*
X120029432Y-135781023D01*
X119976620Y-135819782D01*
X119916118Y-135843038D01*
X119847927Y-135850789D01*
X119834132Y-135850474D01*
X119769252Y-135839448D01*
X119711194Y-135812670D01*
X119659958Y-135770140D01*
X119646339Y-135754628D01*
X119610619Y-135697277D01*
X119589782Y-135631243D01*
X119583754Y-135564390D01*
X119584412Y-135541563D01*
X119594291Y-135477768D01*
X119619172Y-135415133D01*
X119658688Y-135361180D01*
X119668204Y-135351568D01*
X119720291Y-135312809D01*
X119779881Y-135289553D01*
X119846974Y-135281801D01*
X119861343Y-135282106D01*
G37*
G36*
X124153795Y-135282109D02*
G01*
X124220584Y-135292875D01*
X124279312Y-135319020D01*
X124329979Y-135360545D01*
X124343313Y-135375669D01*
X124378290Y-135432127D01*
X124398692Y-135497887D01*
X124404595Y-135565025D01*
X124403928Y-135588199D01*
X124393923Y-135652898D01*
X124368727Y-135716302D01*
X124328709Y-135770775D01*
X124319073Y-135780465D01*
X124266391Y-135819534D01*
X124206206Y-135842976D01*
X124138517Y-135850789D01*
X124124383Y-135850481D01*
X124058369Y-135839671D01*
X124000106Y-135813421D01*
X123949595Y-135771728D01*
X123936260Y-135756477D01*
X123901284Y-135699473D01*
X123880881Y-135632981D01*
X123874979Y-135565025D01*
X123875640Y-135542141D01*
X123885561Y-135478210D01*
X123910547Y-135415482D01*
X123950230Y-135361498D01*
X123959825Y-135351847D01*
X124012264Y-135312933D01*
X124072146Y-135289584D01*
X124139469Y-135281801D01*
X124153795Y-135282109D01*
G37*
G36*
X125320073Y-135282106D02*
G01*
X125387192Y-135292785D01*
X125446434Y-135318720D01*
X125497801Y-135359910D01*
X125511363Y-135374920D01*
X125546935Y-135431081D01*
X125567685Y-135496668D01*
X125573688Y-135563755D01*
X125573021Y-135587377D01*
X125563016Y-135653086D01*
X125537819Y-135717024D01*
X125497801Y-135771411D01*
X125488162Y-135781023D01*
X125435350Y-135819782D01*
X125374848Y-135843038D01*
X125306657Y-135850789D01*
X125292862Y-135850474D01*
X125227982Y-135839448D01*
X125169924Y-135812670D01*
X125118688Y-135770140D01*
X125105069Y-135754628D01*
X125069349Y-135697277D01*
X125048512Y-135631243D01*
X125042484Y-135564390D01*
X125043142Y-135541563D01*
X125053021Y-135477768D01*
X125077902Y-135415133D01*
X125117418Y-135361180D01*
X125126934Y-135351568D01*
X125179021Y-135312809D01*
X125238611Y-135289553D01*
X125305704Y-135281801D01*
X125320073Y-135282106D01*
G37*
G36*
X127103241Y-135282106D02*
G01*
X127170360Y-135292785D01*
X127229603Y-135318720D01*
X127280969Y-135359910D01*
X127294531Y-135374920D01*
X127330103Y-135431081D01*
X127350853Y-135496668D01*
X127356856Y-135563755D01*
X127356189Y-135587377D01*
X127346184Y-135653086D01*
X127320988Y-135717024D01*
X127280969Y-135771411D01*
X127271330Y-135781023D01*
X127218518Y-135819782D01*
X127158016Y-135843038D01*
X127089825Y-135850789D01*
X127076030Y-135850474D01*
X127011151Y-135839448D01*
X126953092Y-135812670D01*
X126901856Y-135770140D01*
X126888237Y-135754628D01*
X126852517Y-135697277D01*
X126831680Y-135631243D01*
X126825652Y-135564390D01*
X126826311Y-135541563D01*
X126836190Y-135477768D01*
X126861070Y-135415133D01*
X126900586Y-135361180D01*
X126910102Y-135351568D01*
X126962189Y-135312809D01*
X127021779Y-135289553D01*
X127088872Y-135281801D01*
X127103241Y-135282106D01*
G37*
G36*
X122970684Y-135464888D02*
G01*
X123036489Y-135469621D01*
X123104011Y-135484411D01*
X123163426Y-135515175D01*
X123181720Y-135531760D01*
X123216449Y-135587846D01*
X123226929Y-135652660D01*
X123226876Y-135657426D01*
X123213435Y-135720370D01*
X123172951Y-135769823D01*
X123161938Y-135777029D01*
X123100022Y-135798767D01*
X123034832Y-135807627D01*
X122963391Y-135810147D01*
X122900840Y-135810147D01*
X122900840Y-135464690D01*
X122952595Y-135464690D01*
X122970684Y-135464888D01*
G37*
G36*
X123031922Y-134983611D02*
G01*
X123092937Y-135011595D01*
X123118478Y-135040797D01*
X123134849Y-135104945D01*
X123127566Y-135151728D01*
X123090715Y-135204645D01*
X123082027Y-135211171D01*
X123021738Y-135235133D01*
X122955453Y-135241159D01*
X122900840Y-135241159D01*
X122900840Y-134976986D01*
X122965296Y-134976986D01*
X123031922Y-134983611D01*
G37*
G36*
X127732451Y-136218765D02*
G01*
X117530723Y-136218765D01*
X117530723Y-136054000D01*
X117675167Y-136054000D01*
X117918702Y-136054000D01*
X118062536Y-135219886D01*
X118338457Y-136054000D01*
X118559131Y-136054000D01*
X118838545Y-135219886D01*
X118979839Y-136054000D01*
X119220833Y-136054000D01*
X119139321Y-135568200D01*
X119340854Y-135568200D01*
X119342063Y-135608007D01*
X119349447Y-135671611D01*
X119367170Y-135743413D01*
X119394559Y-135810281D01*
X119431615Y-135872216D01*
X119478339Y-135929216D01*
X119495723Y-135946787D01*
X119550256Y-135992699D01*
X119608361Y-136028408D01*
X119670039Y-136053915D01*
X119735288Y-136069219D01*
X119804110Y-136074321D01*
X119830010Y-136073600D01*
X119894594Y-136064977D01*
X119959692Y-136044792D01*
X120000185Y-136025243D01*
X120054019Y-135990036D01*
X120103210Y-135948584D01*
X120103210Y-136054000D01*
X120346109Y-136054000D01*
X120560115Y-136054000D01*
X120804602Y-136054000D01*
X120804602Y-135078591D01*
X121022418Y-135078591D01*
X121022418Y-136054000D01*
X121265317Y-136054000D01*
X121265317Y-135664725D01*
X121265834Y-135603538D01*
X121268364Y-135533735D01*
X121276113Y-135467866D01*
X121283261Y-135441509D01*
X121309321Y-135381690D01*
X121349459Y-135331334D01*
X121356208Y-135325336D01*
X121412050Y-135292685D01*
X121477100Y-135281801D01*
X121514216Y-135285328D01*
X121572990Y-135311648D01*
X121600844Y-135340405D01*
X121627602Y-135398647D01*
X121632890Y-135424068D01*
X121639742Y-135492012D01*
X121642416Y-135558769D01*
X121643161Y-135629163D01*
X121643161Y-136054000D01*
X121884155Y-136054000D01*
X121884155Y-135412618D01*
X121880098Y-135343083D01*
X121865527Y-135273289D01*
X121851930Y-135241159D01*
X122650956Y-135241159D01*
X122650956Y-135810147D01*
X122650956Y-136054000D01*
X123018956Y-136054000D01*
X123066894Y-136052875D01*
X123136628Y-136046401D01*
X123204832Y-136032239D01*
X123267889Y-136007960D01*
X123325982Y-135970792D01*
X123376271Y-135922594D01*
X123415216Y-135869205D01*
X123422137Y-135857499D01*
X123450043Y-135796663D01*
X123466787Y-135731982D01*
X123472369Y-135663455D01*
X123472152Y-135648893D01*
X123464555Y-135579765D01*
X123460889Y-135567248D01*
X123632079Y-135567248D01*
X123633377Y-135606340D01*
X123643758Y-135681174D01*
X123664521Y-135751543D01*
X123695664Y-135817448D01*
X123737189Y-135878887D01*
X123779724Y-135926676D01*
X123808003Y-135953061D01*
X123867775Y-135998047D01*
X123931834Y-136032651D01*
X124000179Y-136056874D01*
X124072811Y-136070716D01*
X124136612Y-136074321D01*
X124206068Y-136070133D01*
X124272508Y-136057572D01*
X124335932Y-136036635D01*
X124396339Y-136007325D01*
X124452282Y-135970572D01*
X124501993Y-135927311D01*
X124545473Y-135877540D01*
X124582721Y-135821260D01*
X124612587Y-135760615D01*
X124633920Y-135697747D01*
X124646720Y-135632656D01*
X124650806Y-135568200D01*
X124799584Y-135568200D01*
X124800793Y-135608007D01*
X124808177Y-135671611D01*
X124825900Y-135743413D01*
X124853289Y-135810281D01*
X124890345Y-135872216D01*
X124937069Y-135929216D01*
X124954453Y-135946787D01*
X125008986Y-135992699D01*
X125067091Y-136028408D01*
X125128769Y-136053915D01*
X125194018Y-136069219D01*
X125262840Y-136074321D01*
X125288740Y-136073600D01*
X125353324Y-136064977D01*
X125418422Y-136044792D01*
X125458915Y-136025243D01*
X125512749Y-135990036D01*
X125561939Y-135948584D01*
X125561939Y-136054000D01*
X125804839Y-136054000D01*
X125804839Y-135078591D01*
X125988363Y-135078591D01*
X125988363Y-136054000D01*
X126230310Y-136054000D01*
X126230310Y-135656470D01*
X126229675Y-135608525D01*
X126230432Y-135568200D01*
X126582752Y-135568200D01*
X126583961Y-135608007D01*
X126591345Y-135671611D01*
X126609068Y-135743413D01*
X126636457Y-135810281D01*
X126673514Y-135872216D01*
X126720237Y-135929216D01*
X126737621Y-135946787D01*
X126792154Y-135992699D01*
X126850259Y-136028408D01*
X126911937Y-136053915D01*
X126977186Y-136069219D01*
X127046008Y-136074321D01*
X127071908Y-136073600D01*
X127136492Y-136064977D01*
X127201591Y-136044792D01*
X127242083Y-136025243D01*
X127295917Y-135990036D01*
X127345108Y-135948584D01*
X127345108Y-136054000D01*
X127588007Y-136054000D01*
X127588007Y-134712813D01*
X127345108Y-134712813D01*
X127345108Y-135189404D01*
X127316068Y-135162229D01*
X127263671Y-135122996D01*
X127203178Y-135090974D01*
X127169060Y-135078231D01*
X127103037Y-135062869D01*
X127039023Y-135058270D01*
X127015472Y-135058830D01*
X126947499Y-135067220D01*
X126883544Y-135085680D01*
X126823608Y-135114208D01*
X126767690Y-135152804D01*
X126715792Y-135201470D01*
X126684611Y-135238455D01*
X126645634Y-135298678D01*
X126616012Y-135364594D01*
X126595745Y-135436202D01*
X126586000Y-135500225D01*
X126582934Y-135564390D01*
X126582752Y-135568200D01*
X126230432Y-135568200D01*
X126231037Y-135536016D01*
X126236068Y-135463471D01*
X126246358Y-135396450D01*
X126268412Y-135331969D01*
X126302820Y-135286330D01*
X126363667Y-135261480D01*
X126372671Y-135262007D01*
X126434155Y-135283071D01*
X126510041Y-135082084D01*
X126474985Y-135068526D01*
X126410976Y-135058270D01*
X126346600Y-135067240D01*
X126287463Y-135094150D01*
X126280525Y-135098725D01*
X126231270Y-135144705D01*
X126197288Y-135198612D01*
X126197288Y-135078591D01*
X125988363Y-135078591D01*
X125804839Y-135078591D01*
X125561939Y-135078591D01*
X125561939Y-135187499D01*
X125532900Y-135160726D01*
X125480503Y-135122110D01*
X125420010Y-135090657D01*
X125385892Y-135078037D01*
X125319868Y-135062825D01*
X125255854Y-135058270D01*
X125232304Y-135058830D01*
X125164330Y-135067220D01*
X125100376Y-135085680D01*
X125040440Y-135114208D01*
X124984522Y-135152804D01*
X124932623Y-135201470D01*
X124901442Y-135238455D01*
X124862466Y-135298678D01*
X124832844Y-135364594D01*
X124812576Y-135436202D01*
X124802832Y-135500225D01*
X124799766Y-135564390D01*
X124799584Y-135568200D01*
X124650806Y-135568200D01*
X124650987Y-135565343D01*
X124646740Y-135498565D01*
X124634000Y-135434129D01*
X124612766Y-135372035D01*
X124583039Y-135312283D01*
X124545869Y-135256757D01*
X124501993Y-135207344D01*
X124451408Y-135164043D01*
X124394117Y-135126854D01*
X124332598Y-135096848D01*
X124269016Y-135075416D01*
X124203369Y-135062557D01*
X124135659Y-135058270D01*
X124112056Y-135058784D01*
X124043302Y-135066486D01*
X123977628Y-135083431D01*
X123915035Y-135109619D01*
X123855523Y-135145049D01*
X123799092Y-135189722D01*
X123778868Y-135208908D01*
X123734016Y-135259445D01*
X123697319Y-135313657D01*
X123668776Y-135371543D01*
X123648389Y-135433104D01*
X123636157Y-135498339D01*
X123632211Y-135565025D01*
X123632079Y-135567248D01*
X123460889Y-135567248D01*
X123446105Y-135516777D01*
X123416803Y-135459928D01*
X123397965Y-135433736D01*
X123350846Y-135385538D01*
X123297675Y-135346932D01*
X123241852Y-135316411D01*
X123259092Y-135303040D01*
X123306557Y-135258010D01*
X123345045Y-135203057D01*
X123348890Y-135195462D01*
X123369820Y-135135016D01*
X123376796Y-135068431D01*
X123376524Y-135054339D01*
X123366973Y-134987375D01*
X123343780Y-134926241D01*
X123306943Y-134870936D01*
X123293481Y-134855682D01*
X123242480Y-134811528D01*
X123182053Y-134777668D01*
X123119609Y-134755995D01*
X123114335Y-134754589D01*
X123051229Y-134742980D01*
X122987170Y-134736907D01*
X122921221Y-134733938D01*
X122857341Y-134733134D01*
X122650956Y-134733134D01*
X122650956Y-135241159D01*
X121851930Y-135241159D01*
X121840359Y-135213815D01*
X121799378Y-135159240D01*
X121746155Y-135115066D01*
X121687454Y-135083513D01*
X121623276Y-135064581D01*
X121553621Y-135058270D01*
X121544823Y-135058376D01*
X121479623Y-135065887D01*
X121415819Y-135085259D01*
X121372198Y-135106022D01*
X121315760Y-135141742D01*
X121265317Y-135180514D01*
X121265317Y-135078591D01*
X121022418Y-135078591D01*
X120804602Y-135078591D01*
X120560115Y-135078591D01*
X120560115Y-136054000D01*
X120346109Y-136054000D01*
X120346109Y-135078591D01*
X120103210Y-135078591D01*
X120103210Y-135187499D01*
X120074170Y-135160726D01*
X120021773Y-135122110D01*
X119961280Y-135090657D01*
X119927162Y-135078037D01*
X119861139Y-135062825D01*
X119797124Y-135058270D01*
X119773574Y-135058830D01*
X119705601Y-135067220D01*
X119641646Y-135085680D01*
X119581710Y-135114208D01*
X119525792Y-135152804D01*
X119473893Y-135201470D01*
X119442712Y-135238455D01*
X119403736Y-135298678D01*
X119374114Y-135364594D01*
X119353846Y-135436202D01*
X119344102Y-135500225D01*
X119341036Y-135564390D01*
X119340854Y-135568200D01*
X119139321Y-135568200D01*
X119017534Y-134842360D01*
X120527093Y-134842360D01*
X120537209Y-134898601D01*
X120573133Y-134952220D01*
X120620481Y-134984582D01*
X120684263Y-134997307D01*
X120736147Y-134988860D01*
X120792854Y-134953173D01*
X120824109Y-134910752D01*
X120838576Y-134845852D01*
X120828460Y-134790206D01*
X120792536Y-134737262D01*
X120745397Y-134705127D01*
X120682358Y-134692492D01*
X120626275Y-134702190D01*
X120572498Y-134736627D01*
X120541459Y-134778431D01*
X120527093Y-134842360D01*
X119017534Y-134842360D01*
X118999207Y-134733134D01*
X118758213Y-134733134D01*
X118450223Y-135654565D01*
X118146678Y-134733134D01*
X117901873Y-134733134D01*
X117675167Y-136054000D01*
X117530723Y-136054000D01*
X117530723Y-134548048D01*
X127732451Y-134548048D01*
X127732451Y-136218765D01*
G37*
D13*
G36*
X83769914Y-107730630D02*
G01*
X83816263Y-107746357D01*
X83821861Y-107750577D01*
X83849724Y-107790809D01*
X83858085Y-107839748D01*
X83859738Y-107891193D01*
X83859738Y-107952253D01*
X83656528Y-107952253D01*
X83656528Y-107898031D01*
X83657005Y-107871474D01*
X83661413Y-107822743D01*
X83676067Y-107775666D01*
X83710200Y-107741594D01*
X83759842Y-107730237D01*
X83769914Y-107730630D01*
G37*
G36*
X84078579Y-106192484D02*
G01*
X83734685Y-106057662D01*
X84078579Y-105923816D01*
X84078579Y-106192484D01*
G37*
G36*
X83794559Y-105006433D02*
G01*
X83836290Y-105036238D01*
X83847625Y-105060287D01*
X83857448Y-105111055D01*
X83859738Y-105163000D01*
X83859738Y-105223572D01*
X83656528Y-105223572D01*
X83656528Y-105170571D01*
X83656538Y-105165810D01*
X83658261Y-105116002D01*
X83667030Y-105064814D01*
X83669866Y-105057792D01*
X83701468Y-105018897D01*
X83709157Y-105013901D01*
X83757889Y-105001555D01*
X83794559Y-105006433D01*
G37*
G36*
X84611742Y-108870343D02*
G01*
X83357838Y-108870343D01*
X83357838Y-108567013D01*
X83468949Y-108567013D01*
X83468949Y-108759232D01*
X84485000Y-108759232D01*
X84485000Y-108286622D01*
X84297421Y-108286622D01*
X84297421Y-108567013D01*
X83468949Y-108567013D01*
X83357838Y-108567013D01*
X83357838Y-107940530D01*
X83468949Y-107940530D01*
X83468949Y-108144472D01*
X84485000Y-108144472D01*
X84485000Y-107952253D01*
X84047316Y-107952253D01*
X84046767Y-107900327D01*
X84044737Y-107847864D01*
X84040584Y-107798611D01*
X84031685Y-107749532D01*
X84022105Y-107720883D01*
X83999661Y-107674185D01*
X83970533Y-107633746D01*
X83934720Y-107599567D01*
X83907372Y-107580725D01*
X83861680Y-107559771D01*
X83810385Y-107547589D01*
X83760087Y-107544123D01*
X83742556Y-107544495D01*
X83692825Y-107550065D01*
X83642597Y-107564095D01*
X83597665Y-107586377D01*
X83558901Y-107615815D01*
X83524746Y-107655195D01*
X83499480Y-107701904D01*
X83489104Y-107732544D01*
X83478609Y-107783522D01*
X83472557Y-107837620D01*
X83469695Y-107891041D01*
X83469590Y-107898031D01*
X83468949Y-107940530D01*
X83357838Y-107940530D01*
X83357838Y-106876119D01*
X83468949Y-106876119D01*
X84094211Y-106876119D01*
X84129754Y-106876617D01*
X84183052Y-106880117D01*
X84230987Y-106890285D01*
X84255980Y-106903955D01*
X84289849Y-106941088D01*
X84306504Y-106978547D01*
X84313053Y-107028527D01*
X84310133Y-107062622D01*
X84292292Y-107110592D01*
X84277957Y-107129951D01*
X84236849Y-107159441D01*
X84219231Y-107165151D01*
X84169970Y-107172364D01*
X84118147Y-107174096D01*
X83468949Y-107174096D01*
X83468949Y-107367292D01*
X84069054Y-107367292D01*
X84112369Y-107366746D01*
X84171245Y-107363881D01*
X84222805Y-107358560D01*
X84273712Y-107349248D01*
X84324532Y-107332365D01*
X84338462Y-107325365D01*
X84381700Y-107296170D01*
X84420025Y-107257959D01*
X84450317Y-107215861D01*
X84469922Y-107178815D01*
X84488053Y-107127201D01*
X84497486Y-107077559D01*
X84500631Y-107024375D01*
X84498544Y-106978874D01*
X84490327Y-106927670D01*
X84474253Y-106877340D01*
X84457174Y-106842936D01*
X84427430Y-106800730D01*
X84393164Y-106765722D01*
X84369030Y-106746060D01*
X84326732Y-106719315D01*
X84279591Y-106700264D01*
X84228156Y-106690391D01*
X84176972Y-106685785D01*
X84122669Y-106683533D01*
X84069054Y-106682923D01*
X83468949Y-106682923D01*
X83468949Y-106876119D01*
X83357838Y-106876119D01*
X83357838Y-105961674D01*
X83468949Y-105961674D01*
X83468949Y-106057662D01*
X83468949Y-106156580D01*
X84485000Y-106546147D01*
X84485000Y-106346357D01*
X84266158Y-106263802D01*
X84266158Y-105851765D01*
X84485000Y-105772630D01*
X84485000Y-105572839D01*
X83468949Y-105961674D01*
X83357838Y-105961674D01*
X83357838Y-105211849D01*
X83468949Y-105211849D01*
X83468949Y-105415791D01*
X84485000Y-105415791D01*
X84485000Y-105223572D01*
X84047316Y-105223572D01*
X84047316Y-105205498D01*
X84485000Y-104978108D01*
X84485000Y-104768059D01*
X84026067Y-105007173D01*
X84019372Y-104989557D01*
X83995888Y-104941834D01*
X83963812Y-104897828D01*
X83925439Y-104863314D01*
X83908323Y-104852094D01*
X83861092Y-104830589D01*
X83813159Y-104819229D01*
X83760087Y-104815442D01*
X83742677Y-104815822D01*
X83693099Y-104821522D01*
X83642681Y-104835876D01*
X83597177Y-104858673D01*
X83557969Y-104888436D01*
X83523711Y-104927510D01*
X83498747Y-104973223D01*
X83488620Y-105003268D01*
X83478377Y-105053880D01*
X83472470Y-105108057D01*
X83469677Y-105161844D01*
X83469550Y-105170571D01*
X83468949Y-105211849D01*
X83357838Y-105211849D01*
X83357838Y-104716524D01*
X83468949Y-104716524D01*
X83656528Y-104716524D01*
X83656528Y-104537250D01*
X84485000Y-104537250D01*
X84485000Y-104342100D01*
X83656528Y-104342100D01*
X83656528Y-104158185D01*
X83468949Y-104158185D01*
X83468949Y-104716524D01*
X83357838Y-104716524D01*
X83357838Y-104047074D01*
X84611742Y-104047074D01*
X84611742Y-108870343D01*
G37*
D14*
G36*
X102790945Y-125089371D02*
G01*
X102831650Y-125117717D01*
X102836670Y-125124401D01*
X102855102Y-125170776D01*
X102859738Y-125221765D01*
X102859738Y-125223963D01*
X102859738Y-125263775D01*
X102656528Y-125263775D01*
X102656528Y-125214193D01*
X102661623Y-125162942D01*
X102683150Y-125116008D01*
X102705613Y-125096361D01*
X102754958Y-125083768D01*
X102790945Y-125089371D01*
G37*
G36*
X103179943Y-125012978D02*
G01*
X103228361Y-125023317D01*
X103266402Y-125054458D01*
X103271946Y-125062931D01*
X103288667Y-125110558D01*
X103295482Y-125160704D01*
X103297421Y-125215659D01*
X103297421Y-125263775D01*
X103031685Y-125263775D01*
X103031685Y-125223963D01*
X103031836Y-125210049D01*
X103035477Y-125159429D01*
X103046855Y-125107490D01*
X103070519Y-125061786D01*
X103083277Y-125047713D01*
X103126420Y-125020999D01*
X103176277Y-125012937D01*
X103179943Y-125012978D01*
G37*
G36*
X103016053Y-122382442D02*
G01*
X102999368Y-122374477D01*
X102957191Y-122349530D01*
X102919333Y-122313809D01*
X102896149Y-122274983D01*
X102880564Y-122227922D01*
X102875369Y-122176301D01*
X102877812Y-122141374D01*
X102890635Y-122093105D01*
X102914448Y-122049783D01*
X102929927Y-122030537D01*
X102969120Y-121997558D01*
X103016053Y-121976510D01*
X103016053Y-122382442D01*
G37*
G36*
X103611742Y-125567105D02*
G01*
X102357838Y-125567105D01*
X102357838Y-125297236D01*
X102468949Y-125297236D01*
X102468949Y-125455994D01*
X103485000Y-125455994D01*
X103485000Y-125172916D01*
X103484135Y-125136041D01*
X103479155Y-125082399D01*
X103468260Y-125029935D01*
X103449584Y-124981430D01*
X103420994Y-124936743D01*
X103383918Y-124898059D01*
X103342850Y-124868101D01*
X103333846Y-124862777D01*
X103287048Y-124841311D01*
X103237293Y-124828431D01*
X103184581Y-124824137D01*
X103173379Y-124824304D01*
X103120204Y-124830148D01*
X103071751Y-124844340D01*
X103028021Y-124866880D01*
X103007873Y-124881371D01*
X102970798Y-124917616D01*
X102941101Y-124958517D01*
X102917623Y-125001458D01*
X102907338Y-124988196D01*
X102872700Y-124951685D01*
X102830429Y-124922079D01*
X102824586Y-124919121D01*
X102778089Y-124903021D01*
X102726870Y-124897654D01*
X102716030Y-124897864D01*
X102664519Y-124905211D01*
X102617493Y-124923052D01*
X102574951Y-124951388D01*
X102563217Y-124961743D01*
X102529252Y-125000975D01*
X102503206Y-125047457D01*
X102486535Y-125095491D01*
X102485453Y-125099548D01*
X102476523Y-125148091D01*
X102471852Y-125197367D01*
X102471094Y-125214193D01*
X102469567Y-125248097D01*
X102468949Y-125297236D01*
X102357838Y-125297236D01*
X102357838Y-124197166D01*
X102734685Y-124197166D01*
X103102027Y-124197166D01*
X103139193Y-124197578D01*
X103189649Y-124200097D01*
X103240512Y-124208890D01*
X103270165Y-124223018D01*
X103306458Y-124257250D01*
X103320849Y-124285981D01*
X103328684Y-124336384D01*
X103325490Y-124369460D01*
X103305969Y-124415275D01*
X103286358Y-124436650D01*
X103242222Y-124461437D01*
X103202380Y-124470218D01*
X103149927Y-124474707D01*
X103095676Y-124475847D01*
X102734685Y-124475847D01*
X102734685Y-124665624D01*
X103045607Y-124665624D01*
X103088632Y-124665280D01*
X103137540Y-124663885D01*
X103189083Y-124660794D01*
X103239362Y-124655234D01*
X103292780Y-124643642D01*
X103322338Y-124632857D01*
X103370251Y-124607945D01*
X103411364Y-124575962D01*
X103445676Y-124536908D01*
X103472241Y-124490452D01*
X103488556Y-124442897D01*
X103498001Y-124389450D01*
X103500631Y-124337850D01*
X103498982Y-124296751D01*
X103491655Y-124246307D01*
X103476405Y-124195507D01*
X103453736Y-124151004D01*
X103441314Y-124133186D01*
X103404683Y-124093549D01*
X103364903Y-124063871D01*
X103318670Y-124039874D01*
X103268365Y-124024879D01*
X103215722Y-124016609D01*
X103161185Y-124011884D01*
X103109100Y-124009612D01*
X103050980Y-124008855D01*
X102734685Y-124008855D01*
X102734685Y-124197166D01*
X102357838Y-124197166D01*
X102357838Y-123856936D01*
X102734685Y-123856936D01*
X102891001Y-123856936D01*
X102891001Y-123570439D01*
X103485000Y-123908471D01*
X103485000Y-123302504D01*
X103328684Y-123302504D01*
X103328684Y-123620020D01*
X102734685Y-123283454D01*
X102734685Y-123856936D01*
X102357838Y-123856936D01*
X102357838Y-123213112D01*
X102734685Y-123213112D01*
X102891001Y-123213112D01*
X102891001Y-122926615D01*
X103485000Y-123264647D01*
X103485000Y-122658680D01*
X103328684Y-122658680D01*
X103328684Y-122976196D01*
X102734685Y-122639629D01*
X102734685Y-123213112D01*
X102357838Y-123213112D01*
X102357838Y-122185338D01*
X102719054Y-122185338D01*
X102720041Y-122215989D01*
X102726076Y-122264900D01*
X102740559Y-122320003D01*
X102762941Y-122371191D01*
X102793224Y-122418464D01*
X102831406Y-122461821D01*
X102860398Y-122487638D01*
X102907278Y-122519909D01*
X102958229Y-122544436D01*
X103013249Y-122561217D01*
X103062209Y-122569285D01*
X103113995Y-122571974D01*
X103144646Y-122571004D01*
X103193557Y-122565074D01*
X103248660Y-122550843D01*
X103299848Y-122528850D01*
X103347121Y-122499094D01*
X103390478Y-122461576D01*
X103422211Y-122425409D01*
X103453192Y-122377804D01*
X103476427Y-122325614D01*
X103489874Y-122278620D01*
X103497942Y-122228442D01*
X103500631Y-122175079D01*
X103498738Y-122126982D01*
X103491937Y-122075649D01*
X103480190Y-122028194D01*
X103461064Y-121979441D01*
X103444615Y-121949307D01*
X103414241Y-121907198D01*
X103377029Y-121868799D01*
X103338210Y-121837780D01*
X103264937Y-121995805D01*
X103299665Y-122035403D01*
X103324471Y-122078726D01*
X103339354Y-122125773D01*
X103344316Y-122176545D01*
X103339354Y-122228447D01*
X103322437Y-122278486D01*
X103293513Y-122321137D01*
X103254430Y-122354927D01*
X103207036Y-122378386D01*
X103156737Y-122390746D01*
X103156737Y-121788199D01*
X103121810Y-121787466D01*
X103077549Y-121789195D01*
X103025335Y-121796218D01*
X102976579Y-121808644D01*
X102922638Y-121830686D01*
X102873677Y-121860507D01*
X102829696Y-121898108D01*
X102797822Y-121934294D01*
X102766703Y-121981967D01*
X102743365Y-122034277D01*
X102729859Y-122081410D01*
X102721755Y-122131764D01*
X102719510Y-122176301D01*
X102719054Y-122185338D01*
X102357838Y-122185338D01*
X102357838Y-121360041D01*
X102719054Y-121360041D01*
X102725954Y-121409561D01*
X102746653Y-121455052D01*
X102750173Y-121460389D01*
X102785542Y-121498277D01*
X102827009Y-121524417D01*
X102734685Y-121524417D01*
X102734685Y-121685128D01*
X103485000Y-121685128D01*
X103485000Y-121499015D01*
X103179207Y-121499015D01*
X103142327Y-121499504D01*
X103086551Y-121498456D01*
X103030747Y-121494586D01*
X102979192Y-121486671D01*
X102929591Y-121469706D01*
X102894485Y-121443238D01*
X102875369Y-121396433D01*
X102875775Y-121389507D01*
X102891978Y-121342211D01*
X102737372Y-121283837D01*
X102726943Y-121310804D01*
X102719054Y-121360041D01*
X102357838Y-121360041D01*
X102357838Y-121172726D01*
X103611742Y-121172726D01*
X103611742Y-125567105D01*
G37*
D13*
G36*
X129310945Y-102921917D02*
G01*
X129351650Y-102950264D01*
X129356670Y-102956947D01*
X129375102Y-103003323D01*
X129379738Y-103054311D01*
X129379738Y-103056509D01*
X129379738Y-103096321D01*
X129176528Y-103096321D01*
X129176528Y-103046740D01*
X129181623Y-102995489D01*
X129203150Y-102948554D01*
X129225613Y-102928908D01*
X129274958Y-102916314D01*
X129310945Y-102921917D01*
G37*
G36*
X129699943Y-102845524D02*
G01*
X129748361Y-102855864D01*
X129786402Y-102887005D01*
X129791946Y-102895477D01*
X129808667Y-102943104D01*
X129815482Y-102993251D01*
X129817421Y-103048205D01*
X129817421Y-103096321D01*
X129551685Y-103096321D01*
X129551685Y-103056509D01*
X129551836Y-103042595D01*
X129555477Y-102991976D01*
X129566855Y-102940036D01*
X129590519Y-102894332D01*
X129603277Y-102880260D01*
X129646420Y-102853546D01*
X129696277Y-102845484D01*
X129699943Y-102845524D01*
G37*
G36*
X130131742Y-105030461D02*
G01*
X128862207Y-105030461D01*
X128862207Y-104428177D01*
X128988949Y-104428177D01*
X129614211Y-104428177D01*
X129649754Y-104428675D01*
X129703052Y-104432175D01*
X129750987Y-104442343D01*
X129775980Y-104456013D01*
X129809849Y-104493146D01*
X129826504Y-104530605D01*
X129833053Y-104580585D01*
X129830133Y-104614680D01*
X129812292Y-104662650D01*
X129797957Y-104682009D01*
X129756849Y-104711499D01*
X129739231Y-104717209D01*
X129689970Y-104724422D01*
X129638147Y-104726154D01*
X128988949Y-104726154D01*
X128988949Y-104919350D01*
X129589054Y-104919350D01*
X129632369Y-104918804D01*
X129691245Y-104915939D01*
X129742805Y-104910618D01*
X129793712Y-104901306D01*
X129844532Y-104884423D01*
X129858462Y-104877423D01*
X129901700Y-104848228D01*
X129940025Y-104810017D01*
X129970317Y-104767919D01*
X129989922Y-104730873D01*
X130008053Y-104679259D01*
X130017486Y-104629617D01*
X130020631Y-104576433D01*
X130018544Y-104530932D01*
X130010327Y-104479728D01*
X129994253Y-104429399D01*
X129977174Y-104394994D01*
X129947430Y-104352788D01*
X129913164Y-104317780D01*
X129889030Y-104298118D01*
X129846732Y-104271373D01*
X129799591Y-104252322D01*
X129748156Y-104242449D01*
X129696972Y-104237843D01*
X129642669Y-104235591D01*
X129589054Y-104234981D01*
X128988949Y-104234981D01*
X128988949Y-104428177D01*
X128862207Y-104428177D01*
X128862207Y-103778980D01*
X128973318Y-103778980D01*
X128973390Y-103786286D01*
X128977928Y-103835385D01*
X128991758Y-103887118D01*
X129014808Y-103934181D01*
X129047079Y-103976572D01*
X129080645Y-104007692D01*
X129122441Y-104033899D01*
X129173841Y-104051448D01*
X129223422Y-104056440D01*
X129272483Y-104050754D01*
X129321601Y-104033697D01*
X129366304Y-104008324D01*
X129390135Y-103990437D01*
X129428426Y-103955819D01*
X129465824Y-103917254D01*
X129500216Y-103878845D01*
X129537542Y-103834736D01*
X129569515Y-103795344D01*
X129601968Y-103755823D01*
X129636267Y-103717197D01*
X129672585Y-103683237D01*
X129691407Y-103670958D01*
X129739508Y-103657835D01*
X129763992Y-103661818D01*
X129804965Y-103691541D01*
X129824165Y-103724025D01*
X129833053Y-103774583D01*
X129832503Y-103786373D01*
X129816429Y-103837277D01*
X129783456Y-103879573D01*
X129740179Y-103914303D01*
X129692369Y-103942378D01*
X129793485Y-104103823D01*
X129807926Y-104096619D01*
X129854622Y-104069976D01*
X129895334Y-104041113D01*
X129934535Y-104005408D01*
X129965921Y-103966803D01*
X129987238Y-103930433D01*
X130006953Y-103879791D01*
X130017212Y-103831110D01*
X130020631Y-103778980D01*
X130019391Y-103745240D01*
X130011251Y-103690144D01*
X129995515Y-103640073D01*
X129972182Y-103595028D01*
X129941252Y-103555009D01*
X129931135Y-103544598D01*
X129893141Y-103513450D01*
X129844796Y-103487926D01*
X129791200Y-103473150D01*
X129739996Y-103469036D01*
X129724460Y-103469417D01*
X129672548Y-103476764D01*
X129624469Y-103493460D01*
X129594270Y-103509884D01*
X129552802Y-103540138D01*
X129513583Y-103576258D01*
X129500134Y-103590559D01*
X129466107Y-103629796D01*
X129431463Y-103671203D01*
X129400010Y-103709371D01*
X129376650Y-103737272D01*
X129340895Y-103779027D01*
X129308018Y-103815729D01*
X129272759Y-103850299D01*
X129225621Y-103867396D01*
X129224069Y-103867372D01*
X129180924Y-103843460D01*
X129172162Y-103830515D01*
X129160896Y-103781422D01*
X129167735Y-103742862D01*
X129191778Y-103699848D01*
X129227681Y-103661936D01*
X129270317Y-103629015D01*
X129140868Y-103486865D01*
X129112480Y-103511473D01*
X129073111Y-103549705D01*
X129037725Y-103591037D01*
X129009466Y-103634877D01*
X128990403Y-103678335D01*
X128977589Y-103727791D01*
X128973318Y-103778980D01*
X128862207Y-103778980D01*
X128862207Y-103129782D01*
X128988949Y-103129782D01*
X128988949Y-103288540D01*
X130005000Y-103288540D01*
X130005000Y-103005463D01*
X130004135Y-102968588D01*
X129999155Y-102914946D01*
X129988260Y-102862481D01*
X129969584Y-102813976D01*
X129940994Y-102769289D01*
X129903918Y-102730606D01*
X129862850Y-102700648D01*
X129853846Y-102695324D01*
X129807048Y-102673857D01*
X129757293Y-102660977D01*
X129704581Y-102656684D01*
X129693379Y-102656851D01*
X129640204Y-102662695D01*
X129591751Y-102676886D01*
X129548021Y-102699426D01*
X129527873Y-102713918D01*
X129490798Y-102750163D01*
X129461101Y-102791063D01*
X129437623Y-102834004D01*
X129427338Y-102820743D01*
X129392700Y-102784231D01*
X129350429Y-102754625D01*
X129344586Y-102751668D01*
X129298089Y-102735568D01*
X129246870Y-102730201D01*
X129236030Y-102730411D01*
X129184519Y-102737757D01*
X129137493Y-102755598D01*
X129094951Y-102783934D01*
X129083217Y-102794290D01*
X129049252Y-102833521D01*
X129023206Y-102880004D01*
X129006535Y-102928038D01*
X129005453Y-102932094D01*
X128996523Y-102980638D01*
X128991852Y-103029914D01*
X128991094Y-103046740D01*
X128989567Y-103080644D01*
X128988949Y-103129782D01*
X128862207Y-103129782D01*
X128862207Y-102545573D01*
X130131742Y-102545573D01*
X130131742Y-105030461D01*
G37*
G36*
X84140945Y-119243243D02*
G01*
X84181650Y-119271590D01*
X84186670Y-119278273D01*
X84205102Y-119324649D01*
X84209738Y-119375637D01*
X84209738Y-119377835D01*
X84209738Y-119417647D01*
X84006528Y-119417647D01*
X84006528Y-119368066D01*
X84011623Y-119316815D01*
X84033150Y-119269880D01*
X84055613Y-119250234D01*
X84104958Y-119237640D01*
X84140945Y-119243243D01*
G37*
G36*
X84529943Y-119166850D02*
G01*
X84578361Y-119177190D01*
X84616402Y-119208331D01*
X84621946Y-119216803D01*
X84638667Y-119264430D01*
X84645482Y-119314576D01*
X84647421Y-119369531D01*
X84647421Y-119417647D01*
X84381685Y-119417647D01*
X84381685Y-119377835D01*
X84381836Y-119363921D01*
X84385477Y-119313302D01*
X84396855Y-119261362D01*
X84420519Y-119215658D01*
X84433277Y-119201585D01*
X84476420Y-119174871D01*
X84526277Y-119166809D01*
X84529943Y-119166850D01*
G37*
G36*
X84532600Y-115588578D02*
G01*
X84583591Y-115600746D01*
X84624706Y-115632127D01*
X84639648Y-115652585D01*
X84657660Y-115698206D01*
X84663053Y-115749119D01*
X84662051Y-115771179D01*
X84650070Y-115822115D01*
X84622020Y-115866600D01*
X84611414Y-115877076D01*
X84569787Y-115902741D01*
X84521147Y-115911297D01*
X84510573Y-115910880D01*
X84461951Y-115896304D01*
X84422962Y-115863913D01*
X84406878Y-115842131D01*
X84387489Y-115796098D01*
X84381685Y-115747165D01*
X84382693Y-115726431D01*
X84394745Y-115677768D01*
X84422962Y-115633837D01*
X84433533Y-115623189D01*
X84475461Y-115597103D01*
X84525055Y-115588408D01*
X84532600Y-115588578D01*
G37*
G36*
X84122032Y-115644339D02*
G01*
X84165041Y-115671206D01*
X84184910Y-115701927D01*
X84193333Y-115747165D01*
X84194106Y-115751317D01*
X84189229Y-115787317D01*
X84164553Y-115830941D01*
X84140247Y-115850587D01*
X84091036Y-115863181D01*
X84060296Y-115858887D01*
X84018984Y-115832650D01*
X84000798Y-115805063D01*
X83990896Y-115754737D01*
X83995451Y-115716170D01*
X84018496Y-115671694D01*
X84041348Y-115652346D01*
X84089815Y-115639943D01*
X84122032Y-115644339D01*
G37*
G36*
X84338913Y-114802239D02*
G01*
X84394206Y-114803950D01*
X84444204Y-114808106D01*
X84497213Y-114816321D01*
X84549419Y-114830354D01*
X84596374Y-114852260D01*
X84625546Y-114874699D01*
X84653676Y-114915114D01*
X84663053Y-114963634D01*
X84657508Y-115002431D01*
X84632864Y-115047488D01*
X84592955Y-115082092D01*
X84544384Y-115104171D01*
X84494159Y-115116347D01*
X84442438Y-115123305D01*
X84393225Y-115126650D01*
X84338454Y-115127766D01*
X84329697Y-115127746D01*
X84279952Y-115126819D01*
X84227971Y-115123979D01*
X84176550Y-115118415D01*
X84124253Y-115107982D01*
X84106610Y-115102700D01*
X84058601Y-115081739D01*
X84020938Y-115050341D01*
X83999375Y-115012434D01*
X83990896Y-114963634D01*
X83997980Y-114921507D01*
X84025183Y-114877818D01*
X84063436Y-114847130D01*
X84068086Y-114844366D01*
X84113630Y-114825406D01*
X84165652Y-114813425D01*
X84219284Y-114806579D01*
X84270353Y-114803287D01*
X84327219Y-114802190D01*
X84338913Y-114802239D01*
G37*
G36*
X84961742Y-121765045D02*
G01*
X83692207Y-121765045D01*
X83692207Y-121279754D01*
X83803318Y-121279754D01*
X83803411Y-121289014D01*
X83807911Y-121342365D01*
X83819159Y-121391939D01*
X83837157Y-121437735D01*
X83866684Y-121486388D01*
X83899305Y-121523997D01*
X83917932Y-121541043D01*
X83958959Y-121570524D01*
X84005018Y-121593857D01*
X84056108Y-121611042D01*
X84112231Y-121622078D01*
X84162843Y-121626579D01*
X84162843Y-121439001D01*
X84129704Y-121435979D01*
X84080291Y-121422206D01*
X84037302Y-121395037D01*
X84026426Y-121384397D01*
X83999779Y-121342109D01*
X83990896Y-121291966D01*
X83991043Y-121284421D01*
X84001512Y-121233362D01*
X84028510Y-121192071D01*
X84030880Y-121189682D01*
X84074126Y-121161770D01*
X84123764Y-121153237D01*
X84152325Y-121155587D01*
X84202319Y-121169435D01*
X84248084Y-121190850D01*
X84270617Y-121204382D01*
X84311184Y-121233749D01*
X84351238Y-121267233D01*
X84388957Y-121301720D01*
X84429801Y-121341548D01*
X84744141Y-121653934D01*
X84835000Y-121653934D01*
X84835000Y-120953934D01*
X84663053Y-120953934D01*
X84663053Y-121313948D01*
X84543374Y-121200620D01*
X84517101Y-121175859D01*
X84474802Y-121137910D01*
X84434364Y-121104112D01*
X84388294Y-121069033D01*
X84344902Y-121039930D01*
X84297665Y-121013530D01*
X84252811Y-120993544D01*
X84203180Y-120976714D01*
X84155289Y-120966296D01*
X84103492Y-120962239D01*
X84051727Y-120967232D01*
X84000538Y-120982210D01*
X83954504Y-121004493D01*
X83945450Y-121009885D01*
X83904243Y-121040167D01*
X83869811Y-121075983D01*
X83842152Y-121117333D01*
X83835212Y-121130713D01*
X83817008Y-121178073D01*
X83806390Y-121229679D01*
X83803318Y-121279754D01*
X83692207Y-121279754D01*
X83692207Y-120145002D01*
X84084685Y-120145002D01*
X84084685Y-120360669D01*
X84289361Y-120507703D01*
X84084685Y-120655470D01*
X84084685Y-120873090D01*
X84440303Y-120616147D01*
X84835000Y-120899957D01*
X84835000Y-120685023D01*
X84589535Y-120508435D01*
X84835000Y-120331115D01*
X84835000Y-120113495D01*
X84438593Y-120399747D01*
X84084685Y-120145002D01*
X83692207Y-120145002D01*
X83692207Y-119451108D01*
X83818949Y-119451108D01*
X83818949Y-119609866D01*
X84835000Y-119609866D01*
X84835000Y-119326789D01*
X84834135Y-119289914D01*
X84829155Y-119236272D01*
X84818260Y-119183807D01*
X84799584Y-119135302D01*
X84770994Y-119090615D01*
X84733918Y-119051931D01*
X84692850Y-119021973D01*
X84683846Y-119016650D01*
X84637048Y-118995183D01*
X84587293Y-118982303D01*
X84534581Y-118978010D01*
X84523379Y-118978177D01*
X84470204Y-118984020D01*
X84421751Y-118998212D01*
X84378021Y-119020752D01*
X84357873Y-119035243D01*
X84320798Y-119071489D01*
X84291101Y-119112389D01*
X84267623Y-119155330D01*
X84257338Y-119142068D01*
X84222700Y-119105557D01*
X84180429Y-119075951D01*
X84174586Y-119072994D01*
X84128089Y-119056894D01*
X84076870Y-119051527D01*
X84066030Y-119051737D01*
X84014519Y-119059083D01*
X83967493Y-119076924D01*
X83924951Y-119105260D01*
X83913217Y-119115616D01*
X83879252Y-119154847D01*
X83853206Y-119201330D01*
X83836535Y-119249364D01*
X83835453Y-119253420D01*
X83826523Y-119301964D01*
X83821852Y-119351240D01*
X83821094Y-119368066D01*
X83819567Y-119401970D01*
X83818949Y-119451108D01*
X83692207Y-119451108D01*
X83692207Y-117856447D01*
X83818949Y-117856447D01*
X83818949Y-118041827D01*
X84527742Y-118278742D01*
X83818949Y-118512239D01*
X83818949Y-118700550D01*
X84835000Y-118874939D01*
X84835000Y-118687605D01*
X84193374Y-118576963D01*
X84835000Y-118364716D01*
X84835000Y-118194967D01*
X84193374Y-117980033D01*
X84835000Y-117871345D01*
X84835000Y-117685965D01*
X83818949Y-117856447D01*
X83692207Y-117856447D01*
X83692207Y-117538198D01*
X83818949Y-117538198D01*
X84835000Y-117538198D01*
X84835000Y-116986454D01*
X84647421Y-116986454D01*
X84647421Y-117347200D01*
X84381685Y-117347200D01*
X84381685Y-116986454D01*
X84194106Y-116986454D01*
X84194106Y-117347200D01*
X84006528Y-117347200D01*
X84006528Y-116986454D01*
X83818949Y-116986454D01*
X83818949Y-117538198D01*
X83692207Y-117538198D01*
X83692207Y-116521904D01*
X83803318Y-116521904D01*
X83803411Y-116531163D01*
X83807911Y-116584515D01*
X83819159Y-116634088D01*
X83837157Y-116679884D01*
X83866684Y-116728537D01*
X83899305Y-116766147D01*
X83917932Y-116783192D01*
X83958959Y-116812673D01*
X84005018Y-116836006D01*
X84056108Y-116853191D01*
X84112231Y-116864228D01*
X84162843Y-116868729D01*
X84162843Y-116681150D01*
X84129704Y-116678128D01*
X84080291Y-116664355D01*
X84037302Y-116637186D01*
X84026426Y-116626546D01*
X83999779Y-116584258D01*
X83990896Y-116534116D01*
X83991043Y-116526570D01*
X84001512Y-116475512D01*
X84028510Y-116434221D01*
X84030880Y-116431831D01*
X84074126Y-116403919D01*
X84123764Y-116395386D01*
X84152325Y-116397737D01*
X84202319Y-116411585D01*
X84248084Y-116432999D01*
X84270617Y-116446532D01*
X84311184Y-116475898D01*
X84351238Y-116509382D01*
X84388957Y-116543869D01*
X84429801Y-116583697D01*
X84744141Y-116896084D01*
X84835000Y-116896084D01*
X84835000Y-116196084D01*
X84663053Y-116196084D01*
X84663053Y-116556098D01*
X84543374Y-116442769D01*
X84517101Y-116418008D01*
X84474802Y-116380060D01*
X84434364Y-116346262D01*
X84388294Y-116311182D01*
X84344902Y-116282079D01*
X84297665Y-116255679D01*
X84252811Y-116235694D01*
X84203180Y-116218864D01*
X84155289Y-116208445D01*
X84103492Y-116204388D01*
X84051727Y-116209381D01*
X84000538Y-116224360D01*
X83954504Y-116246642D01*
X83945450Y-116252034D01*
X83904243Y-116282317D01*
X83869811Y-116318133D01*
X83842152Y-116359482D01*
X83835212Y-116372862D01*
X83817008Y-116420223D01*
X83806390Y-116471828D01*
X83803318Y-116521904D01*
X83692207Y-116521904D01*
X83692207Y-115748631D01*
X83803318Y-115748631D01*
X83803352Y-115754228D01*
X83803391Y-115754737D01*
X83807445Y-115807942D01*
X83818359Y-115857554D01*
X83838244Y-115907389D01*
X83862664Y-115947302D01*
X83895862Y-115984320D01*
X83935697Y-116014123D01*
X83976112Y-116034216D01*
X84023653Y-116047722D01*
X84074427Y-116052225D01*
X84081366Y-116052135D01*
X84132010Y-116045745D01*
X84180184Y-116029266D01*
X84195694Y-116021543D01*
X84237662Y-115994081D01*
X84274706Y-115960878D01*
X84277956Y-115965179D01*
X84311979Y-116004468D01*
X84348768Y-116036983D01*
X84392431Y-116064925D01*
X84435031Y-116083215D01*
X84485086Y-116095510D01*
X84538489Y-116099608D01*
X84555678Y-116099228D01*
X84605236Y-116093528D01*
X84656765Y-116079174D01*
X84704574Y-116056377D01*
X84713618Y-116050860D01*
X84754491Y-116019901D01*
X84788113Y-115983312D01*
X84814483Y-115941094D01*
X84830298Y-115901817D01*
X84842688Y-115850149D01*
X84848901Y-115797572D01*
X84850631Y-115746433D01*
X84849713Y-115711778D01*
X84844423Y-115660449D01*
X84832853Y-115608762D01*
X84813018Y-115558854D01*
X84808172Y-115549782D01*
X84779621Y-115507941D01*
X84743867Y-115471968D01*
X84700910Y-115441862D01*
X84691517Y-115436568D01*
X84643036Y-115415220D01*
X84592027Y-115402412D01*
X84538489Y-115398142D01*
X84489082Y-115401816D01*
X84437324Y-115414341D01*
X84388279Y-115435756D01*
X84343564Y-115465141D01*
X84304793Y-115501915D01*
X84274706Y-115541757D01*
X84257572Y-115525853D01*
X84218641Y-115494300D01*
X84174323Y-115467996D01*
X84127672Y-115452792D01*
X84077114Y-115447724D01*
X84031662Y-115451516D01*
X83983869Y-115464448D01*
X83938384Y-115486558D01*
X83900817Y-115513621D01*
X83866161Y-115549836D01*
X83838489Y-115592804D01*
X83836325Y-115597023D01*
X83817056Y-115646201D01*
X83806752Y-115695317D01*
X83803318Y-115748631D01*
X83692207Y-115748631D01*
X83692207Y-114968519D01*
X83803318Y-114968519D01*
X83805436Y-115009911D01*
X83814040Y-115058366D01*
X83833103Y-115111695D01*
X83861696Y-115159768D01*
X83899821Y-115202587D01*
X83938872Y-115234255D01*
X83963328Y-115249620D01*
X84009993Y-115271869D01*
X84064040Y-115289920D01*
X84112593Y-115301338D01*
X84165870Y-115310070D01*
X84223872Y-115316115D01*
X84286599Y-115319473D01*
X84336744Y-115320229D01*
X84372817Y-115319842D01*
X84429419Y-115317481D01*
X84481620Y-115312973D01*
X84538452Y-115304730D01*
X84588947Y-115293396D01*
X84639849Y-115276265D01*
X84683844Y-115255418D01*
X84727770Y-115227643D01*
X84764918Y-115195655D01*
X84798607Y-115154632D01*
X84818878Y-115118911D01*
X84837625Y-115067865D01*
X84847380Y-115017658D01*
X84850631Y-114962902D01*
X84848811Y-114921511D01*
X84840720Y-114870625D01*
X84823882Y-114819253D01*
X84798852Y-114774102D01*
X84764971Y-114734358D01*
X84727102Y-114703118D01*
X84681936Y-114675725D01*
X84636430Y-114654911D01*
X84599772Y-114642105D01*
X84550084Y-114629603D01*
X84494179Y-114620226D01*
X84442843Y-114614800D01*
X84387189Y-114611544D01*
X84327219Y-114610459D01*
X84291157Y-114610843D01*
X84234422Y-114613192D01*
X84181896Y-114617675D01*
X84124423Y-114625872D01*
X84073012Y-114637143D01*
X84020694Y-114654179D01*
X83975213Y-114674952D01*
X83929876Y-114702987D01*
X83891621Y-114735601D01*
X83857051Y-114777766D01*
X83836114Y-114814275D01*
X83816751Y-114865510D01*
X83806676Y-114915106D01*
X83803625Y-114963634D01*
X83803318Y-114968519D01*
X83692207Y-114968519D01*
X83692207Y-114499348D01*
X84961742Y-114499348D01*
X84961742Y-121765045D01*
G37*
G36*
X112864868Y-129343287D02*
G01*
X112920680Y-129354669D01*
X112972472Y-129375424D01*
X113020243Y-129405553D01*
X113057990Y-129438838D01*
X113090943Y-129477002D01*
X113120771Y-129525392D01*
X113141319Y-129577942D01*
X113151546Y-129626296D01*
X113154955Y-129677707D01*
X113151571Y-129729259D01*
X113141422Y-129777667D01*
X113121029Y-129830172D01*
X113091427Y-129878399D01*
X113058723Y-129916332D01*
X113027667Y-129944196D01*
X112980882Y-129975271D01*
X112930240Y-129997090D01*
X112875742Y-130009652D01*
X112825960Y-130013053D01*
X112796162Y-130011889D01*
X112746073Y-130004250D01*
X112698602Y-129989482D01*
X112653749Y-129967585D01*
X112611514Y-129938558D01*
X112590039Y-129920049D01*
X112553426Y-129879411D01*
X112525261Y-129833948D01*
X112505546Y-129783659D01*
X112494281Y-129728544D01*
X112491347Y-129678928D01*
X112491440Y-129669789D01*
X112495917Y-129617067D01*
X112507108Y-129567968D01*
X112525014Y-129522493D01*
X112554391Y-129474019D01*
X112586846Y-129436395D01*
X112624229Y-129403940D01*
X112671815Y-129374563D01*
X112723679Y-129354326D01*
X112771538Y-129344254D01*
X112822540Y-129340896D01*
X112864868Y-129343287D01*
G37*
G36*
X111444213Y-129357005D02*
G01*
X111492943Y-129361413D01*
X111540021Y-129376067D01*
X111574093Y-129410200D01*
X111585450Y-129459842D01*
X111585057Y-129469914D01*
X111569330Y-129516263D01*
X111565109Y-129521861D01*
X111524878Y-129549724D01*
X111475938Y-129558085D01*
X111424494Y-129559738D01*
X111363433Y-129559738D01*
X111363433Y-129356528D01*
X111417655Y-129356528D01*
X111444213Y-129357005D01*
G37*
G36*
X113768485Y-129731836D02*
G01*
X113819104Y-129735477D01*
X113871044Y-129746855D01*
X113916748Y-129770519D01*
X113930821Y-129783277D01*
X113957535Y-129826420D01*
X113965597Y-129876277D01*
X113965556Y-129879943D01*
X113955216Y-129928361D01*
X113924075Y-129966402D01*
X113915603Y-129971946D01*
X113867976Y-129988667D01*
X113817830Y-129995482D01*
X113762875Y-129997421D01*
X113714759Y-129997421D01*
X113714759Y-129731685D01*
X113754571Y-129731685D01*
X113768485Y-129731836D01*
G37*
G36*
X113815591Y-129361623D02*
G01*
X113862526Y-129383150D01*
X113882172Y-129405613D01*
X113894766Y-129454958D01*
X113889163Y-129490945D01*
X113860816Y-129531650D01*
X113854133Y-129536670D01*
X113807758Y-129555102D01*
X113756769Y-129559738D01*
X113714759Y-129559738D01*
X113714759Y-129356528D01*
X113764341Y-129356528D01*
X113815591Y-129361623D01*
G37*
G36*
X114265507Y-130311742D02*
G01*
X109840110Y-130311742D01*
X109840110Y-129671845D01*
X109951221Y-129671845D01*
X109951502Y-129689812D01*
X109955709Y-129742798D01*
X109964966Y-129794409D01*
X109979271Y-129844647D01*
X109998625Y-129893511D01*
X110023029Y-129941001D01*
X110032205Y-129956378D01*
X110062138Y-129999818D01*
X110095677Y-130039222D01*
X110132823Y-130074590D01*
X110173576Y-130105923D01*
X110217934Y-130133220D01*
X110233485Y-130141383D01*
X110281728Y-130162712D01*
X110332357Y-130179302D01*
X110385374Y-130191151D01*
X110440778Y-130198261D01*
X110498569Y-130200631D01*
X110552376Y-130198459D01*
X110603521Y-130191941D01*
X110652004Y-130181079D01*
X110705204Y-130162915D01*
X110754780Y-130138838D01*
X110787978Y-130118174D01*
X110831110Y-130084696D01*
X110870338Y-130045912D01*
X110905662Y-130001822D01*
X110932833Y-129959808D01*
X110952605Y-129922761D01*
X110971908Y-129877423D01*
X110988329Y-129823314D01*
X110998181Y-129767896D01*
X111001465Y-129711168D01*
X111000000Y-129669159D01*
X110491731Y-129669159D01*
X110491731Y-129856737D01*
X110784334Y-129856737D01*
X110778979Y-129866645D01*
X110749117Y-129911177D01*
X110714102Y-129947360D01*
X110673936Y-129975195D01*
X110656408Y-129984068D01*
X110608279Y-130001074D01*
X110559702Y-130010058D01*
X110506141Y-130013053D01*
X110487188Y-130012665D01*
X110432609Y-130006855D01*
X110381446Y-129994072D01*
X110333702Y-129974317D01*
X110289374Y-129947590D01*
X110248465Y-129913890D01*
X110235836Y-129901324D01*
X110202837Y-129861576D01*
X110177172Y-129818754D01*
X110158839Y-129772859D01*
X110147840Y-129723889D01*
X110144173Y-129671845D01*
X110146630Y-129629735D01*
X110158324Y-129574186D01*
X110164298Y-129559738D01*
X111171214Y-129559738D01*
X111171214Y-130185000D01*
X111363433Y-130185000D01*
X111941556Y-130185000D01*
X112132554Y-130185000D01*
X112132554Y-129676730D01*
X112297662Y-129676730D01*
X112297761Y-129678928D01*
X112300013Y-129729189D01*
X112307066Y-129779831D01*
X112318820Y-129828657D01*
X112335276Y-129875666D01*
X112356433Y-129920858D01*
X112382292Y-129964234D01*
X112412853Y-130005794D01*
X112448116Y-130045537D01*
X112486931Y-130081887D01*
X112528151Y-130113391D01*
X112571775Y-130140047D01*
X112617804Y-130161857D01*
X112666236Y-130178821D01*
X112717073Y-130190938D01*
X112770314Y-130198208D01*
X112825960Y-130200631D01*
X112879227Y-130198269D01*
X112930465Y-130191182D01*
X112979672Y-130179370D01*
X113026849Y-130162834D01*
X113071996Y-130141574D01*
X113115113Y-130115589D01*
X113156199Y-130084879D01*
X113195255Y-130049445D01*
X113230918Y-130010599D01*
X113261826Y-129969654D01*
X113287979Y-129926610D01*
X113309377Y-129881467D01*
X113326020Y-129834225D01*
X113337908Y-129784884D01*
X113345040Y-129733444D01*
X113347418Y-129679905D01*
X113345006Y-129625878D01*
X113337770Y-129573950D01*
X113334331Y-129559738D01*
X113522540Y-129559738D01*
X113522540Y-129997421D01*
X113522540Y-130185000D01*
X113805618Y-130185000D01*
X113842493Y-130184135D01*
X113896134Y-130179155D01*
X113948599Y-130168260D01*
X113997104Y-130149584D01*
X114041791Y-130120994D01*
X114080475Y-130083918D01*
X114110433Y-130042850D01*
X114115756Y-130033846D01*
X114137223Y-129987048D01*
X114150103Y-129937293D01*
X114154396Y-129884581D01*
X114154229Y-129873379D01*
X114148386Y-129820204D01*
X114134194Y-129771751D01*
X114111654Y-129728021D01*
X114097163Y-129707873D01*
X114060917Y-129670798D01*
X114020017Y-129641101D01*
X113977076Y-129617623D01*
X113990338Y-129607338D01*
X114026849Y-129572700D01*
X114056455Y-129530429D01*
X114059413Y-129524586D01*
X114075513Y-129478089D01*
X114080879Y-129426870D01*
X114080669Y-129416030D01*
X114073323Y-129364519D01*
X114055482Y-129317493D01*
X114027146Y-129274951D01*
X114016790Y-129263217D01*
X113977559Y-129229252D01*
X113931076Y-129203206D01*
X113883043Y-129186535D01*
X113878986Y-129185453D01*
X113830443Y-129176523D01*
X113781167Y-129171852D01*
X113730437Y-129169567D01*
X113681298Y-129168949D01*
X113522540Y-129168949D01*
X113522540Y-129559738D01*
X113334331Y-129559738D01*
X113325711Y-129524120D01*
X113308828Y-129476390D01*
X113287121Y-129430759D01*
X113260590Y-129387226D01*
X113229235Y-129345793D01*
X113193057Y-129306458D01*
X113153585Y-129270566D01*
X113112227Y-129239459D01*
X113068985Y-129213138D01*
X113023857Y-129191603D01*
X112976844Y-129174853D01*
X112927946Y-129162889D01*
X112877163Y-129155711D01*
X112824494Y-129153318D01*
X112806890Y-129153592D01*
X112754961Y-129157714D01*
X112704354Y-129166782D01*
X112655070Y-129180795D01*
X112607107Y-129199754D01*
X112560468Y-129223660D01*
X112545346Y-129232616D01*
X112502445Y-129261823D01*
X112463235Y-129294532D01*
X112427718Y-129330745D01*
X112395893Y-129370461D01*
X112367760Y-129413681D01*
X112359272Y-129428762D01*
X112337092Y-129475092D01*
X112319842Y-129523055D01*
X112307520Y-129572648D01*
X112300127Y-129623874D01*
X112297662Y-129676730D01*
X112132554Y-129676730D01*
X112132554Y-129168949D01*
X111941556Y-129168949D01*
X111941556Y-130185000D01*
X111363433Y-130185000D01*
X111363433Y-129747316D01*
X111415360Y-129746767D01*
X111467823Y-129744737D01*
X111517076Y-129740584D01*
X111566155Y-129731685D01*
X111594803Y-129722105D01*
X111641502Y-129699661D01*
X111681941Y-129670533D01*
X111716120Y-129634720D01*
X111734962Y-129607372D01*
X111755916Y-129561680D01*
X111768098Y-129510385D01*
X111771563Y-129460087D01*
X111771192Y-129442556D01*
X111765621Y-129392825D01*
X111751592Y-129342597D01*
X111729309Y-129297665D01*
X111699871Y-129258901D01*
X111660492Y-129224746D01*
X111613782Y-129199480D01*
X111583142Y-129189104D01*
X111532164Y-129178609D01*
X111478066Y-129172557D01*
X111424646Y-129169695D01*
X111375157Y-129168949D01*
X111171214Y-129168949D01*
X111171214Y-129559738D01*
X110164298Y-129559738D01*
X110179648Y-129522611D01*
X110210603Y-129475010D01*
X110244801Y-129437372D01*
X110257569Y-129425690D01*
X110298153Y-129395164D01*
X110342154Y-129371422D01*
X110389572Y-129354463D01*
X110440408Y-129344288D01*
X110494662Y-129340896D01*
X110515867Y-129341416D01*
X110567427Y-129347266D01*
X110616913Y-129359615D01*
X110664323Y-129378464D01*
X110709658Y-129403813D01*
X110752918Y-129435661D01*
X110794103Y-129474009D01*
X110929414Y-129341629D01*
X110911977Y-129323508D01*
X110871024Y-129285248D01*
X110829698Y-129252622D01*
X110787997Y-129225629D01*
X110739881Y-129201678D01*
X110703591Y-129187746D01*
X110651381Y-129172208D01*
X110597536Y-129161299D01*
X110542054Y-129155018D01*
X110493196Y-129153318D01*
X110431662Y-129156039D01*
X110373090Y-129164202D01*
X110317479Y-129177807D01*
X110264829Y-129196854D01*
X110215141Y-129221343D01*
X110168414Y-129251274D01*
X110124649Y-129286648D01*
X110083845Y-129327463D01*
X110067785Y-129345981D01*
X110032168Y-129394031D01*
X110003027Y-129444585D01*
X109980362Y-129497643D01*
X109964173Y-129553206D01*
X109954459Y-129611274D01*
X109951221Y-129671845D01*
X109840110Y-129671845D01*
X109840110Y-129042207D01*
X114265507Y-129042207D01*
X114265507Y-130311742D01*
G37*
G36*
X93185161Y-129333287D02*
G01*
X93240973Y-129344669D01*
X93292765Y-129365424D01*
X93340536Y-129395553D01*
X93378283Y-129428838D01*
X93411236Y-129467002D01*
X93441064Y-129515392D01*
X93461612Y-129567942D01*
X93471839Y-129616296D01*
X93475248Y-129667707D01*
X93471864Y-129719259D01*
X93461715Y-129767667D01*
X93441322Y-129820172D01*
X93411720Y-129868399D01*
X93379016Y-129906332D01*
X93347960Y-129934196D01*
X93301175Y-129965271D01*
X93250533Y-129987090D01*
X93196035Y-129999652D01*
X93146253Y-130003053D01*
X93116455Y-130001889D01*
X93066366Y-129994250D01*
X93018895Y-129979482D01*
X92974042Y-129957585D01*
X92931807Y-129928558D01*
X92910332Y-129910049D01*
X92873719Y-129869411D01*
X92845554Y-129823948D01*
X92825839Y-129773659D01*
X92814574Y-129718544D01*
X92811640Y-129668928D01*
X92811733Y-129659789D01*
X92816210Y-129607067D01*
X92827401Y-129557968D01*
X92845307Y-129512493D01*
X92874684Y-129464019D01*
X92907139Y-129426395D01*
X92944522Y-129393940D01*
X92992108Y-129364563D01*
X93043972Y-129344326D01*
X93091831Y-129334254D01*
X93142833Y-129330896D01*
X93185161Y-129333287D01*
G37*
G36*
X91764506Y-129347005D02*
G01*
X91813236Y-129351413D01*
X91860314Y-129366067D01*
X91894386Y-129400200D01*
X91905743Y-129449842D01*
X91905350Y-129459914D01*
X91889623Y-129506263D01*
X91885402Y-129511861D01*
X91845171Y-129539724D01*
X91796231Y-129548085D01*
X91744787Y-129549738D01*
X91683726Y-129549738D01*
X91683726Y-129346528D01*
X91737948Y-129346528D01*
X91764506Y-129347005D01*
G37*
G36*
X94882555Y-130301742D02*
G01*
X90160403Y-130301742D01*
X90160403Y-129661845D01*
X90271514Y-129661845D01*
X90271795Y-129679812D01*
X90276002Y-129732798D01*
X90285259Y-129784409D01*
X90299564Y-129834647D01*
X90318918Y-129883511D01*
X90343322Y-129931001D01*
X90352498Y-129946378D01*
X90382431Y-129989818D01*
X90415970Y-130029222D01*
X90453116Y-130064590D01*
X90493869Y-130095923D01*
X90538227Y-130123220D01*
X90553778Y-130131383D01*
X90602021Y-130152712D01*
X90652650Y-130169302D01*
X90705667Y-130181151D01*
X90761071Y-130188261D01*
X90818862Y-130190631D01*
X90872669Y-130188459D01*
X90923814Y-130181941D01*
X90972297Y-130171079D01*
X91025497Y-130152915D01*
X91075073Y-130128838D01*
X91108271Y-130108174D01*
X91151403Y-130074696D01*
X91190631Y-130035912D01*
X91225955Y-129991822D01*
X91253126Y-129949808D01*
X91272898Y-129912761D01*
X91292201Y-129867423D01*
X91308622Y-129813314D01*
X91318474Y-129757896D01*
X91321758Y-129701168D01*
X91320293Y-129659159D01*
X90812024Y-129659159D01*
X90812024Y-129846737D01*
X91104627Y-129846737D01*
X91099272Y-129856645D01*
X91069410Y-129901177D01*
X91034395Y-129937360D01*
X90994229Y-129965195D01*
X90976701Y-129974068D01*
X90928572Y-129991074D01*
X90879995Y-130000058D01*
X90826434Y-130003053D01*
X90807481Y-130002665D01*
X90752902Y-129996855D01*
X90701739Y-129984072D01*
X90653995Y-129964317D01*
X90609667Y-129937590D01*
X90568758Y-129903890D01*
X90556129Y-129891324D01*
X90523130Y-129851576D01*
X90497465Y-129808754D01*
X90479132Y-129762859D01*
X90468133Y-129713889D01*
X90464466Y-129661845D01*
X90466923Y-129619735D01*
X90478617Y-129564186D01*
X90484591Y-129549738D01*
X91491507Y-129549738D01*
X91491507Y-130175000D01*
X91683726Y-130175000D01*
X92261849Y-130175000D01*
X92452847Y-130175000D01*
X92452847Y-129666730D01*
X92617955Y-129666730D01*
X92618054Y-129668928D01*
X92620306Y-129719189D01*
X92627359Y-129769831D01*
X92639113Y-129818657D01*
X92655569Y-129865666D01*
X92676726Y-129910858D01*
X92702585Y-129954234D01*
X92733146Y-129995794D01*
X92768409Y-130035537D01*
X92807224Y-130071887D01*
X92848444Y-130103391D01*
X92892068Y-130130047D01*
X92938097Y-130151857D01*
X92986529Y-130168821D01*
X93037366Y-130180938D01*
X93090607Y-130188208D01*
X93146253Y-130190631D01*
X93199520Y-130188269D01*
X93250758Y-130181182D01*
X93299965Y-130169370D01*
X93347142Y-130152834D01*
X93392289Y-130131574D01*
X93435406Y-130105589D01*
X93476492Y-130074879D01*
X93515548Y-130039445D01*
X93551211Y-130000599D01*
X93582119Y-129959654D01*
X93608272Y-129916610D01*
X93629670Y-129871467D01*
X93646313Y-129824225D01*
X93658201Y-129774884D01*
X93665333Y-129723444D01*
X93667711Y-129669905D01*
X93667504Y-129665265D01*
X93792519Y-129665265D01*
X93794862Y-129721608D01*
X93801892Y-129775357D01*
X93813608Y-129826511D01*
X93830010Y-129875069D01*
X93851099Y-129921033D01*
X93876874Y-129964401D01*
X93907336Y-130005174D01*
X93942484Y-130043353D01*
X93981372Y-130077871D01*
X94022932Y-130107787D01*
X94067163Y-130133100D01*
X94114065Y-130153811D01*
X94163638Y-130169920D01*
X94215884Y-130181426D01*
X94270800Y-130188330D01*
X94328388Y-130190631D01*
X94352092Y-130190262D01*
X94405482Y-130186529D01*
X94456183Y-130178775D01*
X94504197Y-130167001D01*
X94555778Y-130148621D01*
X94599960Y-130126944D01*
X94645310Y-130098886D01*
X94685112Y-130069758D01*
X94725773Y-130035940D01*
X94767292Y-129997435D01*
X94636867Y-129861880D01*
X94611179Y-129885775D01*
X94571494Y-129918946D01*
X94528927Y-129948819D01*
X94484215Y-129972766D01*
X94479865Y-129974630D01*
X94430165Y-129991222D01*
X94382027Y-130000095D01*
X94331075Y-130003053D01*
X94300827Y-130001991D01*
X94248575Y-129994731D01*
X94199144Y-129980593D01*
X94152533Y-129959577D01*
X94137786Y-129951138D01*
X94097384Y-129922368D01*
X94059245Y-129884330D01*
X94028213Y-129839898D01*
X94015548Y-129815472D01*
X93998160Y-129768799D01*
X93987727Y-129718648D01*
X93984250Y-129665020D01*
X93987736Y-129613578D01*
X93998194Y-129565312D01*
X94019208Y-129513018D01*
X94049713Y-129465048D01*
X94083412Y-129427372D01*
X94096016Y-129415690D01*
X94135955Y-129385164D01*
X94179089Y-129361422D01*
X94225417Y-129344463D01*
X94274939Y-129334288D01*
X94327655Y-129330896D01*
X94348984Y-129331448D01*
X94401139Y-129337652D01*
X94451624Y-129350749D01*
X94500439Y-129370739D01*
X94547584Y-129397622D01*
X94593060Y-129431399D01*
X94636867Y-129472069D01*
X94771444Y-129344818D01*
X94750001Y-129321333D01*
X94710068Y-129283576D01*
X94667074Y-129250073D01*
X94621017Y-129220824D01*
X94571898Y-129195830D01*
X94542810Y-129183522D01*
X94491209Y-129165933D01*
X94438719Y-129153369D01*
X94385341Y-129145831D01*
X94331075Y-129143318D01*
X94312772Y-129143593D01*
X94258779Y-129147729D01*
X94206160Y-129156828D01*
X94154914Y-129170890D01*
X94105043Y-129189916D01*
X94056546Y-129213904D01*
X94040869Y-129222875D01*
X93996599Y-129251929D01*
X93956468Y-129284195D01*
X93920476Y-129319672D01*
X93888622Y-129358361D01*
X93860907Y-129400261D01*
X93852626Y-129414863D01*
X93830987Y-129460238D01*
X93814157Y-129507966D01*
X93802136Y-129558046D01*
X93794923Y-129610479D01*
X93792519Y-129665265D01*
X93667504Y-129665265D01*
X93665299Y-129615878D01*
X93658063Y-129563950D01*
X93646004Y-129514120D01*
X93629121Y-129466390D01*
X93607414Y-129420759D01*
X93580883Y-129377226D01*
X93549528Y-129335793D01*
X93513350Y-129296458D01*
X93473878Y-129260566D01*
X93432520Y-129229459D01*
X93389278Y-129203138D01*
X93344150Y-129181603D01*
X93297137Y-129164853D01*
X93248239Y-129152889D01*
X93197456Y-129145711D01*
X93144787Y-129143318D01*
X93127183Y-129143592D01*
X93075254Y-129147714D01*
X93024647Y-129156782D01*
X92975363Y-129170795D01*
X92927400Y-129189754D01*
X92880761Y-129213660D01*
X92865639Y-129222616D01*
X92822738Y-129251823D01*
X92783528Y-129284532D01*
X92748011Y-129320745D01*
X92716186Y-129360461D01*
X92688053Y-129403681D01*
X92679565Y-129418762D01*
X92657385Y-129465092D01*
X92640135Y-129513055D01*
X92627813Y-129562648D01*
X92620420Y-129613874D01*
X92617955Y-129666730D01*
X92452847Y-129666730D01*
X92452847Y-129158949D01*
X92261849Y-129158949D01*
X92261849Y-130175000D01*
X91683726Y-130175000D01*
X91683726Y-129737316D01*
X91735653Y-129736767D01*
X91788116Y-129734737D01*
X91837369Y-129730584D01*
X91886448Y-129721685D01*
X91915096Y-129712105D01*
X91961795Y-129689661D01*
X92002234Y-129660533D01*
X92036413Y-129624720D01*
X92055255Y-129597372D01*
X92076209Y-129551680D01*
X92088391Y-129500385D01*
X92091856Y-129450087D01*
X92091485Y-129432556D01*
X92085914Y-129382825D01*
X92071885Y-129332597D01*
X92049602Y-129287665D01*
X92020164Y-129248901D01*
X91980785Y-129214746D01*
X91934075Y-129189480D01*
X91903435Y-129179104D01*
X91852457Y-129168609D01*
X91798359Y-129162557D01*
X91744939Y-129159695D01*
X91695450Y-129158949D01*
X91491507Y-129158949D01*
X91491507Y-129549738D01*
X90484591Y-129549738D01*
X90499941Y-129512611D01*
X90530896Y-129465010D01*
X90565094Y-129427372D01*
X90577862Y-129415690D01*
X90618446Y-129385164D01*
X90662447Y-129361422D01*
X90709865Y-129344463D01*
X90760701Y-129334288D01*
X90814955Y-129330896D01*
X90836160Y-129331416D01*
X90887720Y-129337266D01*
X90937206Y-129349615D01*
X90984616Y-129368464D01*
X91029951Y-129393813D01*
X91073211Y-129425661D01*
X91114396Y-129464009D01*
X91249707Y-129331629D01*
X91232270Y-129313508D01*
X91191317Y-129275248D01*
X91149991Y-129242622D01*
X91108290Y-129215629D01*
X91060174Y-129191678D01*
X91023884Y-129177746D01*
X90971674Y-129162208D01*
X90917829Y-129151299D01*
X90862347Y-129145018D01*
X90813489Y-129143318D01*
X90751955Y-129146039D01*
X90693383Y-129154202D01*
X90637772Y-129167807D01*
X90585122Y-129186854D01*
X90535434Y-129211343D01*
X90488707Y-129241274D01*
X90444942Y-129276648D01*
X90404138Y-129317463D01*
X90388078Y-129335981D01*
X90352461Y-129384031D01*
X90323320Y-129434585D01*
X90300655Y-129487643D01*
X90284466Y-129543206D01*
X90274752Y-129601274D01*
X90271514Y-129661845D01*
X90160403Y-129661845D01*
X90160403Y-129032207D01*
X94882555Y-129032207D01*
X94882555Y-130301742D01*
G37*
X102359579Y-109060632D02*
X102864655Y-109565708D01*
X102864655Y-109565708D02*
X102931999Y-109700395D01*
X102931999Y-109700395D02*
X102931999Y-109835082D01*
X102931999Y-109835082D02*
X102864655Y-109969769D01*
X102864655Y-109969769D02*
X102797312Y-110037113D01*
X103740121Y-109094304D02*
X103403403Y-109431021D01*
X103403403Y-109431021D02*
X102696297Y-108723914D01*
X104312541Y-108387197D02*
X104312541Y-108454540D01*
X104312541Y-108454540D02*
X104245197Y-108589227D01*
X104245197Y-108589227D02*
X104177854Y-108656571D01*
X104177854Y-108656571D02*
X104043167Y-108723914D01*
X104043167Y-108723914D02*
X103908480Y-108723914D01*
X103908480Y-108723914D02*
X103807465Y-108690242D01*
X103807465Y-108690242D02*
X103639106Y-108589227D01*
X103639106Y-108589227D02*
X103538091Y-108488212D01*
X103538091Y-108488212D02*
X103437075Y-108319853D01*
X103437075Y-108319853D02*
X103403404Y-108218838D01*
X103403404Y-108218838D02*
X103403404Y-108084151D01*
X103403404Y-108084151D02*
X103470747Y-107949464D01*
X103470747Y-107949464D02*
X103538091Y-107882120D01*
X103538091Y-107882120D02*
X103672778Y-107814777D01*
X103672778Y-107814777D02*
X103740121Y-107814777D01*
X104177854Y-107242357D02*
X104682930Y-107747433D01*
X104682930Y-107747433D02*
X104750274Y-107882120D01*
X104750274Y-107882120D02*
X104750274Y-108016807D01*
X104750274Y-108016807D02*
X104682930Y-108151494D01*
X104682930Y-108151494D02*
X104615587Y-108218838D01*
X105558396Y-107276029D02*
X105221678Y-107612746D01*
X105221678Y-107612746D02*
X104514572Y-106905639D01*
X106130816Y-106568922D02*
X106130816Y-106636265D01*
X106130816Y-106636265D02*
X106063472Y-106770952D01*
X106063472Y-106770952D02*
X105996129Y-106838296D01*
X105996129Y-106838296D02*
X105861442Y-106905639D01*
X105861442Y-106905639D02*
X105726755Y-106905639D01*
X105726755Y-106905639D02*
X105625739Y-106871968D01*
X105625739Y-106871968D02*
X105457381Y-106770952D01*
X105457381Y-106770952D02*
X105356365Y-106669937D01*
X105356365Y-106669937D02*
X105255350Y-106501578D01*
X105255350Y-106501578D02*
X105221678Y-106400563D01*
X105221678Y-106400563D02*
X105221678Y-106265876D01*
X105221678Y-106265876D02*
X105289022Y-106131189D01*
X105289022Y-106131189D02*
X105356365Y-106063846D01*
X105356365Y-106063846D02*
X105491052Y-105996502D01*
X105491052Y-105996502D02*
X105558396Y-105996502D01*
X105996129Y-105424082D02*
X106501205Y-105929158D01*
X106501205Y-105929158D02*
X106568549Y-106063846D01*
X106568549Y-106063846D02*
X106568549Y-106198533D01*
X106568549Y-106198533D02*
X106501205Y-106333220D01*
X106501205Y-106333220D02*
X106433862Y-106400563D01*
X107376671Y-105457754D02*
X107039953Y-105794471D01*
X107039953Y-105794471D02*
X106332846Y-105087365D01*
X107949091Y-104750647D02*
X107949091Y-104817990D01*
X107949091Y-104817990D02*
X107881747Y-104952677D01*
X107881747Y-104952677D02*
X107814404Y-105020021D01*
X107814404Y-105020021D02*
X107679717Y-105087364D01*
X107679717Y-105087364D02*
X107545030Y-105087364D01*
X107545030Y-105087364D02*
X107444014Y-105053693D01*
X107444014Y-105053693D02*
X107275656Y-104952677D01*
X107275656Y-104952677D02*
X107174640Y-104851662D01*
X107174640Y-104851662D02*
X107073625Y-104683303D01*
X107073625Y-104683303D02*
X107039953Y-104582288D01*
X107039953Y-104582288D02*
X107039953Y-104447601D01*
X107039953Y-104447601D02*
X107107297Y-104312914D01*
X107107297Y-104312914D02*
X107174640Y-104245571D01*
X107174640Y-104245571D02*
X107309327Y-104178227D01*
X107309327Y-104178227D02*
X107376671Y-104178227D01*
X107814404Y-103605807D02*
X108319480Y-104110884D01*
X108319480Y-104110884D02*
X108386823Y-104245571D01*
X108386823Y-104245571D02*
X108386823Y-104380258D01*
X108386823Y-104380258D02*
X108319480Y-104514945D01*
X108319480Y-104514945D02*
X108252136Y-104582288D01*
X109194946Y-103639479D02*
X108858228Y-103976196D01*
X108858228Y-103976196D02*
X108151121Y-103269090D01*
X109767366Y-102932372D02*
X109767366Y-102999716D01*
X109767366Y-102999716D02*
X109700022Y-103134403D01*
X109700022Y-103134403D02*
X109632679Y-103201746D01*
X109632679Y-103201746D02*
X109497992Y-103269090D01*
X109497992Y-103269090D02*
X109363305Y-103269090D01*
X109363305Y-103269090D02*
X109262289Y-103235418D01*
X109262289Y-103235418D02*
X109093931Y-103134403D01*
X109093931Y-103134403D02*
X108992915Y-103033387D01*
X108992915Y-103033387D02*
X108891900Y-102865029D01*
X108891900Y-102865029D02*
X108858228Y-102764013D01*
X108858228Y-102764013D02*
X108858228Y-102629326D01*
X108858228Y-102629326D02*
X108925572Y-102494639D01*
X108925572Y-102494639D02*
X108992915Y-102427296D01*
X108992915Y-102427296D02*
X109127602Y-102359952D01*
X109127602Y-102359952D02*
X109194946Y-102359952D01*
D14*
G36*
X82390945Y-98742658D02*
G01*
X82431650Y-98771004D01*
X82436670Y-98777688D01*
X82455102Y-98824063D01*
X82459738Y-98875052D01*
X82459738Y-98877250D01*
X82459738Y-98917062D01*
X82256528Y-98917062D01*
X82256528Y-98867480D01*
X82261623Y-98816229D01*
X82283150Y-98769295D01*
X82305613Y-98749648D01*
X82354958Y-98737055D01*
X82390945Y-98742658D01*
G37*
G36*
X82779943Y-98666265D02*
G01*
X82828361Y-98676604D01*
X82866402Y-98707745D01*
X82871946Y-98716218D01*
X82888667Y-98763845D01*
X82895482Y-98813991D01*
X82897421Y-98868946D01*
X82897421Y-98917062D01*
X82631685Y-98917062D01*
X82631685Y-98877250D01*
X82631836Y-98863336D01*
X82635477Y-98812716D01*
X82646855Y-98760777D01*
X82670519Y-98715073D01*
X82683277Y-98701000D01*
X82726420Y-98674286D01*
X82776277Y-98666224D01*
X82779943Y-98666265D01*
G37*
G36*
X82629259Y-97493089D02*
G01*
X82677667Y-97503239D01*
X82730172Y-97523632D01*
X82778399Y-97553234D01*
X82816332Y-97585938D01*
X82844196Y-97616994D01*
X82875271Y-97663779D01*
X82897090Y-97714420D01*
X82909652Y-97768919D01*
X82913053Y-97818701D01*
X82911889Y-97848499D01*
X82904250Y-97898588D01*
X82889482Y-97946059D01*
X82867585Y-97990912D01*
X82838558Y-98033147D01*
X82820049Y-98054622D01*
X82779411Y-98091235D01*
X82733948Y-98119400D01*
X82683659Y-98139115D01*
X82628544Y-98150380D01*
X82578928Y-98153314D01*
X82569789Y-98153221D01*
X82517067Y-98148744D01*
X82467968Y-98137553D01*
X82422493Y-98119647D01*
X82374019Y-98090270D01*
X82336395Y-98057815D01*
X82303940Y-98020432D01*
X82274563Y-97972846D01*
X82254326Y-97920982D01*
X82244254Y-97873123D01*
X82240896Y-97822121D01*
X82243287Y-97779793D01*
X82254669Y-97723981D01*
X82275424Y-97672189D01*
X82305553Y-97624418D01*
X82338838Y-97586671D01*
X82377002Y-97553718D01*
X82425392Y-97523890D01*
X82477942Y-97503342D01*
X82526296Y-97493115D01*
X82577707Y-97489706D01*
X82629259Y-97493089D01*
G37*
G36*
X82629259Y-96317793D02*
G01*
X82677667Y-96327942D01*
X82730172Y-96348335D01*
X82778399Y-96377938D01*
X82816332Y-96410641D01*
X82844196Y-96441698D01*
X82875271Y-96488482D01*
X82897090Y-96539124D01*
X82909652Y-96593622D01*
X82913053Y-96643405D01*
X82911889Y-96673202D01*
X82904250Y-96723291D01*
X82889482Y-96770762D01*
X82867585Y-96815615D01*
X82838558Y-96857850D01*
X82820049Y-96879325D01*
X82779411Y-96915939D01*
X82733948Y-96944103D01*
X82683659Y-96963818D01*
X82628544Y-96975084D01*
X82578928Y-96978018D01*
X82569789Y-96977924D01*
X82517067Y-96973448D01*
X82467968Y-96962256D01*
X82422493Y-96944350D01*
X82374019Y-96914973D01*
X82336395Y-96882519D01*
X82303940Y-96845135D01*
X82274563Y-96797549D01*
X82254326Y-96745685D01*
X82244254Y-96697826D01*
X82240896Y-96646824D01*
X82243287Y-96604497D01*
X82254669Y-96548684D01*
X82275424Y-96496893D01*
X82305553Y-96449121D01*
X82338838Y-96411374D01*
X82377002Y-96378421D01*
X82425392Y-96348593D01*
X82477942Y-96328045D01*
X82526296Y-96317819D01*
X82577707Y-96314410D01*
X82629259Y-96317793D01*
G37*
G36*
X83211742Y-99220392D02*
G01*
X81942207Y-99220392D01*
X81942207Y-98950523D01*
X82068949Y-98950523D01*
X82068949Y-99109281D01*
X83085000Y-99109281D01*
X83085000Y-98826203D01*
X83084135Y-98789328D01*
X83079155Y-98735686D01*
X83068260Y-98683222D01*
X83049584Y-98634717D01*
X83020994Y-98590030D01*
X82983918Y-98551346D01*
X82942850Y-98521388D01*
X82933846Y-98516064D01*
X82887048Y-98494598D01*
X82837293Y-98481718D01*
X82784581Y-98477424D01*
X82773379Y-98477591D01*
X82720204Y-98483435D01*
X82671751Y-98497627D01*
X82628021Y-98520167D01*
X82607873Y-98534658D01*
X82570798Y-98570903D01*
X82541101Y-98611804D01*
X82517623Y-98654745D01*
X82507338Y-98641483D01*
X82472700Y-98604972D01*
X82430429Y-98575366D01*
X82424586Y-98572408D01*
X82378089Y-98556308D01*
X82326870Y-98550941D01*
X82316030Y-98551151D01*
X82264519Y-98558498D01*
X82217493Y-98576339D01*
X82174951Y-98604675D01*
X82163217Y-98615030D01*
X82129252Y-98654262D01*
X82103206Y-98700744D01*
X82086535Y-98748778D01*
X82085453Y-98752835D01*
X82076523Y-98801378D01*
X82071852Y-98850654D01*
X82071094Y-98867480D01*
X82069567Y-98901384D01*
X82068949Y-98950523D01*
X81942207Y-98950523D01*
X81942207Y-97820167D01*
X82053318Y-97820167D01*
X82053348Y-97822121D01*
X82053592Y-97837770D01*
X82057714Y-97889700D01*
X82066782Y-97940307D01*
X82080795Y-97989591D01*
X82099754Y-98037554D01*
X82123660Y-98084193D01*
X82132616Y-98099315D01*
X82161823Y-98142216D01*
X82194532Y-98181426D01*
X82230745Y-98216943D01*
X82270461Y-98248768D01*
X82313681Y-98276901D01*
X82328762Y-98285389D01*
X82375092Y-98307569D01*
X82423055Y-98324819D01*
X82472648Y-98337141D01*
X82523874Y-98344534D01*
X82576730Y-98346999D01*
X82629189Y-98344648D01*
X82679831Y-98337595D01*
X82728657Y-98325841D01*
X82775666Y-98309385D01*
X82820858Y-98288228D01*
X82864234Y-98262369D01*
X82905794Y-98231808D01*
X82945537Y-98196545D01*
X82981887Y-98157730D01*
X83013391Y-98116510D01*
X83040047Y-98072886D01*
X83061857Y-98026857D01*
X83078821Y-97978425D01*
X83090938Y-97927588D01*
X83098208Y-97874347D01*
X83100631Y-97818701D01*
X83098269Y-97765434D01*
X83091182Y-97714196D01*
X83079370Y-97664989D01*
X83062834Y-97617812D01*
X83041574Y-97572665D01*
X83015589Y-97529548D01*
X82984879Y-97488462D01*
X82949445Y-97449406D01*
X82910599Y-97413743D01*
X82869654Y-97382835D01*
X82826610Y-97356682D01*
X82781467Y-97335284D01*
X82734225Y-97318641D01*
X82684884Y-97306753D01*
X82633444Y-97299621D01*
X82579905Y-97297243D01*
X82525878Y-97299655D01*
X82473950Y-97306891D01*
X82424120Y-97318950D01*
X82376390Y-97335833D01*
X82330759Y-97357540D01*
X82287226Y-97384071D01*
X82245793Y-97415426D01*
X82206458Y-97451604D01*
X82170566Y-97491076D01*
X82139459Y-97532434D01*
X82113138Y-97575676D01*
X82091603Y-97620804D01*
X82074853Y-97667817D01*
X82062889Y-97716715D01*
X82055711Y-97767498D01*
X82053318Y-97820167D01*
X81942207Y-97820167D01*
X81942207Y-96644870D01*
X82053318Y-96644870D01*
X82053348Y-96646824D01*
X82053592Y-96662474D01*
X82057714Y-96714403D01*
X82066782Y-96765010D01*
X82080795Y-96814295D01*
X82099754Y-96862257D01*
X82123660Y-96908897D01*
X82132616Y-96924018D01*
X82161823Y-96966920D01*
X82194532Y-97006129D01*
X82230745Y-97041647D01*
X82270461Y-97073472D01*
X82313681Y-97101604D01*
X82328762Y-97110093D01*
X82375092Y-97132272D01*
X82423055Y-97149523D01*
X82472648Y-97161845D01*
X82523874Y-97169238D01*
X82576730Y-97171702D01*
X82629189Y-97169351D01*
X82679831Y-97162299D01*
X82728657Y-97150545D01*
X82775666Y-97134089D01*
X82820858Y-97112931D01*
X82864234Y-97087072D01*
X82905794Y-97056511D01*
X82945537Y-97021249D01*
X82981887Y-96982433D01*
X83013391Y-96941213D01*
X83040047Y-96897589D01*
X83061857Y-96851561D01*
X83078821Y-96803128D01*
X83090938Y-96752291D01*
X83098208Y-96699050D01*
X83100631Y-96643405D01*
X83098269Y-96590137D01*
X83091182Y-96538899D01*
X83079370Y-96489692D01*
X83062834Y-96442515D01*
X83041574Y-96397368D01*
X83015589Y-96354252D01*
X82984879Y-96313166D01*
X82949445Y-96274110D01*
X82910599Y-96238446D01*
X82869654Y-96207538D01*
X82826610Y-96181385D01*
X82781467Y-96159987D01*
X82734225Y-96143344D01*
X82684884Y-96131457D01*
X82633444Y-96124324D01*
X82579905Y-96121946D01*
X82525878Y-96124358D01*
X82473950Y-96131594D01*
X82424120Y-96143653D01*
X82376390Y-96160537D01*
X82330759Y-96182244D01*
X82287226Y-96208775D01*
X82245793Y-96240129D01*
X82206458Y-96276308D01*
X82170566Y-96315780D01*
X82139459Y-96357137D01*
X82113138Y-96400379D01*
X82091603Y-96445507D01*
X82074853Y-96492520D01*
X82062889Y-96541418D01*
X82055711Y-96592202D01*
X82053318Y-96644870D01*
X81942207Y-96644870D01*
X81942207Y-96046475D01*
X82068949Y-96046475D01*
X82256528Y-96046475D01*
X82256528Y-95867201D01*
X83085000Y-95867201D01*
X83085000Y-95672051D01*
X82256528Y-95672051D01*
X82256528Y-95488136D01*
X82068949Y-95488136D01*
X82068949Y-96046475D01*
X81942207Y-96046475D01*
X81942207Y-95377025D01*
X83211742Y-95377025D01*
X83211742Y-99220392D01*
G37*
G36*
X120733462Y-122586800D02*
G01*
X120787612Y-122592456D01*
X120836545Y-122604102D01*
X120884797Y-122624066D01*
X120921924Y-122646962D01*
X120958433Y-122679670D01*
X120987135Y-122721275D01*
X121000385Y-122755484D01*
X121010766Y-122804808D01*
X121015972Y-122858286D01*
X121017421Y-122912517D01*
X121017421Y-123001910D01*
X120376528Y-123001910D01*
X120376528Y-122936697D01*
X120376606Y-122925573D01*
X120379344Y-122872847D01*
X120387793Y-122815934D01*
X120401876Y-122765960D01*
X120425424Y-122716425D01*
X120456639Y-122676334D01*
X120499208Y-122641217D01*
X120548696Y-122614725D01*
X120596621Y-122598882D01*
X120649629Y-122589377D01*
X120707721Y-122586209D01*
X120733462Y-122586800D01*
G37*
G36*
X120846059Y-120191188D02*
G01*
X120896605Y-120198884D01*
X120945787Y-120218266D01*
X120987623Y-120249049D01*
X120995017Y-120256464D01*
X121024832Y-120297088D01*
X121042721Y-120343628D01*
X121048684Y-120396083D01*
X121048442Y-120406694D01*
X121039960Y-120456602D01*
X121019362Y-120501262D01*
X120986646Y-120540675D01*
X120974714Y-120551150D01*
X120930597Y-120578628D01*
X120879803Y-120594656D01*
X120828377Y-120599293D01*
X120810817Y-120598786D01*
X120761745Y-120591187D01*
X120713564Y-120572048D01*
X120672062Y-120541652D01*
X120664668Y-120534331D01*
X120634853Y-120494265D01*
X120616964Y-120448426D01*
X120611001Y-120396816D01*
X120611236Y-120385763D01*
X120619450Y-120334133D01*
X120639400Y-120288562D01*
X120671085Y-120249049D01*
X120682631Y-120238617D01*
X120725831Y-120211254D01*
X120776283Y-120195292D01*
X120827889Y-120190675D01*
X120846059Y-120191188D01*
G37*
G36*
X120846059Y-118819520D02*
G01*
X120896605Y-118827216D01*
X120945787Y-118846598D01*
X120987623Y-118877381D01*
X120995017Y-118884796D01*
X121024832Y-118925420D01*
X121042721Y-118971960D01*
X121048684Y-119024415D01*
X121048442Y-119035026D01*
X121039960Y-119084934D01*
X121019362Y-119129594D01*
X120986646Y-119169007D01*
X120974714Y-119179483D01*
X120930597Y-119206960D01*
X120879803Y-119222988D01*
X120828377Y-119227625D01*
X120810817Y-119227118D01*
X120761745Y-119219519D01*
X120713564Y-119200381D01*
X120672062Y-119169984D01*
X120664668Y-119162663D01*
X120634853Y-119122597D01*
X120616964Y-119076758D01*
X120611001Y-119025148D01*
X120611236Y-119014095D01*
X120619450Y-118962465D01*
X120639400Y-118916894D01*
X120671085Y-118877381D01*
X120682631Y-118866949D01*
X120725831Y-118839586D01*
X120776283Y-118823624D01*
X120827889Y-118819007D01*
X120846059Y-118819520D01*
G37*
G36*
X121331742Y-124120523D02*
G01*
X120062207Y-124120523D01*
X120062207Y-123684569D01*
X120173318Y-123684569D01*
X120173390Y-123691875D01*
X120177928Y-123740973D01*
X120191758Y-123792707D01*
X120214808Y-123839770D01*
X120247079Y-123882161D01*
X120280645Y-123913281D01*
X120322441Y-123939488D01*
X120373841Y-123957037D01*
X120423422Y-123962028D01*
X120472483Y-123956343D01*
X120521601Y-123939286D01*
X120566304Y-123913913D01*
X120590135Y-123896026D01*
X120628426Y-123861408D01*
X120665824Y-123822842D01*
X120700216Y-123784434D01*
X120737542Y-123740325D01*
X120769515Y-123700933D01*
X120801968Y-123661411D01*
X120836267Y-123622786D01*
X120872585Y-123588825D01*
X120891407Y-123576546D01*
X120939508Y-123563424D01*
X120963992Y-123567407D01*
X121004965Y-123597130D01*
X121024165Y-123629614D01*
X121033053Y-123680172D01*
X121032503Y-123691962D01*
X121016429Y-123742866D01*
X120983456Y-123785162D01*
X120940179Y-123819892D01*
X120892369Y-123847967D01*
X120993485Y-124009412D01*
X121007926Y-124002207D01*
X121054622Y-123975565D01*
X121095334Y-123946702D01*
X121134535Y-123910997D01*
X121165921Y-123872391D01*
X121187238Y-123836022D01*
X121206953Y-123785380D01*
X121217212Y-123736699D01*
X121220631Y-123684569D01*
X121219391Y-123650829D01*
X121211251Y-123595733D01*
X121195515Y-123545662D01*
X121172182Y-123500617D01*
X121141252Y-123460598D01*
X121131135Y-123450187D01*
X121093141Y-123419038D01*
X121044796Y-123393515D01*
X120991200Y-123378738D01*
X120939996Y-123374624D01*
X120924460Y-123375006D01*
X120872548Y-123382352D01*
X120824469Y-123399049D01*
X120794270Y-123415473D01*
X120752802Y-123445727D01*
X120713583Y-123481847D01*
X120700134Y-123496147D01*
X120666107Y-123535385D01*
X120631463Y-123576792D01*
X120600010Y-123614959D01*
X120576650Y-123642860D01*
X120540895Y-123684616D01*
X120508018Y-123721317D01*
X120472759Y-123755887D01*
X120425621Y-123772984D01*
X120424069Y-123772961D01*
X120380924Y-123749049D01*
X120372162Y-123736104D01*
X120360896Y-123687011D01*
X120367735Y-123648451D01*
X120391778Y-123605436D01*
X120427681Y-123567525D01*
X120470317Y-123534603D01*
X120340868Y-123392454D01*
X120312480Y-123417062D01*
X120273111Y-123455294D01*
X120237725Y-123496626D01*
X120209466Y-123540465D01*
X120190403Y-123583923D01*
X120177589Y-123633380D01*
X120173318Y-123684569D01*
X120062207Y-123684569D01*
X120062207Y-122965518D01*
X120188949Y-122965518D01*
X120188949Y-123193640D01*
X121205000Y-123193640D01*
X121205000Y-122962098D01*
X121204391Y-122903512D01*
X121202567Y-122850639D01*
X121198771Y-122794731D01*
X121192130Y-122739902D01*
X121180087Y-122685860D01*
X121173236Y-122666129D01*
X121150668Y-122618340D01*
X121123708Y-122577205D01*
X121090450Y-122537848D01*
X121060425Y-122509343D01*
X121017116Y-122476849D01*
X120974175Y-122451890D01*
X120927051Y-122430626D01*
X120914673Y-122425923D01*
X120863672Y-122410147D01*
X120810290Y-122399224D01*
X120761627Y-122393649D01*
X120711140Y-122391791D01*
X120680548Y-122392401D01*
X120631181Y-122396127D01*
X120574618Y-122405068D01*
X120520975Y-122418887D01*
X120470250Y-122437583D01*
X120422445Y-122461156D01*
X120385500Y-122483757D01*
X120345589Y-122513318D01*
X120305126Y-122551170D01*
X120271231Y-122592645D01*
X120243904Y-122637744D01*
X120237249Y-122651589D01*
X120219861Y-122698438D01*
X120206337Y-122753255D01*
X120198019Y-122805023D01*
X120192384Y-122862325D01*
X120189808Y-122912151D01*
X120189413Y-122936697D01*
X120188949Y-122965518D01*
X120062207Y-122965518D01*
X120062207Y-121334220D01*
X120173318Y-121334220D01*
X120173593Y-121352523D01*
X120177729Y-121406516D01*
X120186828Y-121459135D01*
X120200890Y-121510380D01*
X120219916Y-121560251D01*
X120243904Y-121608749D01*
X120252875Y-121624425D01*
X120281929Y-121668695D01*
X120314195Y-121708826D01*
X120349672Y-121744819D01*
X120388361Y-121776672D01*
X120430261Y-121804387D01*
X120444863Y-121812669D01*
X120490238Y-121834307D01*
X120537966Y-121851137D01*
X120588046Y-121863158D01*
X120640479Y-121870371D01*
X120695265Y-121872775D01*
X120751608Y-121870432D01*
X120805357Y-121863402D01*
X120856511Y-121851686D01*
X120905069Y-121835284D01*
X120951033Y-121814195D01*
X120994401Y-121788420D01*
X121035174Y-121757958D01*
X121073353Y-121722810D01*
X121107871Y-121683922D01*
X121137787Y-121642363D01*
X121163100Y-121598132D01*
X121183811Y-121551229D01*
X121199920Y-121501656D01*
X121211426Y-121449411D01*
X121218330Y-121394494D01*
X121220631Y-121336906D01*
X121220262Y-121313202D01*
X121216529Y-121259812D01*
X121208775Y-121209111D01*
X121197001Y-121161097D01*
X121178621Y-121109516D01*
X121156944Y-121065335D01*
X121128886Y-121019984D01*
X121099758Y-120980182D01*
X121065940Y-120939521D01*
X121027435Y-120898002D01*
X120891880Y-121028428D01*
X120915775Y-121054115D01*
X120948946Y-121093801D01*
X120978819Y-121136367D01*
X121002766Y-121181079D01*
X121004630Y-121185429D01*
X121021222Y-121235130D01*
X121030095Y-121283267D01*
X121033053Y-121334220D01*
X121031991Y-121364467D01*
X121024731Y-121416719D01*
X121010593Y-121466151D01*
X120989577Y-121512761D01*
X120981138Y-121527508D01*
X120952368Y-121567910D01*
X120914330Y-121606050D01*
X120869898Y-121637081D01*
X120845472Y-121649746D01*
X120798799Y-121667134D01*
X120748648Y-121677567D01*
X120695020Y-121681045D01*
X120643578Y-121677558D01*
X120595312Y-121667100D01*
X120543018Y-121646086D01*
X120495048Y-121615582D01*
X120457372Y-121581882D01*
X120445690Y-121569279D01*
X120415164Y-121529339D01*
X120391422Y-121486206D01*
X120374463Y-121439878D01*
X120364288Y-121390355D01*
X120360896Y-121337639D01*
X120361448Y-121316310D01*
X120367652Y-121264155D01*
X120380749Y-121213671D01*
X120400739Y-121164855D01*
X120427622Y-121117710D01*
X120461399Y-121072234D01*
X120502069Y-121028428D01*
X120374818Y-120893850D01*
X120351333Y-120915294D01*
X120313576Y-120955226D01*
X120280073Y-120998221D01*
X120250824Y-121044277D01*
X120225830Y-121093396D01*
X120213522Y-121122484D01*
X120195933Y-121174086D01*
X120183369Y-121226575D01*
X120175831Y-121279953D01*
X120173318Y-121334220D01*
X120062207Y-121334220D01*
X120062207Y-120435162D01*
X120439054Y-120435162D01*
X120439484Y-120453278D01*
X120445939Y-120505565D01*
X120460138Y-120554761D01*
X120482083Y-120600865D01*
X120511772Y-120643879D01*
X120549207Y-120683801D01*
X120577658Y-120707786D01*
X120623983Y-120737768D01*
X120674687Y-120760554D01*
X120729771Y-120776145D01*
X120779019Y-120783640D01*
X120831308Y-120786139D01*
X120861929Y-120785209D01*
X120910855Y-120779529D01*
X120966087Y-120765896D01*
X121017524Y-120744827D01*
X121065166Y-120716322D01*
X121109012Y-120680382D01*
X121122528Y-120667009D01*
X121157845Y-120625061D01*
X121185314Y-120580364D01*
X121204935Y-120532920D01*
X121216707Y-120482728D01*
X121220631Y-120429788D01*
X121220076Y-120409865D01*
X121213444Y-120360185D01*
X121197916Y-120310109D01*
X121182879Y-120278961D01*
X121155797Y-120237551D01*
X121123911Y-120199712D01*
X121205000Y-120199712D01*
X121205000Y-120012866D01*
X120454685Y-120012866D01*
X120454685Y-120199712D01*
X120538461Y-120199712D01*
X120517866Y-120222050D01*
X120488162Y-120262355D01*
X120463967Y-120308888D01*
X120454259Y-120335133D01*
X120442557Y-120385920D01*
X120441782Y-120396816D01*
X120439054Y-120435162D01*
X120062207Y-120435162D01*
X120062207Y-119546606D01*
X120439054Y-119546606D01*
X120445954Y-119596127D01*
X120466653Y-119641617D01*
X120470173Y-119646954D01*
X120505542Y-119684842D01*
X120547009Y-119710982D01*
X120454685Y-119710982D01*
X120454685Y-119871693D01*
X121205000Y-119871693D01*
X121205000Y-119685580D01*
X120899207Y-119685580D01*
X120862327Y-119686069D01*
X120806551Y-119685021D01*
X120750747Y-119681151D01*
X120699192Y-119673236D01*
X120649591Y-119656271D01*
X120614485Y-119629803D01*
X120595369Y-119582998D01*
X120595775Y-119576072D01*
X120611978Y-119528777D01*
X120457372Y-119470403D01*
X120446943Y-119497369D01*
X120439054Y-119546606D01*
X120062207Y-119546606D01*
X120062207Y-118828044D01*
X120173318Y-118828044D01*
X120539926Y-118828044D01*
X120519022Y-118850382D01*
X120488843Y-118890688D01*
X120464211Y-118937220D01*
X120454409Y-118963465D01*
X120442592Y-119014252D01*
X120441809Y-119025148D01*
X120439054Y-119063494D01*
X120439484Y-119081610D01*
X120445939Y-119133897D01*
X120460138Y-119183093D01*
X120482083Y-119229197D01*
X120511772Y-119272211D01*
X120549207Y-119312133D01*
X120577658Y-119336119D01*
X120623983Y-119366100D01*
X120674687Y-119388886D01*
X120729771Y-119404477D01*
X120779019Y-119411972D01*
X120831308Y-119414471D01*
X120861929Y-119413541D01*
X120910855Y-119407861D01*
X120966087Y-119394228D01*
X121017524Y-119373160D01*
X121065166Y-119344655D01*
X121109012Y-119308714D01*
X121122528Y-119295341D01*
X121157845Y-119253393D01*
X121185314Y-119208696D01*
X121204935Y-119161252D01*
X121216707Y-119111060D01*
X121220631Y-119058121D01*
X121220076Y-119038197D01*
X121213444Y-118988517D01*
X121197916Y-118938442D01*
X121182879Y-118907293D01*
X121155797Y-118865883D01*
X121123911Y-118828044D01*
X121205000Y-118828044D01*
X121205000Y-118641198D01*
X120173318Y-118641198D01*
X120173318Y-118828044D01*
X120062207Y-118828044D01*
X120062207Y-118530087D01*
X121331742Y-118530087D01*
X121331742Y-124120523D01*
G37*
D13*
G36*
X107802301Y-83467005D02*
G01*
X107851031Y-83471413D01*
X107898109Y-83486067D01*
X107932181Y-83520200D01*
X107943538Y-83569842D01*
X107943145Y-83579914D01*
X107927418Y-83626263D01*
X107923197Y-83631861D01*
X107882966Y-83659724D01*
X107834027Y-83668085D01*
X107782582Y-83669738D01*
X107721521Y-83669738D01*
X107721521Y-83466528D01*
X107775743Y-83466528D01*
X107802301Y-83467005D01*
G37*
G36*
X109439995Y-84421742D02*
G01*
X106603641Y-84421742D01*
X106603641Y-84083485D01*
X106714752Y-84083485D01*
X106721957Y-84097926D01*
X106748599Y-84144622D01*
X106777462Y-84185334D01*
X106813167Y-84224535D01*
X106851773Y-84255921D01*
X106888142Y-84277238D01*
X106938784Y-84296953D01*
X106987465Y-84307212D01*
X107039595Y-84310631D01*
X107073335Y-84309391D01*
X107128431Y-84301251D01*
X107178502Y-84285515D01*
X107223547Y-84262182D01*
X107263566Y-84231252D01*
X107273977Y-84221135D01*
X107305126Y-84183141D01*
X107330649Y-84134796D01*
X107345426Y-84081200D01*
X107349540Y-84029996D01*
X107349158Y-84014460D01*
X107341812Y-83962548D01*
X107325115Y-83914469D01*
X107308691Y-83884270D01*
X107278437Y-83842802D01*
X107242317Y-83803583D01*
X107228017Y-83790134D01*
X107188779Y-83756107D01*
X107147372Y-83721463D01*
X107109205Y-83690010D01*
X107084992Y-83669738D01*
X107529302Y-83669738D01*
X107529302Y-84295000D01*
X107721521Y-84295000D01*
X108299644Y-84295000D01*
X108490642Y-84295000D01*
X108490642Y-83966737D01*
X108631815Y-83966737D01*
X108632461Y-83976610D01*
X108639765Y-84033122D01*
X108652943Y-84084962D01*
X108671994Y-84132132D01*
X108696918Y-84174630D01*
X108733420Y-84218307D01*
X108770122Y-84249683D01*
X108817738Y-84278083D01*
X108870520Y-84297648D01*
X108919873Y-84307385D01*
X108973022Y-84310631D01*
X108992223Y-84310264D01*
X109047241Y-84304754D01*
X109098378Y-84292632D01*
X109145633Y-84273899D01*
X109189007Y-84248554D01*
X109228500Y-84216598D01*
X109257419Y-84186128D01*
X109289671Y-84140085D01*
X109312316Y-84090091D01*
X109325355Y-84036147D01*
X109328884Y-83986765D01*
X109328429Y-83969667D01*
X109321602Y-83920922D01*
X109304410Y-83871249D01*
X109277104Y-83826297D01*
X109263530Y-83809899D01*
X109224083Y-83774479D01*
X109181852Y-83749412D01*
X109133245Y-83730799D01*
X109166203Y-83712770D01*
X109207796Y-83680862D01*
X109239979Y-83643115D01*
X109252513Y-83622379D01*
X109270773Y-83574680D01*
X109276860Y-83523192D01*
X109271593Y-83472115D01*
X109255794Y-83424640D01*
X109229462Y-83380768D01*
X109192596Y-83340498D01*
X109181936Y-83331152D01*
X109136148Y-83299798D01*
X109085323Y-83278091D01*
X109036718Y-83267011D01*
X108984257Y-83263318D01*
X108941832Y-83265685D01*
X108886323Y-83276953D01*
X108835349Y-83297501D01*
X108788910Y-83327329D01*
X108752715Y-83360282D01*
X108722963Y-83398002D01*
X108699653Y-83441310D01*
X108682785Y-83490204D01*
X108672359Y-83544685D01*
X108857006Y-83544685D01*
X108869303Y-83515708D01*
X108902924Y-83477030D01*
X108929268Y-83461105D01*
X108977907Y-83450896D01*
X109008011Y-83453840D01*
X109053622Y-83475809D01*
X109067554Y-83490846D01*
X109082443Y-83538579D01*
X109081977Y-83547585D01*
X109063392Y-83593534D01*
X109051596Y-83607228D01*
X109010391Y-83634323D01*
X109006009Y-83636117D01*
X108957590Y-83648367D01*
X108907076Y-83654106D01*
X108907076Y-83826053D01*
X108934401Y-83827042D01*
X108984104Y-83833117D01*
X109032138Y-83846484D01*
X109079512Y-83872215D01*
X109099848Y-83889772D01*
X109129475Y-83932643D01*
X109139351Y-83982124D01*
X109138960Y-83993048D01*
X109125286Y-84042901D01*
X109094899Y-84082264D01*
X109080523Y-84094015D01*
X109034308Y-84116321D01*
X108983524Y-84123053D01*
X108967694Y-84122450D01*
X108917819Y-84110842D01*
X108876546Y-84084462D01*
X108857388Y-84062633D01*
X108834136Y-84016351D01*
X108822080Y-83966737D01*
X108631815Y-83966737D01*
X108490642Y-83966737D01*
X108490642Y-83278949D01*
X108299644Y-83278949D01*
X108299644Y-84295000D01*
X107721521Y-84295000D01*
X107721521Y-83857316D01*
X107773448Y-83856767D01*
X107825911Y-83854737D01*
X107875164Y-83850584D01*
X107924243Y-83841685D01*
X107952891Y-83832105D01*
X107999590Y-83809661D01*
X108040029Y-83780533D01*
X108074208Y-83744720D01*
X108093050Y-83717372D01*
X108114004Y-83671680D01*
X108126186Y-83620385D01*
X108129651Y-83570087D01*
X108129280Y-83552556D01*
X108123709Y-83502825D01*
X108109680Y-83452597D01*
X108087397Y-83407665D01*
X108057959Y-83368901D01*
X108018580Y-83334746D01*
X107971870Y-83309480D01*
X107941230Y-83299104D01*
X107890252Y-83288609D01*
X107836155Y-83282557D01*
X107782734Y-83279695D01*
X107733245Y-83278949D01*
X107529302Y-83278949D01*
X107529302Y-83669738D01*
X107084992Y-83669738D01*
X107081304Y-83666650D01*
X107039548Y-83630895D01*
X107002847Y-83598018D01*
X106968277Y-83562759D01*
X106951180Y-83515621D01*
X106951203Y-83514069D01*
X106975115Y-83470924D01*
X106988060Y-83462162D01*
X107037153Y-83450896D01*
X107075713Y-83457735D01*
X107118728Y-83481778D01*
X107156639Y-83517681D01*
X107189561Y-83560317D01*
X107331710Y-83430868D01*
X107307102Y-83402480D01*
X107268870Y-83363111D01*
X107227538Y-83327725D01*
X107183699Y-83299466D01*
X107140241Y-83280403D01*
X107090784Y-83267589D01*
X107039595Y-83263318D01*
X107032289Y-83263390D01*
X106983191Y-83267928D01*
X106931457Y-83281758D01*
X106884394Y-83304808D01*
X106842003Y-83337079D01*
X106810883Y-83370645D01*
X106784676Y-83412441D01*
X106767127Y-83463841D01*
X106762136Y-83513422D01*
X106767821Y-83562483D01*
X106784878Y-83611601D01*
X106810251Y-83656304D01*
X106828138Y-83680135D01*
X106862756Y-83718426D01*
X106901322Y-83755824D01*
X106939730Y-83790216D01*
X106983839Y-83827542D01*
X107023231Y-83859515D01*
X107062753Y-83891968D01*
X107101378Y-83926267D01*
X107135339Y-83962585D01*
X107147618Y-83981407D01*
X107160740Y-84029508D01*
X107156757Y-84053992D01*
X107127034Y-84094965D01*
X107094550Y-84114165D01*
X107043992Y-84123053D01*
X107032202Y-84122503D01*
X106981298Y-84106429D01*
X106939002Y-84073456D01*
X106904272Y-84030179D01*
X106876197Y-83982369D01*
X106714752Y-84083485D01*
X106603641Y-84083485D01*
X106603641Y-83152207D01*
X109439995Y-83152207D01*
X109439995Y-84421742D01*
G37*
G36*
X102166125Y-129307005D02*
G01*
X102214855Y-129311413D01*
X102261933Y-129326067D01*
X102296005Y-129360200D01*
X102307362Y-129409842D01*
X102306969Y-129419914D01*
X102291242Y-129466263D01*
X102287021Y-129471861D01*
X102246790Y-129499724D01*
X102197850Y-129508085D01*
X102146406Y-129509738D01*
X102085345Y-129509738D01*
X102085345Y-129306528D01*
X102139567Y-129306528D01*
X102166125Y-129307005D01*
G37*
G36*
X105159855Y-130261742D02*
G01*
X99750403Y-130261742D01*
X99750403Y-129806737D01*
X99861514Y-129806737D01*
X99862161Y-129816610D01*
X99869465Y-129873122D01*
X99882643Y-129924962D01*
X99901694Y-129972132D01*
X99926618Y-130014630D01*
X99963119Y-130058307D01*
X99999822Y-130089683D01*
X100047438Y-130118083D01*
X100100220Y-130137648D01*
X100149573Y-130147385D01*
X100202722Y-130150631D01*
X100221923Y-130150264D01*
X100276941Y-130144754D01*
X100318088Y-130135000D01*
X100603768Y-130135000D01*
X100818702Y-130135000D01*
X100995290Y-129889535D01*
X101172610Y-130135000D01*
X101390230Y-130135000D01*
X101103978Y-129738593D01*
X101268709Y-129509738D01*
X101893126Y-129509738D01*
X101893126Y-130135000D01*
X102085345Y-130135000D01*
X102085345Y-129697316D01*
X102137272Y-129696767D01*
X102189735Y-129694737D01*
X102238988Y-129690584D01*
X102288067Y-129681685D01*
X102316715Y-129672105D01*
X102363414Y-129649661D01*
X102403853Y-129620533D01*
X102438032Y-129584720D01*
X102456874Y-129557372D01*
X102477828Y-129511680D01*
X102490010Y-129460385D01*
X102493475Y-129410087D01*
X102493104Y-129392556D01*
X102487533Y-129342825D01*
X102473504Y-129292597D01*
X102451221Y-129247665D01*
X102421783Y-129208901D01*
X102382404Y-129174746D01*
X102335694Y-129149480D01*
X102305054Y-129139104D01*
X102254076Y-129128609D01*
X102199979Y-129122557D01*
X102146558Y-129119695D01*
X102097069Y-129118949D01*
X102600454Y-129118949D01*
X102829065Y-130135000D01*
X103011759Y-130135000D01*
X103194452Y-129478230D01*
X103380809Y-130135000D01*
X103565457Y-130135000D01*
X103859770Y-130135000D01*
X104047104Y-130135000D01*
X104157746Y-129493374D01*
X104369993Y-130135000D01*
X104539742Y-130135000D01*
X104754675Y-129493374D01*
X104863364Y-130135000D01*
X105048744Y-130135000D01*
X104878262Y-129118949D01*
X104692882Y-129118949D01*
X104455966Y-129827742D01*
X104222470Y-129118949D01*
X104034159Y-129118949D01*
X103859770Y-130135000D01*
X103565457Y-130135000D01*
X103792847Y-129118949D01*
X103603315Y-129118949D01*
X103458967Y-129767414D01*
X103276274Y-129118949D01*
X103116294Y-129118949D01*
X102935555Y-129767414D01*
X102789986Y-129118949D01*
X102600454Y-129118949D01*
X102097069Y-129118949D01*
X101893126Y-129118949D01*
X101893126Y-129509738D01*
X101268709Y-129509738D01*
X101358723Y-129384685D01*
X101143056Y-129384685D01*
X100996022Y-129589361D01*
X100848255Y-129384685D01*
X100630635Y-129384685D01*
X100887578Y-129740303D01*
X100603768Y-130135000D01*
X100318088Y-130135000D01*
X100328077Y-130132632D01*
X100375333Y-130113899D01*
X100418707Y-130088554D01*
X100458200Y-130056598D01*
X100487119Y-130026128D01*
X100519371Y-129980085D01*
X100542016Y-129930091D01*
X100555054Y-129876147D01*
X100558583Y-129826765D01*
X100558128Y-129809667D01*
X100551302Y-129760922D01*
X100534109Y-129711249D01*
X100506804Y-129666297D01*
X100493229Y-129649899D01*
X100453783Y-129614479D01*
X100411552Y-129589412D01*
X100362945Y-129570799D01*
X100395902Y-129552770D01*
X100437496Y-129520862D01*
X100469679Y-129483115D01*
X100482213Y-129462379D01*
X100500473Y-129414680D01*
X100506560Y-129363192D01*
X100501293Y-129312115D01*
X100485494Y-129264640D01*
X100459161Y-129220768D01*
X100422296Y-129180498D01*
X100411636Y-129171152D01*
X100365848Y-129139798D01*
X100315023Y-129118091D01*
X100266418Y-129107011D01*
X100213957Y-129103318D01*
X100171531Y-129105685D01*
X100116023Y-129116953D01*
X100065049Y-129137501D01*
X100018610Y-129167329D01*
X99982414Y-129200282D01*
X99952663Y-129238002D01*
X99929353Y-129281310D01*
X99912485Y-129330204D01*
X99902059Y-129384685D01*
X100086706Y-129384685D01*
X100099002Y-129355708D01*
X100132624Y-129317030D01*
X100158968Y-129301105D01*
X100207606Y-129290896D01*
X100237711Y-129293840D01*
X100283322Y-129315809D01*
X100297254Y-129330846D01*
X100312142Y-129378579D01*
X100311677Y-129387585D01*
X100293091Y-129433534D01*
X100281295Y-129447228D01*
X100240091Y-129474323D01*
X100235709Y-129476117D01*
X100187290Y-129488367D01*
X100136776Y-129494106D01*
X100136776Y-129666053D01*
X100164101Y-129667042D01*
X100213804Y-129673117D01*
X100261838Y-129686484D01*
X100309211Y-129712215D01*
X100329547Y-129729772D01*
X100359175Y-129772643D01*
X100369051Y-129822124D01*
X100368660Y-129833048D01*
X100354986Y-129882901D01*
X100324599Y-129922264D01*
X100310223Y-129934015D01*
X100264008Y-129956321D01*
X100213224Y-129963053D01*
X100197394Y-129962450D01*
X100147519Y-129950842D01*
X100106246Y-129924462D01*
X100087088Y-129902633D01*
X100063835Y-129856351D01*
X100051779Y-129806737D01*
X99861514Y-129806737D01*
X99750403Y-129806737D01*
X99750403Y-128992207D01*
X105159855Y-128992207D01*
X105159855Y-130261742D01*
G37*
D14*
G36*
X129969914Y-93746805D02*
G01*
X130016263Y-93762532D01*
X130021861Y-93766753D01*
X130049724Y-93806984D01*
X130058085Y-93855923D01*
X130059738Y-93907368D01*
X130059738Y-93968428D01*
X129856528Y-93968428D01*
X129856528Y-93914207D01*
X129857005Y-93887649D01*
X129861413Y-93838919D01*
X129876067Y-93791841D01*
X129910200Y-93757769D01*
X129959842Y-93746412D01*
X129969914Y-93746805D01*
G37*
G36*
X130229259Y-92572056D02*
G01*
X130277667Y-92582205D01*
X130330172Y-92602598D01*
X130378399Y-92632201D01*
X130416332Y-92664904D01*
X130444196Y-92695961D01*
X130475271Y-92742745D01*
X130497090Y-92793387D01*
X130509652Y-92847885D01*
X130513053Y-92897668D01*
X130511889Y-92927465D01*
X130504250Y-92977554D01*
X130489482Y-93025025D01*
X130467585Y-93069878D01*
X130438558Y-93112113D01*
X130420049Y-93133588D01*
X130379411Y-93170202D01*
X130333948Y-93198366D01*
X130283659Y-93218081D01*
X130228544Y-93229347D01*
X130178928Y-93232280D01*
X130169789Y-93232187D01*
X130117067Y-93227711D01*
X130067968Y-93216519D01*
X130022493Y-93198613D01*
X129974019Y-93169236D01*
X129936395Y-93136782D01*
X129903940Y-93099398D01*
X129874563Y-93051812D01*
X129854326Y-92999948D01*
X129844254Y-92952089D01*
X129840896Y-92901087D01*
X129843287Y-92858760D01*
X129854669Y-92802947D01*
X129875424Y-92751155D01*
X129905553Y-92703384D01*
X129938838Y-92665637D01*
X129977002Y-92632684D01*
X130025392Y-92602856D01*
X130077942Y-92582308D01*
X130126296Y-92572082D01*
X130177707Y-92568673D01*
X130229259Y-92572056D01*
G37*
G36*
X129994559Y-89791624D02*
G01*
X130036290Y-89821429D01*
X130047625Y-89845478D01*
X130057448Y-89896247D01*
X130059738Y-89948191D01*
X130059738Y-90008763D01*
X129856528Y-90008763D01*
X129856528Y-89955763D01*
X129856538Y-89951001D01*
X129858261Y-89901193D01*
X129867030Y-89850006D01*
X129869866Y-89842984D01*
X129901468Y-89804088D01*
X129909157Y-89799092D01*
X129957889Y-89786747D01*
X129994559Y-89791624D01*
G37*
G36*
X130811742Y-94852812D02*
G01*
X129542207Y-94852812D01*
X129542207Y-94741701D01*
X130231685Y-94741701D01*
X130403632Y-94741701D01*
X130403632Y-94392678D01*
X130231685Y-94392678D01*
X130231685Y-94741701D01*
X129542207Y-94741701D01*
X129542207Y-93956705D01*
X129668949Y-93956705D01*
X129668949Y-94160648D01*
X130685000Y-94160648D01*
X130685000Y-93968428D01*
X130247316Y-93968428D01*
X130246767Y-93916502D01*
X130244737Y-93864039D01*
X130240584Y-93814786D01*
X130231685Y-93765707D01*
X130222105Y-93737058D01*
X130199661Y-93690360D01*
X130170533Y-93649921D01*
X130134720Y-93615742D01*
X130107372Y-93596900D01*
X130061680Y-93575946D01*
X130010385Y-93563764D01*
X129960087Y-93560299D01*
X129942556Y-93560670D01*
X129892825Y-93566241D01*
X129842597Y-93580270D01*
X129797665Y-93602553D01*
X129758901Y-93631991D01*
X129724746Y-93671370D01*
X129699480Y-93718080D01*
X129689104Y-93748720D01*
X129678609Y-93799698D01*
X129672557Y-93853795D01*
X129669695Y-93907216D01*
X129669590Y-93914207D01*
X129668949Y-93956705D01*
X129542207Y-93956705D01*
X129542207Y-92899133D01*
X129653318Y-92899133D01*
X129653348Y-92901087D01*
X129653592Y-92916737D01*
X129657714Y-92968666D01*
X129666782Y-93019273D01*
X129680795Y-93068558D01*
X129699754Y-93116520D01*
X129723660Y-93163160D01*
X129732616Y-93178281D01*
X129761823Y-93221183D01*
X129794532Y-93260392D01*
X129830745Y-93295910D01*
X129870461Y-93327735D01*
X129913681Y-93355867D01*
X129928762Y-93364356D01*
X129975092Y-93386535D01*
X130023055Y-93403786D01*
X130072648Y-93416108D01*
X130123874Y-93423501D01*
X130176730Y-93425965D01*
X130229189Y-93423614D01*
X130279831Y-93416562D01*
X130328657Y-93404808D01*
X130375666Y-93388352D01*
X130420858Y-93367194D01*
X130464234Y-93341335D01*
X130505794Y-93310774D01*
X130545537Y-93275511D01*
X130581887Y-93236696D01*
X130613391Y-93195476D01*
X130640047Y-93151852D01*
X130661857Y-93105824D01*
X130678821Y-93057391D01*
X130690938Y-93006554D01*
X130698208Y-92953313D01*
X130700631Y-92897668D01*
X130698269Y-92844400D01*
X130691182Y-92793162D01*
X130679370Y-92743955D01*
X130662834Y-92696778D01*
X130641574Y-92651631D01*
X130615589Y-92608515D01*
X130584879Y-92567429D01*
X130549445Y-92528373D01*
X130510599Y-92492709D01*
X130469654Y-92461801D01*
X130426610Y-92435648D01*
X130381467Y-92414250D01*
X130334225Y-92397607D01*
X130284884Y-92385720D01*
X130233444Y-92378587D01*
X130179905Y-92376209D01*
X130125878Y-92378621D01*
X130073950Y-92385857D01*
X130024120Y-92397916D01*
X129976390Y-92414800D01*
X129930759Y-92436507D01*
X129887226Y-92463038D01*
X129845793Y-92494392D01*
X129806458Y-92530571D01*
X129770566Y-92570043D01*
X129739459Y-92611400D01*
X129713138Y-92654642D01*
X129691603Y-92699770D01*
X129674853Y-92746783D01*
X129662889Y-92795681D01*
X129655711Y-92846465D01*
X129653318Y-92899133D01*
X129542207Y-92899133D01*
X129542207Y-91275163D01*
X129668949Y-91275163D01*
X130317414Y-91419510D01*
X129668949Y-91602204D01*
X129668949Y-91762183D01*
X130317414Y-91942923D01*
X129668949Y-92088491D01*
X129668949Y-92278024D01*
X130685000Y-92049412D01*
X130685000Y-91866719D01*
X130028230Y-91684025D01*
X130685000Y-91497668D01*
X130685000Y-91313020D01*
X129668949Y-91085630D01*
X129668949Y-91275163D01*
X129542207Y-91275163D01*
X129542207Y-90941283D01*
X129668949Y-90941283D01*
X130685000Y-90941283D01*
X130685000Y-90389538D01*
X130497421Y-90389538D01*
X130497421Y-90750285D01*
X130231685Y-90750285D01*
X130231685Y-90389538D01*
X130044106Y-90389538D01*
X130044106Y-90750285D01*
X129856528Y-90750285D01*
X129856528Y-90389538D01*
X129668949Y-90389538D01*
X129668949Y-90941283D01*
X129542207Y-90941283D01*
X129542207Y-89997040D01*
X129668949Y-89997040D01*
X129668949Y-90200983D01*
X130685000Y-90200983D01*
X130685000Y-90008763D01*
X130247316Y-90008763D01*
X130247316Y-89990689D01*
X130685000Y-89763299D01*
X130685000Y-89553250D01*
X130226067Y-89792364D01*
X130219372Y-89774748D01*
X130195888Y-89727025D01*
X130163812Y-89683019D01*
X130125439Y-89648505D01*
X130108323Y-89637285D01*
X130061092Y-89615780D01*
X130013159Y-89604420D01*
X129960087Y-89600634D01*
X129942677Y-89601014D01*
X129893099Y-89606713D01*
X129842681Y-89621067D01*
X129797177Y-89643865D01*
X129757969Y-89673627D01*
X129723711Y-89712702D01*
X129698747Y-89758414D01*
X129688620Y-89788459D01*
X129678377Y-89839071D01*
X129672470Y-89893249D01*
X129669677Y-89947036D01*
X129669550Y-89955763D01*
X129668949Y-89997040D01*
X129542207Y-89997040D01*
X129542207Y-89009322D01*
X129856528Y-89009322D01*
X129856528Y-89181024D01*
X130106632Y-89181024D01*
X130106632Y-89438701D01*
X130278579Y-89438701D01*
X130278579Y-89181024D01*
X130528684Y-89181024D01*
X130528684Y-89009322D01*
X130278579Y-89009322D01*
X130278579Y-88752378D01*
X130106632Y-88752378D01*
X130106632Y-89009322D01*
X129856528Y-89009322D01*
X129542207Y-89009322D01*
X129542207Y-88641267D01*
X130811742Y-88641267D01*
X130811742Y-94852812D01*
G37*
D13*
X101358540Y-97466666D02*
X101406160Y-97514285D01*
X101406160Y-97514285D02*
X101453779Y-97657142D01*
X101453779Y-97657142D02*
X101453779Y-97752380D01*
X101453779Y-97752380D02*
X101406160Y-97895237D01*
X101406160Y-97895237D02*
X101310921Y-97990475D01*
X101310921Y-97990475D02*
X101215683Y-98038094D01*
X101215683Y-98038094D02*
X101025207Y-98085713D01*
X101025207Y-98085713D02*
X100882350Y-98085713D01*
X100882350Y-98085713D02*
X100691874Y-98038094D01*
X100691874Y-98038094D02*
X100596636Y-97990475D01*
X100596636Y-97990475D02*
X100501398Y-97895237D01*
X100501398Y-97895237D02*
X100453779Y-97752380D01*
X100453779Y-97752380D02*
X100453779Y-97657142D01*
X100453779Y-97657142D02*
X100501398Y-97514285D01*
X100501398Y-97514285D02*
X100549017Y-97466666D01*
X100549017Y-97085713D02*
X100501398Y-97038094D01*
X100501398Y-97038094D02*
X100453779Y-96942856D01*
X100453779Y-96942856D02*
X100453779Y-96704761D01*
X100453779Y-96704761D02*
X100501398Y-96609523D01*
X100501398Y-96609523D02*
X100549017Y-96561904D01*
X100549017Y-96561904D02*
X100644255Y-96514285D01*
X100644255Y-96514285D02*
X100739493Y-96514285D01*
X100739493Y-96514285D02*
X100882350Y-96561904D01*
X100882350Y-96561904D02*
X101453779Y-97133332D01*
X101453779Y-97133332D02*
X101453779Y-96514285D01*
X93358540Y-102741666D02*
X93406160Y-102789285D01*
X93406160Y-102789285D02*
X93453779Y-102932142D01*
X93453779Y-102932142D02*
X93453779Y-103027380D01*
X93453779Y-103027380D02*
X93406160Y-103170237D01*
X93406160Y-103170237D02*
X93310921Y-103265475D01*
X93310921Y-103265475D02*
X93215683Y-103313094D01*
X93215683Y-103313094D02*
X93025207Y-103360713D01*
X93025207Y-103360713D02*
X92882350Y-103360713D01*
X92882350Y-103360713D02*
X92691874Y-103313094D01*
X92691874Y-103313094D02*
X92596636Y-103265475D01*
X92596636Y-103265475D02*
X92501398Y-103170237D01*
X92501398Y-103170237D02*
X92453779Y-103027380D01*
X92453779Y-103027380D02*
X92453779Y-102932142D01*
X92453779Y-102932142D02*
X92501398Y-102789285D01*
X92501398Y-102789285D02*
X92549017Y-102741666D01*
X92882350Y-102170237D02*
X92834731Y-102265475D01*
X92834731Y-102265475D02*
X92787112Y-102313094D01*
X92787112Y-102313094D02*
X92691874Y-102360713D01*
X92691874Y-102360713D02*
X92644255Y-102360713D01*
X92644255Y-102360713D02*
X92549017Y-102313094D01*
X92549017Y-102313094D02*
X92501398Y-102265475D01*
X92501398Y-102265475D02*
X92453779Y-102170237D01*
X92453779Y-102170237D02*
X92453779Y-101979761D01*
X92453779Y-101979761D02*
X92501398Y-101884523D01*
X92501398Y-101884523D02*
X92549017Y-101836904D01*
X92549017Y-101836904D02*
X92644255Y-101789285D01*
X92644255Y-101789285D02*
X92691874Y-101789285D01*
X92691874Y-101789285D02*
X92787112Y-101836904D01*
X92787112Y-101836904D02*
X92834731Y-101884523D01*
X92834731Y-101884523D02*
X92882350Y-101979761D01*
X92882350Y-101979761D02*
X92882350Y-102170237D01*
X92882350Y-102170237D02*
X92929969Y-102265475D01*
X92929969Y-102265475D02*
X92977588Y-102313094D01*
X92977588Y-102313094D02*
X93072826Y-102360713D01*
X93072826Y-102360713D02*
X93263302Y-102360713D01*
X93263302Y-102360713D02*
X93358540Y-102313094D01*
X93358540Y-102313094D02*
X93406160Y-102265475D01*
X93406160Y-102265475D02*
X93453779Y-102170237D01*
X93453779Y-102170237D02*
X93453779Y-101979761D01*
X93453779Y-101979761D02*
X93406160Y-101884523D01*
X93406160Y-101884523D02*
X93358540Y-101836904D01*
X93358540Y-101836904D02*
X93263302Y-101789285D01*
X93263302Y-101789285D02*
X93072826Y-101789285D01*
X93072826Y-101789285D02*
X92977588Y-101836904D01*
X92977588Y-101836904D02*
X92929969Y-101884523D01*
X92929969Y-101884523D02*
X92882350Y-101979761D01*
X89258540Y-94542857D02*
X89306160Y-94590476D01*
X89306160Y-94590476D02*
X89353779Y-94733333D01*
X89353779Y-94733333D02*
X89353779Y-94828571D01*
X89353779Y-94828571D02*
X89306160Y-94971428D01*
X89306160Y-94971428D02*
X89210921Y-95066666D01*
X89210921Y-95066666D02*
X89115683Y-95114285D01*
X89115683Y-95114285D02*
X88925207Y-95161904D01*
X88925207Y-95161904D02*
X88782350Y-95161904D01*
X88782350Y-95161904D02*
X88591874Y-95114285D01*
X88591874Y-95114285D02*
X88496636Y-95066666D01*
X88496636Y-95066666D02*
X88401398Y-94971428D01*
X88401398Y-94971428D02*
X88353779Y-94828571D01*
X88353779Y-94828571D02*
X88353779Y-94733333D01*
X88353779Y-94733333D02*
X88401398Y-94590476D01*
X88401398Y-94590476D02*
X88449017Y-94542857D01*
X89353779Y-93590476D02*
X89353779Y-94161904D01*
X89353779Y-93876190D02*
X88353779Y-93876190D01*
X88353779Y-93876190D02*
X88496636Y-93971428D01*
X88496636Y-93971428D02*
X88591874Y-94066666D01*
X88591874Y-94066666D02*
X88639493Y-94161904D01*
X88449017Y-93209523D02*
X88401398Y-93161904D01*
X88401398Y-93161904D02*
X88353779Y-93066666D01*
X88353779Y-93066666D02*
X88353779Y-92828571D01*
X88353779Y-92828571D02*
X88401398Y-92733333D01*
X88401398Y-92733333D02*
X88449017Y-92685714D01*
X88449017Y-92685714D02*
X88544255Y-92638095D01*
X88544255Y-92638095D02*
X88639493Y-92638095D01*
X88639493Y-92638095D02*
X88782350Y-92685714D01*
X88782350Y-92685714D02*
X89353779Y-93257142D01*
X89353779Y-93257142D02*
X89353779Y-92638095D01*
X115738095Y-104753779D02*
X115738095Y-105563302D01*
X115738095Y-105563302D02*
X115785714Y-105658540D01*
X115785714Y-105658540D02*
X115833333Y-105706160D01*
X115833333Y-105706160D02*
X115928571Y-105753779D01*
X115928571Y-105753779D02*
X116119047Y-105753779D01*
X116119047Y-105753779D02*
X116214285Y-105706160D01*
X116214285Y-105706160D02*
X116261904Y-105658540D01*
X116261904Y-105658540D02*
X116309523Y-105563302D01*
X116309523Y-105563302D02*
X116309523Y-104753779D01*
X116690476Y-104753779D02*
X117357142Y-104753779D01*
X117357142Y-104753779D02*
X116928571Y-105753779D01*
X126100595Y-101153779D02*
X126100595Y-101963302D01*
X126100595Y-101963302D02*
X126148214Y-102058540D01*
X126148214Y-102058540D02*
X126195833Y-102106160D01*
X126195833Y-102106160D02*
X126291071Y-102153779D01*
X126291071Y-102153779D02*
X126481547Y-102153779D01*
X126481547Y-102153779D02*
X126576785Y-102106160D01*
X126576785Y-102106160D02*
X126624404Y-102058540D01*
X126624404Y-102058540D02*
X126672023Y-101963302D01*
X126672023Y-101963302D02*
X126672023Y-101153779D01*
X127576785Y-101487112D02*
X127576785Y-102153779D01*
X127338690Y-101106160D02*
X127100595Y-101820445D01*
X127100595Y-101820445D02*
X127719642Y-101820445D01*
X122911905Y-89033779D02*
X122911905Y-88033779D01*
X122911905Y-88033779D02*
X123150000Y-88033779D01*
X123150000Y-88033779D02*
X123292857Y-88081398D01*
X123292857Y-88081398D02*
X123388095Y-88176636D01*
X123388095Y-88176636D02*
X123435714Y-88271874D01*
X123435714Y-88271874D02*
X123483333Y-88462350D01*
X123483333Y-88462350D02*
X123483333Y-88605207D01*
X123483333Y-88605207D02*
X123435714Y-88795683D01*
X123435714Y-88795683D02*
X123388095Y-88890921D01*
X123388095Y-88890921D02*
X123292857Y-88986160D01*
X123292857Y-88986160D02*
X123150000Y-89033779D01*
X123150000Y-89033779D02*
X122911905Y-89033779D01*
X123864286Y-88129017D02*
X123911905Y-88081398D01*
X123911905Y-88081398D02*
X124007143Y-88033779D01*
X124007143Y-88033779D02*
X124245238Y-88033779D01*
X124245238Y-88033779D02*
X124340476Y-88081398D01*
X124340476Y-88081398D02*
X124388095Y-88129017D01*
X124388095Y-88129017D02*
X124435714Y-88224255D01*
X124435714Y-88224255D02*
X124435714Y-88319493D01*
X124435714Y-88319493D02*
X124388095Y-88462350D01*
X124388095Y-88462350D02*
X123816667Y-89033779D01*
X123816667Y-89033779D02*
X124435714Y-89033779D01*
X92553779Y-106009523D02*
X93553779Y-105342857D01*
X92553779Y-105342857D02*
X93553779Y-106009523D01*
X93553779Y-104438095D02*
X93553779Y-105009523D01*
X93553779Y-104723809D02*
X92553779Y-104723809D01*
X92553779Y-104723809D02*
X92696636Y-104819047D01*
X92696636Y-104819047D02*
X92791874Y-104914285D01*
X92791874Y-104914285D02*
X92839493Y-105009523D01*
X126633540Y-108167857D02*
X126681160Y-108215476D01*
X126681160Y-108215476D02*
X126728779Y-108358333D01*
X126728779Y-108358333D02*
X126728779Y-108453571D01*
X126728779Y-108453571D02*
X126681160Y-108596428D01*
X126681160Y-108596428D02*
X126585921Y-108691666D01*
X126585921Y-108691666D02*
X126490683Y-108739285D01*
X126490683Y-108739285D02*
X126300207Y-108786904D01*
X126300207Y-108786904D02*
X126157350Y-108786904D01*
X126157350Y-108786904D02*
X125966874Y-108739285D01*
X125966874Y-108739285D02*
X125871636Y-108691666D01*
X125871636Y-108691666D02*
X125776398Y-108596428D01*
X125776398Y-108596428D02*
X125728779Y-108453571D01*
X125728779Y-108453571D02*
X125728779Y-108358333D01*
X125728779Y-108358333D02*
X125776398Y-108215476D01*
X125776398Y-108215476D02*
X125824017Y-108167857D01*
X126728779Y-107215476D02*
X126728779Y-107786904D01*
X126728779Y-107501190D02*
X125728779Y-107501190D01*
X125728779Y-107501190D02*
X125871636Y-107596428D01*
X125871636Y-107596428D02*
X125966874Y-107691666D01*
X125966874Y-107691666D02*
X126014493Y-107786904D01*
X126157350Y-106644047D02*
X126109731Y-106739285D01*
X126109731Y-106739285D02*
X126062112Y-106786904D01*
X126062112Y-106786904D02*
X125966874Y-106834523D01*
X125966874Y-106834523D02*
X125919255Y-106834523D01*
X125919255Y-106834523D02*
X125824017Y-106786904D01*
X125824017Y-106786904D02*
X125776398Y-106739285D01*
X125776398Y-106739285D02*
X125728779Y-106644047D01*
X125728779Y-106644047D02*
X125728779Y-106453571D01*
X125728779Y-106453571D02*
X125776398Y-106358333D01*
X125776398Y-106358333D02*
X125824017Y-106310714D01*
X125824017Y-106310714D02*
X125919255Y-106263095D01*
X125919255Y-106263095D02*
X125966874Y-106263095D01*
X125966874Y-106263095D02*
X126062112Y-106310714D01*
X126062112Y-106310714D02*
X126109731Y-106358333D01*
X126109731Y-106358333D02*
X126157350Y-106453571D01*
X126157350Y-106453571D02*
X126157350Y-106644047D01*
X126157350Y-106644047D02*
X126204969Y-106739285D01*
X126204969Y-106739285D02*
X126252588Y-106786904D01*
X126252588Y-106786904D02*
X126347826Y-106834523D01*
X126347826Y-106834523D02*
X126538302Y-106834523D01*
X126538302Y-106834523D02*
X126633540Y-106786904D01*
X126633540Y-106786904D02*
X126681160Y-106739285D01*
X126681160Y-106739285D02*
X126728779Y-106644047D01*
X126728779Y-106644047D02*
X126728779Y-106453571D01*
X126728779Y-106453571D02*
X126681160Y-106358333D01*
X126681160Y-106358333D02*
X126633540Y-106310714D01*
X126633540Y-106310714D02*
X126538302Y-106263095D01*
X126538302Y-106263095D02*
X126347826Y-106263095D01*
X126347826Y-106263095D02*
X126252588Y-106310714D01*
X126252588Y-106310714D02*
X126204969Y-106358333D01*
X126204969Y-106358333D02*
X126157350Y-106453571D01*
X120208540Y-116917857D02*
X120256160Y-116965476D01*
X120256160Y-116965476D02*
X120303779Y-117108333D01*
X120303779Y-117108333D02*
X120303779Y-117203571D01*
X120303779Y-117203571D02*
X120256160Y-117346428D01*
X120256160Y-117346428D02*
X120160921Y-117441666D01*
X120160921Y-117441666D02*
X120065683Y-117489285D01*
X120065683Y-117489285D02*
X119875207Y-117536904D01*
X119875207Y-117536904D02*
X119732350Y-117536904D01*
X119732350Y-117536904D02*
X119541874Y-117489285D01*
X119541874Y-117489285D02*
X119446636Y-117441666D01*
X119446636Y-117441666D02*
X119351398Y-117346428D01*
X119351398Y-117346428D02*
X119303779Y-117203571D01*
X119303779Y-117203571D02*
X119303779Y-117108333D01*
X119303779Y-117108333D02*
X119351398Y-116965476D01*
X119351398Y-116965476D02*
X119399017Y-116917857D01*
X120303779Y-115965476D02*
X120303779Y-116536904D01*
X120303779Y-116251190D02*
X119303779Y-116251190D01*
X119303779Y-116251190D02*
X119446636Y-116346428D01*
X119446636Y-116346428D02*
X119541874Y-116441666D01*
X119541874Y-116441666D02*
X119589493Y-116536904D01*
X119303779Y-115632142D02*
X119303779Y-114965476D01*
X119303779Y-114965476D02*
X120303779Y-115394047D01*
X97083333Y-108258540D02*
X97035714Y-108306160D01*
X97035714Y-108306160D02*
X96892857Y-108353779D01*
X96892857Y-108353779D02*
X96797619Y-108353779D01*
X96797619Y-108353779D02*
X96654762Y-108306160D01*
X96654762Y-108306160D02*
X96559524Y-108210921D01*
X96559524Y-108210921D02*
X96511905Y-108115683D01*
X96511905Y-108115683D02*
X96464286Y-107925207D01*
X96464286Y-107925207D02*
X96464286Y-107782350D01*
X96464286Y-107782350D02*
X96511905Y-107591874D01*
X96511905Y-107591874D02*
X96559524Y-107496636D01*
X96559524Y-107496636D02*
X96654762Y-107401398D01*
X96654762Y-107401398D02*
X96797619Y-107353779D01*
X96797619Y-107353779D02*
X96892857Y-107353779D01*
X96892857Y-107353779D02*
X97035714Y-107401398D01*
X97035714Y-107401398D02*
X97083333Y-107449017D01*
X97559524Y-108353779D02*
X97750000Y-108353779D01*
X97750000Y-108353779D02*
X97845238Y-108306160D01*
X97845238Y-108306160D02*
X97892857Y-108258540D01*
X97892857Y-108258540D02*
X97988095Y-108115683D01*
X97988095Y-108115683D02*
X98035714Y-107925207D01*
X98035714Y-107925207D02*
X98035714Y-107544255D01*
X98035714Y-107544255D02*
X97988095Y-107449017D01*
X97988095Y-107449017D02*
X97940476Y-107401398D01*
X97940476Y-107401398D02*
X97845238Y-107353779D01*
X97845238Y-107353779D02*
X97654762Y-107353779D01*
X97654762Y-107353779D02*
X97559524Y-107401398D01*
X97559524Y-107401398D02*
X97511905Y-107449017D01*
X97511905Y-107449017D02*
X97464286Y-107544255D01*
X97464286Y-107544255D02*
X97464286Y-107782350D01*
X97464286Y-107782350D02*
X97511905Y-107877588D01*
X97511905Y-107877588D02*
X97559524Y-107925207D01*
X97559524Y-107925207D02*
X97654762Y-107972826D01*
X97654762Y-107972826D02*
X97845238Y-107972826D01*
X97845238Y-107972826D02*
X97940476Y-107925207D01*
X97940476Y-107925207D02*
X97988095Y-107877588D01*
X97988095Y-107877588D02*
X98035714Y-107782350D01*
X93409048Y-123472826D02*
X94170953Y-123472826D01*
X93790000Y-123853779D02*
X93790000Y-123091874D01*
X95558540Y-97942857D02*
X95606160Y-97990476D01*
X95606160Y-97990476D02*
X95653779Y-98133333D01*
X95653779Y-98133333D02*
X95653779Y-98228571D01*
X95653779Y-98228571D02*
X95606160Y-98371428D01*
X95606160Y-98371428D02*
X95510921Y-98466666D01*
X95510921Y-98466666D02*
X95415683Y-98514285D01*
X95415683Y-98514285D02*
X95225207Y-98561904D01*
X95225207Y-98561904D02*
X95082350Y-98561904D01*
X95082350Y-98561904D02*
X94891874Y-98514285D01*
X94891874Y-98514285D02*
X94796636Y-98466666D01*
X94796636Y-98466666D02*
X94701398Y-98371428D01*
X94701398Y-98371428D02*
X94653779Y-98228571D01*
X94653779Y-98228571D02*
X94653779Y-98133333D01*
X94653779Y-98133333D02*
X94701398Y-97990476D01*
X94701398Y-97990476D02*
X94749017Y-97942857D01*
X95653779Y-96990476D02*
X95653779Y-97561904D01*
X95653779Y-97276190D02*
X94653779Y-97276190D01*
X94653779Y-97276190D02*
X94796636Y-97371428D01*
X94796636Y-97371428D02*
X94891874Y-97466666D01*
X94891874Y-97466666D02*
X94939493Y-97561904D01*
X95653779Y-96038095D02*
X95653779Y-96609523D01*
X95653779Y-96323809D02*
X94653779Y-96323809D01*
X94653779Y-96323809D02*
X94796636Y-96419047D01*
X94796636Y-96419047D02*
X94891874Y-96514285D01*
X94891874Y-96514285D02*
X94939493Y-96609523D01*
X86353779Y-123761904D02*
X87163302Y-123761904D01*
X87163302Y-123761904D02*
X87258540Y-123714285D01*
X87258540Y-123714285D02*
X87306160Y-123666666D01*
X87306160Y-123666666D02*
X87353779Y-123571428D01*
X87353779Y-123571428D02*
X87353779Y-123380952D01*
X87353779Y-123380952D02*
X87306160Y-123285714D01*
X87306160Y-123285714D02*
X87258540Y-123238095D01*
X87258540Y-123238095D02*
X87163302Y-123190476D01*
X87163302Y-123190476D02*
X86353779Y-123190476D01*
X86353779Y-122285714D02*
X86353779Y-122476190D01*
X86353779Y-122476190D02*
X86401398Y-122571428D01*
X86401398Y-122571428D02*
X86449017Y-122619047D01*
X86449017Y-122619047D02*
X86591874Y-122714285D01*
X86591874Y-122714285D02*
X86782350Y-122761904D01*
X86782350Y-122761904D02*
X87163302Y-122761904D01*
X87163302Y-122761904D02*
X87258540Y-122714285D01*
X87258540Y-122714285D02*
X87306160Y-122666666D01*
X87306160Y-122666666D02*
X87353779Y-122571428D01*
X87353779Y-122571428D02*
X87353779Y-122380952D01*
X87353779Y-122380952D02*
X87306160Y-122285714D01*
X87306160Y-122285714D02*
X87258540Y-122238095D01*
X87258540Y-122238095D02*
X87163302Y-122190476D01*
X87163302Y-122190476D02*
X86925207Y-122190476D01*
X86925207Y-122190476D02*
X86829969Y-122238095D01*
X86829969Y-122238095D02*
X86782350Y-122285714D01*
X86782350Y-122285714D02*
X86734731Y-122380952D01*
X86734731Y-122380952D02*
X86734731Y-122571428D01*
X86734731Y-122571428D02*
X86782350Y-122666666D01*
X86782350Y-122666666D02*
X86829969Y-122714285D01*
X86829969Y-122714285D02*
X86925207Y-122761904D01*
X115453779Y-97476666D02*
X114977588Y-97809999D01*
X115453779Y-98048094D02*
X114453779Y-98048094D01*
X114453779Y-98048094D02*
X114453779Y-97667142D01*
X114453779Y-97667142D02*
X114501398Y-97571904D01*
X114501398Y-97571904D02*
X114549017Y-97524285D01*
X114549017Y-97524285D02*
X114644255Y-97476666D01*
X114644255Y-97476666D02*
X114787112Y-97476666D01*
X114787112Y-97476666D02*
X114882350Y-97524285D01*
X114882350Y-97524285D02*
X114929969Y-97571904D01*
X114929969Y-97571904D02*
X114977588Y-97667142D01*
X114977588Y-97667142D02*
X114977588Y-98048094D01*
X114453779Y-96571904D02*
X114453779Y-97048094D01*
X114453779Y-97048094D02*
X114929969Y-97095713D01*
X114929969Y-97095713D02*
X114882350Y-97048094D01*
X114882350Y-97048094D02*
X114834731Y-96952856D01*
X114834731Y-96952856D02*
X114834731Y-96714761D01*
X114834731Y-96714761D02*
X114882350Y-96619523D01*
X114882350Y-96619523D02*
X114929969Y-96571904D01*
X114929969Y-96571904D02*
X115025207Y-96524285D01*
X115025207Y-96524285D02*
X115263302Y-96524285D01*
X115263302Y-96524285D02*
X115358540Y-96571904D01*
X115358540Y-96571904D02*
X115406160Y-96619523D01*
X115406160Y-96619523D02*
X115453779Y-96714761D01*
X115453779Y-96714761D02*
X115453779Y-96952856D01*
X115453779Y-96952856D02*
X115406160Y-97048094D01*
X115406160Y-97048094D02*
X115358540Y-97095713D01*
X93233333Y-111653779D02*
X92900000Y-111177588D01*
X92661905Y-111653779D02*
X92661905Y-110653779D01*
X92661905Y-110653779D02*
X93042857Y-110653779D01*
X93042857Y-110653779D02*
X93138095Y-110701398D01*
X93138095Y-110701398D02*
X93185714Y-110749017D01*
X93185714Y-110749017D02*
X93233333Y-110844255D01*
X93233333Y-110844255D02*
X93233333Y-110987112D01*
X93233333Y-110987112D02*
X93185714Y-111082350D01*
X93185714Y-111082350D02*
X93138095Y-111129969D01*
X93138095Y-111129969D02*
X93042857Y-111177588D01*
X93042857Y-111177588D02*
X92661905Y-111177588D01*
X93566667Y-110653779D02*
X94233333Y-110653779D01*
X94233333Y-110653779D02*
X93804762Y-111653779D01*
X97190476Y-101453779D02*
X97857142Y-102453779D01*
X97857142Y-101453779D02*
X97190476Y-102453779D01*
X98190476Y-101549017D02*
X98238095Y-101501398D01*
X98238095Y-101501398D02*
X98333333Y-101453779D01*
X98333333Y-101453779D02*
X98571428Y-101453779D01*
X98571428Y-101453779D02*
X98666666Y-101501398D01*
X98666666Y-101501398D02*
X98714285Y-101549017D01*
X98714285Y-101549017D02*
X98761904Y-101644255D01*
X98761904Y-101644255D02*
X98761904Y-101739493D01*
X98761904Y-101739493D02*
X98714285Y-101882350D01*
X98714285Y-101882350D02*
X98142857Y-102453779D01*
X98142857Y-102453779D02*
X98761904Y-102453779D01*
X102958540Y-95141666D02*
X103006160Y-95189285D01*
X103006160Y-95189285D02*
X103053779Y-95332142D01*
X103053779Y-95332142D02*
X103053779Y-95427380D01*
X103053779Y-95427380D02*
X103006160Y-95570237D01*
X103006160Y-95570237D02*
X102910921Y-95665475D01*
X102910921Y-95665475D02*
X102815683Y-95713094D01*
X102815683Y-95713094D02*
X102625207Y-95760713D01*
X102625207Y-95760713D02*
X102482350Y-95760713D01*
X102482350Y-95760713D02*
X102291874Y-95713094D01*
X102291874Y-95713094D02*
X102196636Y-95665475D01*
X102196636Y-95665475D02*
X102101398Y-95570237D01*
X102101398Y-95570237D02*
X102053779Y-95427380D01*
X102053779Y-95427380D02*
X102053779Y-95332142D01*
X102053779Y-95332142D02*
X102101398Y-95189285D01*
X102101398Y-95189285D02*
X102149017Y-95141666D01*
X103053779Y-94189285D02*
X103053779Y-94760713D01*
X103053779Y-94474999D02*
X102053779Y-94474999D01*
X102053779Y-94474999D02*
X102196636Y-94570237D01*
X102196636Y-94570237D02*
X102291874Y-94665475D01*
X102291874Y-94665475D02*
X102339493Y-94760713D01*
X98683540Y-116866666D02*
X98731160Y-116914285D01*
X98731160Y-116914285D02*
X98778779Y-117057142D01*
X98778779Y-117057142D02*
X98778779Y-117152380D01*
X98778779Y-117152380D02*
X98731160Y-117295237D01*
X98731160Y-117295237D02*
X98635921Y-117390475D01*
X98635921Y-117390475D02*
X98540683Y-117438094D01*
X98540683Y-117438094D02*
X98350207Y-117485713D01*
X98350207Y-117485713D02*
X98207350Y-117485713D01*
X98207350Y-117485713D02*
X98016874Y-117438094D01*
X98016874Y-117438094D02*
X97921636Y-117390475D01*
X97921636Y-117390475D02*
X97826398Y-117295237D01*
X97826398Y-117295237D02*
X97778779Y-117152380D01*
X97778779Y-117152380D02*
X97778779Y-117057142D01*
X97778779Y-117057142D02*
X97826398Y-116914285D01*
X97826398Y-116914285D02*
X97874017Y-116866666D01*
X98112112Y-116009523D02*
X98778779Y-116009523D01*
X97731160Y-116247618D02*
X98445445Y-116485713D01*
X98445445Y-116485713D02*
X98445445Y-115866666D01*
X100283540Y-116866666D02*
X100331160Y-116914285D01*
X100331160Y-116914285D02*
X100378779Y-117057142D01*
X100378779Y-117057142D02*
X100378779Y-117152380D01*
X100378779Y-117152380D02*
X100331160Y-117295237D01*
X100331160Y-117295237D02*
X100235921Y-117390475D01*
X100235921Y-117390475D02*
X100140683Y-117438094D01*
X100140683Y-117438094D02*
X99950207Y-117485713D01*
X99950207Y-117485713D02*
X99807350Y-117485713D01*
X99807350Y-117485713D02*
X99616874Y-117438094D01*
X99616874Y-117438094D02*
X99521636Y-117390475D01*
X99521636Y-117390475D02*
X99426398Y-117295237D01*
X99426398Y-117295237D02*
X99378779Y-117152380D01*
X99378779Y-117152380D02*
X99378779Y-117057142D01*
X99378779Y-117057142D02*
X99426398Y-116914285D01*
X99426398Y-116914285D02*
X99474017Y-116866666D01*
X99378779Y-116533332D02*
X99378779Y-115914285D01*
X99378779Y-115914285D02*
X99759731Y-116247618D01*
X99759731Y-116247618D02*
X99759731Y-116104761D01*
X99759731Y-116104761D02*
X99807350Y-116009523D01*
X99807350Y-116009523D02*
X99854969Y-115961904D01*
X99854969Y-115961904D02*
X99950207Y-115914285D01*
X99950207Y-115914285D02*
X100188302Y-115914285D01*
X100188302Y-115914285D02*
X100283540Y-115961904D01*
X100283540Y-115961904D02*
X100331160Y-116009523D01*
X100331160Y-116009523D02*
X100378779Y-116104761D01*
X100378779Y-116104761D02*
X100378779Y-116390475D01*
X100378779Y-116390475D02*
X100331160Y-116485713D01*
X100331160Y-116485713D02*
X100283540Y-116533332D01*
X116833333Y-102608540D02*
X116785714Y-102656160D01*
X116785714Y-102656160D02*
X116642857Y-102703779D01*
X116642857Y-102703779D02*
X116547619Y-102703779D01*
X116547619Y-102703779D02*
X116404762Y-102656160D01*
X116404762Y-102656160D02*
X116309524Y-102560921D01*
X116309524Y-102560921D02*
X116261905Y-102465683D01*
X116261905Y-102465683D02*
X116214286Y-102275207D01*
X116214286Y-102275207D02*
X116214286Y-102132350D01*
X116214286Y-102132350D02*
X116261905Y-101941874D01*
X116261905Y-101941874D02*
X116309524Y-101846636D01*
X116309524Y-101846636D02*
X116404762Y-101751398D01*
X116404762Y-101751398D02*
X116547619Y-101703779D01*
X116547619Y-101703779D02*
X116642857Y-101703779D01*
X116642857Y-101703779D02*
X116785714Y-101751398D01*
X116785714Y-101751398D02*
X116833333Y-101799017D01*
X117738095Y-101703779D02*
X117261905Y-101703779D01*
X117261905Y-101703779D02*
X117214286Y-102179969D01*
X117214286Y-102179969D02*
X117261905Y-102132350D01*
X117261905Y-102132350D02*
X117357143Y-102084731D01*
X117357143Y-102084731D02*
X117595238Y-102084731D01*
X117595238Y-102084731D02*
X117690476Y-102132350D01*
X117690476Y-102132350D02*
X117738095Y-102179969D01*
X117738095Y-102179969D02*
X117785714Y-102275207D01*
X117785714Y-102275207D02*
X117785714Y-102513302D01*
X117785714Y-102513302D02*
X117738095Y-102608540D01*
X117738095Y-102608540D02*
X117690476Y-102656160D01*
X117690476Y-102656160D02*
X117595238Y-102703779D01*
X117595238Y-102703779D02*
X117357143Y-102703779D01*
X117357143Y-102703779D02*
X117261905Y-102656160D01*
X117261905Y-102656160D02*
X117214286Y-102608540D01*
X106545833Y-114703779D02*
X106069643Y-114703779D01*
X106069643Y-114703779D02*
X106069643Y-113703779D01*
X107402976Y-114703779D02*
X106831548Y-114703779D01*
X107117262Y-114703779D02*
X107117262Y-113703779D01*
X107117262Y-113703779D02*
X107022024Y-113846636D01*
X107022024Y-113846636D02*
X106926786Y-113941874D01*
X106926786Y-113941874D02*
X106831548Y-113989493D01*
X98458540Y-97942857D02*
X98506160Y-97990476D01*
X98506160Y-97990476D02*
X98553779Y-98133333D01*
X98553779Y-98133333D02*
X98553779Y-98228571D01*
X98553779Y-98228571D02*
X98506160Y-98371428D01*
X98506160Y-98371428D02*
X98410921Y-98466666D01*
X98410921Y-98466666D02*
X98315683Y-98514285D01*
X98315683Y-98514285D02*
X98125207Y-98561904D01*
X98125207Y-98561904D02*
X97982350Y-98561904D01*
X97982350Y-98561904D02*
X97791874Y-98514285D01*
X97791874Y-98514285D02*
X97696636Y-98466666D01*
X97696636Y-98466666D02*
X97601398Y-98371428D01*
X97601398Y-98371428D02*
X97553779Y-98228571D01*
X97553779Y-98228571D02*
X97553779Y-98133333D01*
X97553779Y-98133333D02*
X97601398Y-97990476D01*
X97601398Y-97990476D02*
X97649017Y-97942857D01*
X98553779Y-96990476D02*
X98553779Y-97561904D01*
X98553779Y-97276190D02*
X97553779Y-97276190D01*
X97553779Y-97276190D02*
X97696636Y-97371428D01*
X97696636Y-97371428D02*
X97791874Y-97466666D01*
X97791874Y-97466666D02*
X97839493Y-97561904D01*
X97553779Y-96371428D02*
X97553779Y-96276190D01*
X97553779Y-96276190D02*
X97601398Y-96180952D01*
X97601398Y-96180952D02*
X97649017Y-96133333D01*
X97649017Y-96133333D02*
X97744255Y-96085714D01*
X97744255Y-96085714D02*
X97934731Y-96038095D01*
X97934731Y-96038095D02*
X98172826Y-96038095D01*
X98172826Y-96038095D02*
X98363302Y-96085714D01*
X98363302Y-96085714D02*
X98458540Y-96133333D01*
X98458540Y-96133333D02*
X98506160Y-96180952D01*
X98506160Y-96180952D02*
X98553779Y-96276190D01*
X98553779Y-96276190D02*
X98553779Y-96371428D01*
X98553779Y-96371428D02*
X98506160Y-96466666D01*
X98506160Y-96466666D02*
X98458540Y-96514285D01*
X98458540Y-96514285D02*
X98363302Y-96561904D01*
X98363302Y-96561904D02*
X98172826Y-96609523D01*
X98172826Y-96609523D02*
X97934731Y-96609523D01*
X97934731Y-96609523D02*
X97744255Y-96561904D01*
X97744255Y-96561904D02*
X97649017Y-96514285D01*
X97649017Y-96514285D02*
X97601398Y-96466666D01*
X97601398Y-96466666D02*
X97553779Y-96371428D01*
X122961905Y-91483779D02*
X122961905Y-90483779D01*
X122961905Y-90483779D02*
X123200000Y-90483779D01*
X123200000Y-90483779D02*
X123342857Y-90531398D01*
X123342857Y-90531398D02*
X123438095Y-90626636D01*
X123438095Y-90626636D02*
X123485714Y-90721874D01*
X123485714Y-90721874D02*
X123533333Y-90912350D01*
X123533333Y-90912350D02*
X123533333Y-91055207D01*
X123533333Y-91055207D02*
X123485714Y-91245683D01*
X123485714Y-91245683D02*
X123438095Y-91340921D01*
X123438095Y-91340921D02*
X123342857Y-91436160D01*
X123342857Y-91436160D02*
X123200000Y-91483779D01*
X123200000Y-91483779D02*
X122961905Y-91483779D01*
X124485714Y-91483779D02*
X123914286Y-91483779D01*
X124200000Y-91483779D02*
X124200000Y-90483779D01*
X124200000Y-90483779D02*
X124104762Y-90626636D01*
X124104762Y-90626636D02*
X124009524Y-90721874D01*
X124009524Y-90721874D02*
X123914286Y-90769493D01*
X87058540Y-126842857D02*
X87106160Y-126890476D01*
X87106160Y-126890476D02*
X87153779Y-127033333D01*
X87153779Y-127033333D02*
X87153779Y-127128571D01*
X87153779Y-127128571D02*
X87106160Y-127271428D01*
X87106160Y-127271428D02*
X87010921Y-127366666D01*
X87010921Y-127366666D02*
X86915683Y-127414285D01*
X86915683Y-127414285D02*
X86725207Y-127461904D01*
X86725207Y-127461904D02*
X86582350Y-127461904D01*
X86582350Y-127461904D02*
X86391874Y-127414285D01*
X86391874Y-127414285D02*
X86296636Y-127366666D01*
X86296636Y-127366666D02*
X86201398Y-127271428D01*
X86201398Y-127271428D02*
X86153779Y-127128571D01*
X86153779Y-127128571D02*
X86153779Y-127033333D01*
X86153779Y-127033333D02*
X86201398Y-126890476D01*
X86201398Y-126890476D02*
X86249017Y-126842857D01*
X86249017Y-126461904D02*
X86201398Y-126414285D01*
X86201398Y-126414285D02*
X86153779Y-126319047D01*
X86153779Y-126319047D02*
X86153779Y-126080952D01*
X86153779Y-126080952D02*
X86201398Y-125985714D01*
X86201398Y-125985714D02*
X86249017Y-125938095D01*
X86249017Y-125938095D02*
X86344255Y-125890476D01*
X86344255Y-125890476D02*
X86439493Y-125890476D01*
X86439493Y-125890476D02*
X86582350Y-125938095D01*
X86582350Y-125938095D02*
X87153779Y-126509523D01*
X87153779Y-126509523D02*
X87153779Y-125890476D01*
X87153779Y-124938095D02*
X87153779Y-125509523D01*
X87153779Y-125223809D02*
X86153779Y-125223809D01*
X86153779Y-125223809D02*
X86296636Y-125319047D01*
X86296636Y-125319047D02*
X86391874Y-125414285D01*
X86391874Y-125414285D02*
X86439493Y-125509523D01*
X93233333Y-110053779D02*
X92900000Y-109577588D01*
X92661905Y-110053779D02*
X92661905Y-109053779D01*
X92661905Y-109053779D02*
X93042857Y-109053779D01*
X93042857Y-109053779D02*
X93138095Y-109101398D01*
X93138095Y-109101398D02*
X93185714Y-109149017D01*
X93185714Y-109149017D02*
X93233333Y-109244255D01*
X93233333Y-109244255D02*
X93233333Y-109387112D01*
X93233333Y-109387112D02*
X93185714Y-109482350D01*
X93185714Y-109482350D02*
X93138095Y-109529969D01*
X93138095Y-109529969D02*
X93042857Y-109577588D01*
X93042857Y-109577588D02*
X92661905Y-109577588D01*
X93804762Y-109482350D02*
X93709524Y-109434731D01*
X93709524Y-109434731D02*
X93661905Y-109387112D01*
X93661905Y-109387112D02*
X93614286Y-109291874D01*
X93614286Y-109291874D02*
X93614286Y-109244255D01*
X93614286Y-109244255D02*
X93661905Y-109149017D01*
X93661905Y-109149017D02*
X93709524Y-109101398D01*
X93709524Y-109101398D02*
X93804762Y-109053779D01*
X93804762Y-109053779D02*
X93995238Y-109053779D01*
X93995238Y-109053779D02*
X94090476Y-109101398D01*
X94090476Y-109101398D02*
X94138095Y-109149017D01*
X94138095Y-109149017D02*
X94185714Y-109244255D01*
X94185714Y-109244255D02*
X94185714Y-109291874D01*
X94185714Y-109291874D02*
X94138095Y-109387112D01*
X94138095Y-109387112D02*
X94090476Y-109434731D01*
X94090476Y-109434731D02*
X93995238Y-109482350D01*
X93995238Y-109482350D02*
X93804762Y-109482350D01*
X93804762Y-109482350D02*
X93709524Y-109529969D01*
X93709524Y-109529969D02*
X93661905Y-109577588D01*
X93661905Y-109577588D02*
X93614286Y-109672826D01*
X93614286Y-109672826D02*
X93614286Y-109863302D01*
X93614286Y-109863302D02*
X93661905Y-109958540D01*
X93661905Y-109958540D02*
X93709524Y-110006160D01*
X93709524Y-110006160D02*
X93804762Y-110053779D01*
X93804762Y-110053779D02*
X93995238Y-110053779D01*
X93995238Y-110053779D02*
X94090476Y-110006160D01*
X94090476Y-110006160D02*
X94138095Y-109958540D01*
X94138095Y-109958540D02*
X94185714Y-109863302D01*
X94185714Y-109863302D02*
X94185714Y-109672826D01*
X94185714Y-109672826D02*
X94138095Y-109577588D01*
X94138095Y-109577588D02*
X94090476Y-109529969D01*
X94090476Y-109529969D02*
X93995238Y-109482350D01*
X106508333Y-116258540D02*
X106460714Y-116306160D01*
X106460714Y-116306160D02*
X106317857Y-116353779D01*
X106317857Y-116353779D02*
X106222619Y-116353779D01*
X106222619Y-116353779D02*
X106079762Y-116306160D01*
X106079762Y-116306160D02*
X105984524Y-116210921D01*
X105984524Y-116210921D02*
X105936905Y-116115683D01*
X105936905Y-116115683D02*
X105889286Y-115925207D01*
X105889286Y-115925207D02*
X105889286Y-115782350D01*
X105889286Y-115782350D02*
X105936905Y-115591874D01*
X105936905Y-115591874D02*
X105984524Y-115496636D01*
X105984524Y-115496636D02*
X106079762Y-115401398D01*
X106079762Y-115401398D02*
X106222619Y-115353779D01*
X106222619Y-115353779D02*
X106317857Y-115353779D01*
X106317857Y-115353779D02*
X106460714Y-115401398D01*
X106460714Y-115401398D02*
X106508333Y-115449017D01*
X107365476Y-115353779D02*
X107175000Y-115353779D01*
X107175000Y-115353779D02*
X107079762Y-115401398D01*
X107079762Y-115401398D02*
X107032143Y-115449017D01*
X107032143Y-115449017D02*
X106936905Y-115591874D01*
X106936905Y-115591874D02*
X106889286Y-115782350D01*
X106889286Y-115782350D02*
X106889286Y-116163302D01*
X106889286Y-116163302D02*
X106936905Y-116258540D01*
X106936905Y-116258540D02*
X106984524Y-116306160D01*
X106984524Y-116306160D02*
X107079762Y-116353779D01*
X107079762Y-116353779D02*
X107270238Y-116353779D01*
X107270238Y-116353779D02*
X107365476Y-116306160D01*
X107365476Y-116306160D02*
X107413095Y-116258540D01*
X107413095Y-116258540D02*
X107460714Y-116163302D01*
X107460714Y-116163302D02*
X107460714Y-115925207D01*
X107460714Y-115925207D02*
X107413095Y-115829969D01*
X107413095Y-115829969D02*
X107365476Y-115782350D01*
X107365476Y-115782350D02*
X107270238Y-115734731D01*
X107270238Y-115734731D02*
X107079762Y-115734731D01*
X107079762Y-115734731D02*
X106984524Y-115782350D01*
X106984524Y-115782350D02*
X106936905Y-115829969D01*
X106936905Y-115829969D02*
X106889286Y-115925207D01*
X113433779Y-97466666D02*
X112957588Y-97799999D01*
X113433779Y-98038094D02*
X112433779Y-98038094D01*
X112433779Y-98038094D02*
X112433779Y-97657142D01*
X112433779Y-97657142D02*
X112481398Y-97561904D01*
X112481398Y-97561904D02*
X112529017Y-97514285D01*
X112529017Y-97514285D02*
X112624255Y-97466666D01*
X112624255Y-97466666D02*
X112767112Y-97466666D01*
X112767112Y-97466666D02*
X112862350Y-97514285D01*
X112862350Y-97514285D02*
X112909969Y-97561904D01*
X112909969Y-97561904D02*
X112957588Y-97657142D01*
X112957588Y-97657142D02*
X112957588Y-98038094D01*
X112433779Y-96609523D02*
X112433779Y-96799999D01*
X112433779Y-96799999D02*
X112481398Y-96895237D01*
X112481398Y-96895237D02*
X112529017Y-96942856D01*
X112529017Y-96942856D02*
X112671874Y-97038094D01*
X112671874Y-97038094D02*
X112862350Y-97085713D01*
X112862350Y-97085713D02*
X113243302Y-97085713D01*
X113243302Y-97085713D02*
X113338540Y-97038094D01*
X113338540Y-97038094D02*
X113386160Y-96990475D01*
X113386160Y-96990475D02*
X113433779Y-96895237D01*
X113433779Y-96895237D02*
X113433779Y-96704761D01*
X113433779Y-96704761D02*
X113386160Y-96609523D01*
X113386160Y-96609523D02*
X113338540Y-96561904D01*
X113338540Y-96561904D02*
X113243302Y-96514285D01*
X113243302Y-96514285D02*
X113005207Y-96514285D01*
X113005207Y-96514285D02*
X112909969Y-96561904D01*
X112909969Y-96561904D02*
X112862350Y-96609523D01*
X112862350Y-96609523D02*
X112814731Y-96704761D01*
X112814731Y-96704761D02*
X112814731Y-96895237D01*
X112814731Y-96895237D02*
X112862350Y-96990475D01*
X112862350Y-96990475D02*
X112909969Y-97038094D01*
X112909969Y-97038094D02*
X113005207Y-97085713D01*
X106508333Y-117848540D02*
X106460714Y-117896160D01*
X106460714Y-117896160D02*
X106317857Y-117943779D01*
X106317857Y-117943779D02*
X106222619Y-117943779D01*
X106222619Y-117943779D02*
X106079762Y-117896160D01*
X106079762Y-117896160D02*
X105984524Y-117800921D01*
X105984524Y-117800921D02*
X105936905Y-117705683D01*
X105936905Y-117705683D02*
X105889286Y-117515207D01*
X105889286Y-117515207D02*
X105889286Y-117372350D01*
X105889286Y-117372350D02*
X105936905Y-117181874D01*
X105936905Y-117181874D02*
X105984524Y-117086636D01*
X105984524Y-117086636D02*
X106079762Y-116991398D01*
X106079762Y-116991398D02*
X106222619Y-116943779D01*
X106222619Y-116943779D02*
X106317857Y-116943779D01*
X106317857Y-116943779D02*
X106460714Y-116991398D01*
X106460714Y-116991398D02*
X106508333Y-117039017D01*
X106841667Y-116943779D02*
X107508333Y-116943779D01*
X107508333Y-116943779D02*
X107079762Y-117943779D01*
X121538540Y-116902857D02*
X121586160Y-116950476D01*
X121586160Y-116950476D02*
X121633779Y-117093333D01*
X121633779Y-117093333D02*
X121633779Y-117188571D01*
X121633779Y-117188571D02*
X121586160Y-117331428D01*
X121586160Y-117331428D02*
X121490921Y-117426666D01*
X121490921Y-117426666D02*
X121395683Y-117474285D01*
X121395683Y-117474285D02*
X121205207Y-117521904D01*
X121205207Y-117521904D02*
X121062350Y-117521904D01*
X121062350Y-117521904D02*
X120871874Y-117474285D01*
X120871874Y-117474285D02*
X120776636Y-117426666D01*
X120776636Y-117426666D02*
X120681398Y-117331428D01*
X120681398Y-117331428D02*
X120633779Y-117188571D01*
X120633779Y-117188571D02*
X120633779Y-117093333D01*
X120633779Y-117093333D02*
X120681398Y-116950476D01*
X120681398Y-116950476D02*
X120729017Y-116902857D01*
X120729017Y-116521904D02*
X120681398Y-116474285D01*
X120681398Y-116474285D02*
X120633779Y-116379047D01*
X120633779Y-116379047D02*
X120633779Y-116140952D01*
X120633779Y-116140952D02*
X120681398Y-116045714D01*
X120681398Y-116045714D02*
X120729017Y-115998095D01*
X120729017Y-115998095D02*
X120824255Y-115950476D01*
X120824255Y-115950476D02*
X120919493Y-115950476D01*
X120919493Y-115950476D02*
X121062350Y-115998095D01*
X121062350Y-115998095D02*
X121633779Y-116569523D01*
X121633779Y-116569523D02*
X121633779Y-115950476D01*
X120633779Y-115331428D02*
X120633779Y-115236190D01*
X120633779Y-115236190D02*
X120681398Y-115140952D01*
X120681398Y-115140952D02*
X120729017Y-115093333D01*
X120729017Y-115093333D02*
X120824255Y-115045714D01*
X120824255Y-115045714D02*
X121014731Y-114998095D01*
X121014731Y-114998095D02*
X121252826Y-114998095D01*
X121252826Y-114998095D02*
X121443302Y-115045714D01*
X121443302Y-115045714D02*
X121538540Y-115093333D01*
X121538540Y-115093333D02*
X121586160Y-115140952D01*
X121586160Y-115140952D02*
X121633779Y-115236190D01*
X121633779Y-115236190D02*
X121633779Y-115331428D01*
X121633779Y-115331428D02*
X121586160Y-115426666D01*
X121586160Y-115426666D02*
X121538540Y-115474285D01*
X121538540Y-115474285D02*
X121443302Y-115521904D01*
X121443302Y-115521904D02*
X121252826Y-115569523D01*
X121252826Y-115569523D02*
X121014731Y-115569523D01*
X121014731Y-115569523D02*
X120824255Y-115521904D01*
X120824255Y-115521904D02*
X120729017Y-115474285D01*
X120729017Y-115474285D02*
X120681398Y-115426666D01*
X120681398Y-115426666D02*
X120633779Y-115331428D01*
X117443779Y-97456666D02*
X116967588Y-97789999D01*
X117443779Y-98028094D02*
X116443779Y-98028094D01*
X116443779Y-98028094D02*
X116443779Y-97647142D01*
X116443779Y-97647142D02*
X116491398Y-97551904D01*
X116491398Y-97551904D02*
X116539017Y-97504285D01*
X116539017Y-97504285D02*
X116634255Y-97456666D01*
X116634255Y-97456666D02*
X116777112Y-97456666D01*
X116777112Y-97456666D02*
X116872350Y-97504285D01*
X116872350Y-97504285D02*
X116919969Y-97551904D01*
X116919969Y-97551904D02*
X116967588Y-97647142D01*
X116967588Y-97647142D02*
X116967588Y-98028094D01*
X116777112Y-96599523D02*
X117443779Y-96599523D01*
X116396160Y-96837618D02*
X117110445Y-97075713D01*
X117110445Y-97075713D02*
X117110445Y-96456666D01*
X127857142Y-109858540D02*
X127809523Y-109906160D01*
X127809523Y-109906160D02*
X127666666Y-109953779D01*
X127666666Y-109953779D02*
X127571428Y-109953779D01*
X127571428Y-109953779D02*
X127428571Y-109906160D01*
X127428571Y-109906160D02*
X127333333Y-109810921D01*
X127333333Y-109810921D02*
X127285714Y-109715683D01*
X127285714Y-109715683D02*
X127238095Y-109525207D01*
X127238095Y-109525207D02*
X127238095Y-109382350D01*
X127238095Y-109382350D02*
X127285714Y-109191874D01*
X127285714Y-109191874D02*
X127333333Y-109096636D01*
X127333333Y-109096636D02*
X127428571Y-109001398D01*
X127428571Y-109001398D02*
X127571428Y-108953779D01*
X127571428Y-108953779D02*
X127666666Y-108953779D01*
X127666666Y-108953779D02*
X127809523Y-109001398D01*
X127809523Y-109001398D02*
X127857142Y-109049017D01*
X128809523Y-109953779D02*
X128238095Y-109953779D01*
X128523809Y-109953779D02*
X128523809Y-108953779D01*
X128523809Y-108953779D02*
X128428571Y-109096636D01*
X128428571Y-109096636D02*
X128333333Y-109191874D01*
X128333333Y-109191874D02*
X128238095Y-109239493D01*
X129285714Y-109953779D02*
X129476190Y-109953779D01*
X129476190Y-109953779D02*
X129571428Y-109906160D01*
X129571428Y-109906160D02*
X129619047Y-109858540D01*
X129619047Y-109858540D02*
X129714285Y-109715683D01*
X129714285Y-109715683D02*
X129761904Y-109525207D01*
X129761904Y-109525207D02*
X129761904Y-109144255D01*
X129761904Y-109144255D02*
X129714285Y-109049017D01*
X129714285Y-109049017D02*
X129666666Y-109001398D01*
X129666666Y-109001398D02*
X129571428Y-108953779D01*
X129571428Y-108953779D02*
X129380952Y-108953779D01*
X129380952Y-108953779D02*
X129285714Y-109001398D01*
X129285714Y-109001398D02*
X129238095Y-109049017D01*
X129238095Y-109049017D02*
X129190476Y-109144255D01*
X129190476Y-109144255D02*
X129190476Y-109382350D01*
X129190476Y-109382350D02*
X129238095Y-109477588D01*
X129238095Y-109477588D02*
X129285714Y-109525207D01*
X129285714Y-109525207D02*
X129380952Y-109572826D01*
X129380952Y-109572826D02*
X129571428Y-109572826D01*
X129571428Y-109572826D02*
X129666666Y-109525207D01*
X129666666Y-109525207D02*
X129714285Y-109477588D01*
X129714285Y-109477588D02*
X129761904Y-109382350D01*
X105488095Y-98728779D02*
X105488095Y-99538302D01*
X105488095Y-99538302D02*
X105535714Y-99633540D01*
X105535714Y-99633540D02*
X105583333Y-99681160D01*
X105583333Y-99681160D02*
X105678571Y-99728779D01*
X105678571Y-99728779D02*
X105869047Y-99728779D01*
X105869047Y-99728779D02*
X105964285Y-99681160D01*
X105964285Y-99681160D02*
X106011904Y-99633540D01*
X106011904Y-99633540D02*
X106059523Y-99538302D01*
X106059523Y-99538302D02*
X106059523Y-98728779D01*
X107059523Y-99728779D02*
X106488095Y-99728779D01*
X106773809Y-99728779D02*
X106773809Y-98728779D01*
X106773809Y-98728779D02*
X106678571Y-98871636D01*
X106678571Y-98871636D02*
X106583333Y-98966874D01*
X106583333Y-98966874D02*
X106488095Y-99014493D01*
X120488095Y-104578779D02*
X120488095Y-105388302D01*
X120488095Y-105388302D02*
X120535714Y-105483540D01*
X120535714Y-105483540D02*
X120583333Y-105531160D01*
X120583333Y-105531160D02*
X120678571Y-105578779D01*
X120678571Y-105578779D02*
X120869047Y-105578779D01*
X120869047Y-105578779D02*
X120964285Y-105531160D01*
X120964285Y-105531160D02*
X121011904Y-105483540D01*
X121011904Y-105483540D02*
X121059523Y-105388302D01*
X121059523Y-105388302D02*
X121059523Y-104578779D01*
X122011904Y-104578779D02*
X121535714Y-104578779D01*
X121535714Y-104578779D02*
X121488095Y-105054969D01*
X121488095Y-105054969D02*
X121535714Y-105007350D01*
X121535714Y-105007350D02*
X121630952Y-104959731D01*
X121630952Y-104959731D02*
X121869047Y-104959731D01*
X121869047Y-104959731D02*
X121964285Y-105007350D01*
X121964285Y-105007350D02*
X122011904Y-105054969D01*
X122011904Y-105054969D02*
X122059523Y-105150207D01*
X122059523Y-105150207D02*
X122059523Y-105388302D01*
X122059523Y-105388302D02*
X122011904Y-105483540D01*
X122011904Y-105483540D02*
X121964285Y-105531160D01*
X121964285Y-105531160D02*
X121869047Y-105578779D01*
X121869047Y-105578779D02*
X121630952Y-105578779D01*
X121630952Y-105578779D02*
X121535714Y-105531160D01*
X121535714Y-105531160D02*
X121488095Y-105483540D01*
X89953779Y-83766666D02*
X89477588Y-84099999D01*
X89953779Y-84338094D02*
X88953779Y-84338094D01*
X88953779Y-84338094D02*
X88953779Y-83957142D01*
X88953779Y-83957142D02*
X89001398Y-83861904D01*
X89001398Y-83861904D02*
X89049017Y-83814285D01*
X89049017Y-83814285D02*
X89144255Y-83766666D01*
X89144255Y-83766666D02*
X89287112Y-83766666D01*
X89287112Y-83766666D02*
X89382350Y-83814285D01*
X89382350Y-83814285D02*
X89429969Y-83861904D01*
X89429969Y-83861904D02*
X89477588Y-83957142D01*
X89477588Y-83957142D02*
X89477588Y-84338094D01*
X89953779Y-83290475D02*
X89953779Y-83099999D01*
X89953779Y-83099999D02*
X89906160Y-83004761D01*
X89906160Y-83004761D02*
X89858540Y-82957142D01*
X89858540Y-82957142D02*
X89715683Y-82861904D01*
X89715683Y-82861904D02*
X89525207Y-82814285D01*
X89525207Y-82814285D02*
X89144255Y-82814285D01*
X89144255Y-82814285D02*
X89049017Y-82861904D01*
X89049017Y-82861904D02*
X89001398Y-82909523D01*
X89001398Y-82909523D02*
X88953779Y-83004761D01*
X88953779Y-83004761D02*
X88953779Y-83195237D01*
X88953779Y-83195237D02*
X89001398Y-83290475D01*
X89001398Y-83290475D02*
X89049017Y-83338094D01*
X89049017Y-83338094D02*
X89144255Y-83385713D01*
X89144255Y-83385713D02*
X89382350Y-83385713D01*
X89382350Y-83385713D02*
X89477588Y-83338094D01*
X89477588Y-83338094D02*
X89525207Y-83290475D01*
X89525207Y-83290475D02*
X89572826Y-83195237D01*
X89572826Y-83195237D02*
X89572826Y-83004761D01*
X89572826Y-83004761D02*
X89525207Y-82909523D01*
X89525207Y-82909523D02*
X89477588Y-82861904D01*
X89477588Y-82861904D02*
X89382350Y-82814285D01*
X91658540Y-126842857D02*
X91706160Y-126890476D01*
X91706160Y-126890476D02*
X91753779Y-127033333D01*
X91753779Y-127033333D02*
X91753779Y-127128571D01*
X91753779Y-127128571D02*
X91706160Y-127271428D01*
X91706160Y-127271428D02*
X91610921Y-127366666D01*
X91610921Y-127366666D02*
X91515683Y-127414285D01*
X91515683Y-127414285D02*
X91325207Y-127461904D01*
X91325207Y-127461904D02*
X91182350Y-127461904D01*
X91182350Y-127461904D02*
X90991874Y-127414285D01*
X90991874Y-127414285D02*
X90896636Y-127366666D01*
X90896636Y-127366666D02*
X90801398Y-127271428D01*
X90801398Y-127271428D02*
X90753779Y-127128571D01*
X90753779Y-127128571D02*
X90753779Y-127033333D01*
X90753779Y-127033333D02*
X90801398Y-126890476D01*
X90801398Y-126890476D02*
X90849017Y-126842857D01*
X90849017Y-126461904D02*
X90801398Y-126414285D01*
X90801398Y-126414285D02*
X90753779Y-126319047D01*
X90753779Y-126319047D02*
X90753779Y-126080952D01*
X90753779Y-126080952D02*
X90801398Y-125985714D01*
X90801398Y-125985714D02*
X90849017Y-125938095D01*
X90849017Y-125938095D02*
X90944255Y-125890476D01*
X90944255Y-125890476D02*
X91039493Y-125890476D01*
X91039493Y-125890476D02*
X91182350Y-125938095D01*
X91182350Y-125938095D02*
X91753779Y-126509523D01*
X91753779Y-126509523D02*
X91753779Y-125890476D01*
X90849017Y-125509523D02*
X90801398Y-125461904D01*
X90801398Y-125461904D02*
X90753779Y-125366666D01*
X90753779Y-125366666D02*
X90753779Y-125128571D01*
X90753779Y-125128571D02*
X90801398Y-125033333D01*
X90801398Y-125033333D02*
X90849017Y-124985714D01*
X90849017Y-124985714D02*
X90944255Y-124938095D01*
X90944255Y-124938095D02*
X91039493Y-124938095D01*
X91039493Y-124938095D02*
X91182350Y-124985714D01*
X91182350Y-124985714D02*
X91753779Y-125557142D01*
X91753779Y-125557142D02*
X91753779Y-124938095D01*
D15*
X100490000Y-99915580D02*
X100490000Y-99634420D01*
X101510000Y-99915580D02*
X101510000Y-99634420D01*
X93990000Y-102359420D02*
X93990000Y-102640580D01*
X95010000Y-102359420D02*
X95010000Y-102640580D01*
X88390000Y-91040580D02*
X88390000Y-90759420D01*
X89410000Y-91040580D02*
X89410000Y-90759420D01*
X114890000Y-108860000D02*
X114890000Y-108685000D01*
X115565000Y-106140000D02*
X115190000Y-106140000D01*
X115565000Y-108860000D02*
X114890000Y-108860000D01*
X117435000Y-106140000D02*
X118110000Y-106140000D01*
X117435000Y-108860000D02*
X118110000Y-108860000D01*
X118110000Y-106140000D02*
X118110000Y-106315000D01*
X118110000Y-108860000D02*
X118110000Y-108685000D01*
X114890000Y-106140000D02*
X114750000Y-105950000D01*
X115030000Y-105950000D01*
X114890000Y-106140000D01*
G36*
X114890000Y-106140000D02*
G01*
X114750000Y-105950000D01*
X115030000Y-105950000D01*
X114890000Y-106140000D01*
G37*
X98890000Y-131965000D02*
X99940000Y-131965000D01*
X98890000Y-134465000D02*
X98890000Y-131965000D01*
X99940000Y-131965000D02*
X99940000Y-130975000D01*
X100060000Y-136435000D02*
X104940000Y-136435000D01*
X106110000Y-131965000D02*
X105060000Y-131965000D01*
X106110000Y-134465000D02*
X106110000Y-131965000D01*
X126862500Y-102615000D02*
X126062500Y-102615000D01*
X126862500Y-102615000D02*
X127662500Y-102615000D01*
X126862500Y-105735000D02*
X126062500Y-105735000D01*
X126862500Y-105735000D02*
X127662500Y-105735000D01*
X128402500Y-106015000D02*
X127922500Y-106015000D01*
X128162500Y-105685000D01*
X128402500Y-106015000D01*
G36*
X128402500Y-106015000D02*
G01*
X127922500Y-106015000D01*
X128162500Y-105685000D01*
X128402500Y-106015000D01*
G37*
X124740000Y-87600000D02*
X124740000Y-89600000D01*
X124740000Y-87600000D02*
X128750000Y-87600000D01*
X124740000Y-89600000D02*
X128750000Y-89600000D01*
X93900000Y-106950000D02*
X96200000Y-106950000D01*
X96200000Y-106950000D02*
X96200000Y-104250000D01*
X124240000Y-107640580D02*
X124240000Y-107359420D01*
X125260000Y-107640580D02*
X125260000Y-107359420D01*
X119165000Y-112915580D02*
X119165000Y-112634420D01*
X120185000Y-112915580D02*
X120185000Y-112634420D01*
X94684420Y-107290000D02*
X94965580Y-107290000D01*
X94684420Y-108310000D02*
X94965580Y-108310000D01*
X101920000Y-123400000D02*
G75*
G02*
X92680000Y-123400000I-4620000J0D01*
G01*
X92680000Y-123400000D02*
G75*
G02*
X101920000Y-123400000I4620000J0D01*
G01*
X78850000Y-100700000D02*
X79640000Y-100700000D01*
X79640000Y-93800000D02*
X78850000Y-93800000D01*
X80690000Y-95650000D02*
X80690000Y-97350000D01*
X80690000Y-98650000D02*
X80690000Y-98850000D01*
X96090000Y-97159420D02*
X96090000Y-97440580D01*
X97110000Y-97159420D02*
X97110000Y-97440580D01*
D16*
X87650000Y-124350000D02*
X87650000Y-124200000D01*
X87650000Y-124360000D02*
X87800000Y-124360000D01*
X90200000Y-121650000D02*
X90350000Y-121650000D01*
X90350000Y-121650000D02*
X90350000Y-121800000D01*
X90350000Y-124350000D02*
X90200000Y-124350000D01*
X90350000Y-124350000D02*
X90350000Y-124200000D01*
D15*
X87650000Y-121650000D02*
X87290000Y-121650000D01*
X87650000Y-121290000D01*
X87650000Y-121650000D01*
G36*
X87650000Y-121650000D02*
G01*
X87290000Y-121650000D01*
X87650000Y-121290000D01*
X87650000Y-121650000D01*
G37*
X95905000Y-89270000D02*
X96540000Y-89270000D01*
X96540000Y-89270000D02*
X96540000Y-89905000D01*
X112344000Y-92000000D02*
X112344000Y-85900000D01*
X113444000Y-92000000D02*
X112344000Y-92000000D01*
X117744000Y-85900000D02*
X117744000Y-90900000D01*
X77515000Y-104560000D02*
X77515000Y-108440000D01*
X79485000Y-103390000D02*
X81985000Y-103390000D01*
X79485000Y-109610000D02*
X81985000Y-109610000D01*
X81985000Y-103390000D02*
X81985000Y-104440000D01*
X81985000Y-104440000D02*
X82975000Y-104440000D01*
X81985000Y-109610000D02*
X81985000Y-108560000D01*
X87890000Y-131965000D02*
X88940000Y-131965000D01*
X87890000Y-134465000D02*
X87890000Y-131965000D01*
X88940000Y-131965000D02*
X88940000Y-130975000D01*
X89060000Y-136435000D02*
X95940000Y-136435000D01*
X97110000Y-131965000D02*
X96060000Y-131965000D01*
X97110000Y-134465000D02*
X97110000Y-131965000D01*
X114477500Y-93937742D02*
X114477500Y-94412258D01*
X115522500Y-93937742D02*
X115522500Y-94412258D01*
X90637742Y-110677500D02*
X91112258Y-110677500D01*
X90637742Y-111722500D02*
X91112258Y-111722500D01*
X98675000Y-99125000D02*
X97325000Y-99125000D01*
X98675000Y-100875000D02*
X97325000Y-100875000D01*
X102090000Y-98115580D02*
X102090000Y-97834420D01*
X103110000Y-98115580D02*
X103110000Y-97834420D01*
X90685000Y-79185000D02*
X90685000Y-82715000D01*
X90750000Y-79185000D02*
X90685000Y-79185000D01*
X90750000Y-82715000D02*
X90685000Y-82715000D01*
X99630000Y-77860000D02*
X99630000Y-79185000D01*
X99695000Y-79185000D02*
X99630000Y-79185000D01*
X99695000Y-79185000D02*
X99695000Y-82715000D01*
X99695000Y-82715000D02*
X99630000Y-82715000D01*
X97840000Y-113309420D02*
X97840000Y-113590580D01*
X98860000Y-113309420D02*
X98860000Y-113590580D01*
X99440000Y-113309420D02*
X99440000Y-113590580D01*
X100460000Y-113309420D02*
X100460000Y-113590580D01*
X134430000Y-99005000D02*
X132730000Y-99005000D01*
X134430000Y-108345000D02*
X132730000Y-108345000D01*
X114359420Y-101740000D02*
X114640580Y-101740000D01*
X114359420Y-102760000D02*
X114640580Y-102760000D01*
X109049721Y-113740000D02*
X109375279Y-113740000D01*
X109049721Y-114760000D02*
X109375279Y-114760000D01*
X98890000Y-97159420D02*
X98890000Y-97440580D01*
X99910000Y-97159420D02*
X99910000Y-97440580D01*
X77490000Y-114660000D02*
X77490000Y-121540000D01*
X79460000Y-113490000D02*
X81960000Y-113490000D01*
X79460000Y-122710000D02*
X81960000Y-122710000D01*
X81960000Y-113490000D02*
X81960000Y-114540000D01*
X81960000Y-114540000D02*
X82950000Y-114540000D01*
X81960000Y-122710000D02*
X81960000Y-121660000D01*
X124740000Y-89990000D02*
X124740000Y-91990000D01*
X124740000Y-89990000D02*
X128750000Y-89990000D01*
X124740000Y-91990000D02*
X128750000Y-91990000D01*
X79840000Y-88150000D02*
X85960000Y-88150000D01*
X79840000Y-91850000D02*
X79840000Y-88150000D01*
X85960000Y-88150000D02*
X85960000Y-91850000D01*
X85960000Y-91850000D02*
X79840000Y-91850000D01*
X107890000Y-131965000D02*
X108940000Y-131965000D01*
X107890000Y-134465000D02*
X107890000Y-131965000D01*
X108940000Y-131965000D02*
X108940000Y-130975000D01*
X109060000Y-136435000D02*
X114940000Y-136435000D01*
X116110000Y-131965000D02*
X115060000Y-131965000D01*
X116110000Y-134465000D02*
X116110000Y-131965000D01*
X87690000Y-126034420D02*
X87690000Y-126315580D01*
X88710000Y-126034420D02*
X88710000Y-126315580D01*
X90637742Y-109077500D02*
X91112258Y-109077500D01*
X90637742Y-110122500D02*
X91112258Y-110122500D01*
X109059420Y-115390000D02*
X109340580Y-115390000D01*
X109059420Y-116410000D02*
X109340580Y-116410000D01*
D11*
X122621855Y-113065032D02*
X122621855Y-115815032D01*
X131371855Y-111565032D02*
X124121855Y-111565032D01*
X131371855Y-126315032D02*
X124121855Y-126315032D01*
D15*
X112477500Y-93937742D02*
X112477500Y-94412258D01*
X113522500Y-93937742D02*
X113522500Y-94412258D01*
X109059420Y-116990000D02*
X109340580Y-116990000D01*
X109059420Y-118010000D02*
X109340580Y-118010000D01*
X120740000Y-112634420D02*
X120740000Y-112915580D01*
X121760000Y-112634420D02*
X121760000Y-112915580D01*
X116477500Y-93937742D02*
X116477500Y-94412258D01*
X117522500Y-93937742D02*
X117522500Y-94412258D01*
X125359420Y-109240000D02*
X125640580Y-109240000D01*
X125359420Y-110260000D02*
X125640580Y-110260000D01*
X101140000Y-101565000D02*
X101140000Y-102515000D01*
X101140000Y-111785000D02*
X101140000Y-110835000D01*
X102090000Y-101565000D02*
X101140000Y-101565000D01*
X102090000Y-111785000D02*
X101140000Y-111785000D01*
X110410000Y-101565000D02*
X111360000Y-101565000D01*
X110410000Y-111785000D02*
X111360000Y-111785000D01*
X111360000Y-101565000D02*
X111360000Y-102515000D01*
X111360000Y-111785000D02*
X111360000Y-110835000D01*
X100525000Y-102515000D02*
X100185000Y-102045000D01*
X100865000Y-102045000D01*
X100525000Y-102515000D01*
G36*
X100525000Y-102515000D02*
G01*
X100185000Y-102045000D01*
X100865000Y-102045000D01*
X100525000Y-102515000D01*
G37*
X119100000Y-106815000D02*
X119100000Y-106590000D01*
X119100000Y-110650000D02*
X119100000Y-110125000D01*
X119100000Y-110650000D02*
X119625000Y-110650000D01*
X119625000Y-106350000D02*
X119400000Y-106350000D01*
X123400000Y-106350000D02*
X122875000Y-106350000D01*
X123400000Y-106350000D02*
X123400000Y-106875000D01*
X123400000Y-110650000D02*
X122875000Y-110650000D01*
X123400000Y-110650000D02*
X123400000Y-110125000D01*
X119100000Y-106350000D02*
X118860000Y-106020000D01*
X119340000Y-106020000D01*
X119100000Y-106350000D01*
G36*
X119100000Y-106350000D02*
G01*
X118860000Y-106020000D01*
X119340000Y-106020000D01*
X119100000Y-106350000D01*
G37*
X88777500Y-81337258D02*
X88777500Y-80862742D01*
X89822500Y-81337258D02*
X89822500Y-80862742D01*
X103390000Y-79485000D02*
X103390000Y-81985000D01*
X103390000Y-81985000D02*
X104440000Y-81985000D01*
X111440000Y-77515000D02*
X104560000Y-77515000D01*
X111560000Y-81985000D02*
X111560000Y-82975000D01*
X112610000Y-79485000D02*
X112610000Y-81985000D01*
X112610000Y-81985000D02*
X111560000Y-81985000D01*
X132015000Y-88590000D02*
X132015000Y-89640000D01*
X132015000Y-93760000D02*
X131025000Y-93760000D01*
X132015000Y-94810000D02*
X132015000Y-93760000D01*
X134515000Y-88590000D02*
X132015000Y-88590000D01*
X134515000Y-94810000D02*
X132015000Y-94810000D01*
X136485000Y-93640000D02*
X136485000Y-89760000D01*
X89290000Y-126315580D02*
X89290000Y-126034420D01*
X90310000Y-126315580D02*
X90310000Y-126034420D01*
%LPC*%
D17*
X101000000Y-100550000D03*
X101000000Y-99000000D03*
D18*
X94500000Y-101725000D03*
X94500000Y-103275000D03*
D17*
X88900000Y-91675000D03*
X88900000Y-90125000D03*
D19*
X115337500Y-106750000D03*
X115337500Y-107250000D03*
X115337500Y-107750000D03*
X115337500Y-108250000D03*
D20*
X116000000Y-108412500D03*
X116500000Y-108412500D03*
X117000000Y-108412500D03*
D19*
X117662500Y-108250000D03*
X117662500Y-107750000D03*
X117662500Y-107250000D03*
X117662500Y-106750000D03*
D20*
X117000000Y-106587500D03*
X116500000Y-106587500D03*
X116000000Y-106587500D03*
D21*
X100500000Y-131750000D03*
X101500000Y-131750000D03*
X102500000Y-131750000D03*
X103500000Y-131750000D03*
X104500000Y-131750000D03*
D22*
X99200000Y-135625000D03*
X105800000Y-135625000D03*
D23*
X128000000Y-105125000D03*
X128000000Y-104175000D03*
X128000000Y-103225000D03*
X125725000Y-103225000D03*
X125725000Y-104175000D03*
X125725000Y-105125000D03*
D24*
X125450000Y-88600000D03*
X128750000Y-88600000D03*
D25*
X95600000Y-106300000D03*
X95600000Y-104900000D03*
X94500000Y-104900000D03*
X94500000Y-106300000D03*
D17*
X124750000Y-108275000D03*
X124750000Y-106725000D03*
D26*
X131000000Y-83000000D03*
D17*
X119675000Y-113550000D03*
X119675000Y-112000000D03*
D27*
X94050000Y-107800000D03*
X95600000Y-107800000D03*
D28*
X95300000Y-123400000D03*
D29*
X99300000Y-123400000D03*
D30*
X80350000Y-93600000D03*
X78140000Y-93600000D03*
D31*
X79240000Y-95750000D03*
X79240000Y-98750000D03*
D30*
X80350000Y-100900000D03*
X78140000Y-100900000D03*
D32*
X81000000Y-95000000D03*
X81000000Y-98000000D03*
X81000000Y-99500000D03*
D18*
X96600000Y-96525000D03*
X96600000Y-98075000D03*
D33*
X88025000Y-121975000D03*
X88675000Y-121975000D03*
X89325000Y-121975000D03*
X89975000Y-121975000D03*
X89975000Y-124025000D03*
X89325000Y-124025000D03*
X88675000Y-124025000D03*
X88025000Y-124025000D03*
D34*
X97175000Y-93080000D03*
D35*
X97175000Y-90540000D03*
D34*
X97175000Y-88000000D03*
X94000000Y-93080000D03*
X94000000Y-88000000D03*
D35*
X92095000Y-91556000D03*
X92095000Y-89524000D03*
D36*
X95905000Y-89905000D03*
X95905000Y-91175000D03*
X94635000Y-89905000D03*
X94635000Y-91175000D03*
X93365000Y-89905000D03*
X93365000Y-91175000D03*
D37*
X113344000Y-86000000D03*
X115044000Y-86000000D03*
X116744000Y-86000000D03*
X116744000Y-90800000D03*
X115044000Y-90800000D03*
X113344000Y-90800000D03*
D38*
X82200000Y-105000000D03*
X82200000Y-106000000D03*
X82200000Y-107000000D03*
X82200000Y-108000000D03*
D39*
X78325000Y-103700000D03*
X78325000Y-109300000D03*
D21*
X89500000Y-131750000D03*
X90500000Y-131750000D03*
X91500000Y-131750000D03*
X92500000Y-131750000D03*
X93500000Y-131750000D03*
X94500000Y-131750000D03*
X95500000Y-131750000D03*
D22*
X88200000Y-135625000D03*
X96800000Y-135625000D03*
D40*
X115000000Y-93350000D03*
X115000000Y-95000000D03*
D41*
X90050000Y-111200000D03*
X91700000Y-111200000D03*
D42*
X96750000Y-100000000D03*
X99250000Y-100000000D03*
D17*
X102600000Y-98750000D03*
X102600000Y-97200000D03*
D43*
X99000000Y-79000000D03*
X99000000Y-82900000D03*
X97730000Y-79000000D03*
X97730000Y-82900000D03*
X96460000Y-79000000D03*
X96460000Y-82900000D03*
X95190000Y-79000000D03*
X95190000Y-82900000D03*
X93920000Y-79000000D03*
X93920000Y-82900000D03*
X92650000Y-79000000D03*
X92650000Y-82900000D03*
X91380000Y-79000000D03*
X91380000Y-82900000D03*
D18*
X98350000Y-112675000D03*
X98350000Y-114225000D03*
X99950000Y-112675000D03*
X99950000Y-114225000D03*
D44*
X131925000Y-106565000D03*
X131925000Y-100785000D03*
D45*
X130751500Y-106875000D03*
X130751500Y-106075000D03*
D46*
X130850000Y-104925000D03*
X130850000Y-103925000D03*
X130850000Y-103425000D03*
X130850000Y-102425000D03*
D45*
X130751500Y-101275000D03*
X130751500Y-100475000D03*
X130751500Y-100475000D03*
X130751500Y-101275000D03*
D46*
X130850000Y-101925000D03*
X130850000Y-102925000D03*
X130850000Y-104425000D03*
X130850000Y-105425000D03*
D45*
X130751500Y-106075000D03*
X130751500Y-106875000D03*
D47*
X131425000Y-107995000D03*
D48*
X135605000Y-107995000D03*
D47*
X131425000Y-99355000D03*
D48*
X135605000Y-99355000D03*
D27*
X113725000Y-102250000D03*
X115275000Y-102250000D03*
D49*
X108425000Y-114250000D03*
X110000000Y-114250000D03*
D18*
X99400000Y-96525000D03*
X99400000Y-98075000D03*
D38*
X82175000Y-115100000D03*
X82175000Y-116100000D03*
X82175000Y-117100000D03*
X82175000Y-118100000D03*
X82175000Y-119100000D03*
X82175000Y-120100000D03*
X82175000Y-121100000D03*
D39*
X78300000Y-113800000D03*
X78300000Y-122400000D03*
D24*
X125450000Y-90990000D03*
X128750000Y-90990000D03*
D50*
X79000000Y-90000000D03*
X86800000Y-90000000D03*
D26*
X83000000Y-131000000D03*
D21*
X109500000Y-131750000D03*
X110500000Y-131750000D03*
X111500000Y-131750000D03*
X112500000Y-131750000D03*
X113500000Y-131750000D03*
X114500000Y-131750000D03*
D22*
X108200000Y-135625000D03*
X115800000Y-135625000D03*
D18*
X88200000Y-125400000D03*
X88200000Y-126950000D03*
D26*
X131000000Y-131000000D03*
D41*
X90050000Y-109600000D03*
X91700000Y-109600000D03*
D27*
X108425000Y-115900000D03*
X109975000Y-115900000D03*
D26*
X82999999Y-82999999D03*
D31*
X133100000Y-115800000D03*
X133100000Y-123800000D03*
D51*
X122600000Y-116600000D03*
X122600000Y-117700000D03*
X122600000Y-118800000D03*
X122600000Y-119900000D03*
X122600000Y-121000000D03*
X122600000Y-122100000D03*
X122600000Y-123200000D03*
X122600000Y-124300000D03*
X122600000Y-125400000D03*
D52*
X132700000Y-111100000D03*
D53*
X123100000Y-112000000D03*
D52*
X132700000Y-126600000D03*
D54*
X123100000Y-126600000D03*
D40*
X113000000Y-93350000D03*
X113000000Y-95000000D03*
D27*
X108425000Y-117500000D03*
X109975000Y-117500000D03*
D18*
X121250000Y-112000000D03*
X121250000Y-113550000D03*
D40*
X117000000Y-93350000D03*
X117000000Y-95000000D03*
D27*
X124725000Y-109750000D03*
X126275000Y-109750000D03*
D55*
X100575000Y-102925000D03*
X100575000Y-103425000D03*
X100575000Y-103925000D03*
X100575000Y-104425000D03*
X100575000Y-104925000D03*
X100575000Y-105425000D03*
X100575000Y-105925000D03*
X100575000Y-106425000D03*
X100575000Y-106925000D03*
X100575000Y-107425000D03*
X100575000Y-107925000D03*
X100575000Y-108425000D03*
X100575000Y-108925000D03*
X100575000Y-109425000D03*
X100575000Y-109925000D03*
X100575000Y-110425000D03*
D56*
X102500000Y-112350000D03*
X103000000Y-112350000D03*
X103500000Y-112350000D03*
X104000000Y-112350000D03*
X104500000Y-112350000D03*
X105000000Y-112350000D03*
X105500000Y-112350000D03*
X106000000Y-112350000D03*
X106500000Y-112350000D03*
X107000000Y-112350000D03*
X107500000Y-112350000D03*
X108000000Y-112350000D03*
X108500000Y-112350000D03*
X109000000Y-112350000D03*
X109500000Y-112350000D03*
X110000000Y-112350000D03*
D55*
X111925000Y-110425000D03*
X111925000Y-109925000D03*
X111925000Y-109425000D03*
X111925000Y-108925000D03*
X111925000Y-108425000D03*
X111925000Y-107925000D03*
X111925000Y-107425000D03*
X111925000Y-106925000D03*
X111925000Y-106425000D03*
X111925000Y-105925000D03*
X111925000Y-105425000D03*
X111925000Y-104925000D03*
X111925000Y-104425000D03*
X111925000Y-103925000D03*
X111925000Y-103425000D03*
X111925000Y-102925000D03*
D56*
X110000000Y-101000000D03*
X109500000Y-101000000D03*
X109000000Y-101000000D03*
X108500000Y-101000000D03*
X108000000Y-101000000D03*
X107500000Y-101000000D03*
X107000000Y-101000000D03*
X106500000Y-101000000D03*
X106000000Y-101000000D03*
X105500000Y-101000000D03*
X105000000Y-101000000D03*
X104500000Y-101000000D03*
X104000000Y-101000000D03*
X103500000Y-101000000D03*
X103000000Y-101000000D03*
X102500000Y-101000000D03*
D57*
X119300000Y-107250000D03*
X119300000Y-107750000D03*
X119300000Y-108250000D03*
X119300000Y-108750000D03*
X119300000Y-109250000D03*
X119300000Y-109750000D03*
D58*
X120000000Y-110450000D03*
X120500000Y-110450000D03*
X121000000Y-110450000D03*
X121500000Y-110450000D03*
X122000000Y-110450000D03*
X122500000Y-110450000D03*
D57*
X123200000Y-109750000D03*
X123200000Y-109250000D03*
X123200000Y-108750000D03*
X123200000Y-108250000D03*
X123200000Y-107750000D03*
X123200000Y-107250000D03*
D58*
X122500000Y-106550000D03*
X122000000Y-106550000D03*
X121500000Y-106550000D03*
X121000000Y-106550000D03*
X120500000Y-106550000D03*
X120000000Y-106550000D03*
D59*
X89300000Y-81925000D03*
X89300000Y-80275000D03*
D60*
X111000000Y-82200000D03*
X110000000Y-82200000D03*
X109000000Y-82200000D03*
X108000000Y-82200000D03*
X107000000Y-82200000D03*
X106000000Y-82200000D03*
X105000000Y-82200000D03*
D61*
X112300000Y-78325000D03*
X103700000Y-78325000D03*
D62*
X131800000Y-93200000D03*
X131800000Y-92200000D03*
X131800000Y-91200000D03*
X131800000Y-90200000D03*
D63*
X135675000Y-94500000D03*
X135675000Y-88900000D03*
D17*
X89800000Y-126950000D03*
X89800000Y-125400000D03*
%LPD*%
M02*
